<svg width="258" height="128" viewBox="0 0 258 128" fill="none" xmlns="http://www.w3.org/2000/svg">
<path d="M250.688 94.0044V70.7175C254.71 70.138 257.812 66.6788 257.812 62.5C257.812 57.9174 254.084 54.1875 249.5 54.1875C244.916 54.1875 241.188 57.9174 241.188 62.5H184.188V110H219.873C220.491 119.923 228.738 127.813 238.812 127.813C249.289 127.813 257.812 119.289 257.812 108.813C257.812 102.829 255.025 97.4897 250.688 94.0044ZM249.5 56.5625C252.774 56.5625 255.438 59.2261 255.438 62.5C255.438 65.7739 252.774 68.4375 249.5 68.4375C246.226 68.4375 243.562 65.7739 243.562 62.5C243.562 59.2261 246.226 56.5625 249.5 56.5625ZM186.562 64.875H241.538C241.822 65.8226 242.273 66.6954 242.852 67.4697L235.59 74.7324C235.124 74.5092 234.611 74.375 234.062 74.375C233.514 74.375 233.001 74.5092 232.537 74.7324L230.144 72.3396C230.366 71.8741 230.5 71.3611 230.5 70.8125C230.5 68.8484 228.902 67.25 226.938 67.25C224.973 67.25 223.375 68.8484 223.375 70.8125C223.375 71.3611 223.509 71.8741 223.732 72.3384L217.777 78.2938C217.312 78.0717 216.799 77.9375 216.25 77.9375C214.286 77.9375 212.688 79.5359 212.688 81.5C212.688 83.4641 214.286 85.0625 216.25 85.0625C218.214 85.0625 219.812 83.4641 219.812 81.5C219.812 80.9514 219.678 80.4384 219.455 79.9741L225.41 74.0188C225.876 74.2408 226.389 74.375 226.938 74.375C227.486 74.375 227.999 74.2408 228.463 74.0176L230.856 76.4104C230.634 76.8759 230.5 77.3889 230.5 77.9375C230.5 79.9016 232.098 81.5 234.062 81.5C236.027 81.5 237.625 79.9016 237.625 77.9375C237.625 77.3889 237.491 76.8759 237.268 76.4116L244.531 69.1488C245.618 69.9634 246.908 70.5156 248.312 70.7187V92.3846C245.514 90.7589 242.275 89.8125 238.812 89.8125C233.136 89.8125 228.047 92.3276 224.562 96.2879V91H217.438V105.25H220.159C220.012 106.025 219.923 106.82 219.873 107.625H186.562V64.875ZM234.062 76.75C234.717 76.75 235.25 77.282 235.25 77.9375C235.25 78.593 234.717 79.125 234.062 79.125C233.408 79.125 232.875 78.593 232.875 77.9375C232.875 77.282 233.408 76.75 234.062 76.75ZM225.75 70.8125C225.75 70.157 226.283 69.625 226.938 69.625C227.592 69.625 228.125 70.157 228.125 70.8125C228.125 71.468 227.592 72 226.938 72C226.283 72 225.75 71.468 225.75 70.8125ZM217.438 81.5C217.438 82.1555 216.904 82.6875 216.25 82.6875C215.596 82.6875 215.062 82.1555 215.062 81.5C215.062 80.8445 215.596 80.3125 216.25 80.3125C216.904 80.3125 217.438 80.8445 217.438 81.5ZM238.812 118.313C233.574 118.313 229.312 114.051 229.312 108.813C229.312 103.574 233.574 99.3125 238.812 99.3125C244.051 99.3125 248.312 103.574 248.312 108.813C248.312 114.051 244.051 118.313 238.812 118.313ZM222.188 99.6343C221.619 100.66 221.148 101.745 220.776 102.875H219.812V93.375H222.188V99.6343ZM237.625 92.2481V96.9981C231.633 97.5966 226.938 102.666 226.938 108.813C226.938 110.55 227.322 112.197 227.996 113.686L223.876 116.065C222.805 113.87 222.188 111.414 222.188 108.813C222.188 100.046 229.012 92.8608 237.625 92.2481ZM238.812 125.438C233.096 125.438 228.044 122.536 225.052 118.128L229.188 115.74C231.347 118.731 234.851 120.688 238.812 120.688C242.774 120.688 246.278 118.731 248.437 115.74L252.573 118.128C249.581 122.536 244.529 125.438 238.812 125.438ZM253.749 116.065L249.629 113.686C250.303 112.197 250.688 110.55 250.688 108.813C250.688 102.666 245.992 97.5954 240 96.9981V92.2481C248.613 92.8608 255.438 100.046 255.438 108.813C255.438 111.414 254.82 113.87 253.749 116.065Z" fill="#767A8B"/>
<path d="M238.812 101.688C234.883 101.688 231.688 104.883 231.688 108.813C231.688 112.742 234.883 115.938 238.812 115.938C242.742 115.938 245.938 112.742 245.938 108.813C245.938 104.883 242.742 101.688 238.812 101.688ZM238.812 113.563C236.193 113.563 234.062 111.432 234.062 108.813C234.062 106.193 236.193 104.063 238.812 104.063C241.432 104.063 243.562 106.193 243.562 108.813C243.562 111.432 241.432 113.563 238.812 113.563Z" fill="#767A8B"/>
<path d="M188.938 67.25H191.312V69.625H188.938V67.25Z" fill="#767A8B"/>
<path d="M193.688 67.25H210.312V69.625H193.688V67.25Z" fill="#767A8B"/>
<path d="M188.938 72H191.312V74.375H188.938V72Z" fill="#767A8B"/>
<path d="M193.688 72H210.312V74.375H193.688V72Z" fill="#767A8B"/>
<path d="M188.938 76.75H191.312V79.125H188.938V76.75Z" fill="#767A8B"/>
<path d="M193.688 76.75H210.312V79.125H193.688V76.75Z" fill="#767A8B"/>
<path d="M188.938 81.5H191.312V83.875H188.938V81.5Z" fill="#767A8B"/>
<path d="M193.688 81.5H210.312V83.875H193.688V81.5Z" fill="#767A8B"/>
<path d="M188.938 105.25H196.062V93.375H188.938V105.25ZM191.312 95.75H193.688V102.875H191.312V95.75Z" fill="#767A8B"/>
<path d="M198.438 105.25H205.562V95.75H198.438V105.25ZM200.812 98.125H203.188V102.875H200.812V98.125Z" fill="#767A8B"/>
<path d="M207.938 105.25H215.062V86.25H207.938V105.25ZM210.312 88.625H212.688V102.875H210.312V88.625Z" fill="#767A8B"/>
<path d="M1.99816 30.4765L7.78483 10.5524C21.1763 84.7645 101.919 95.8889 102.715 96L103 93.9774C102.22 93.8662 25.7501 82.2228 12.8171 9.26575L29.4333 17.8646L30.5348 16.1491L5.7076 0L0 30.0956L1.99816 30.4765Z" fill="#767A8B"/>
</svg>
