<svg width="65" height="66" viewBox="0 0 65 66" fill="none" xmlns="http://www.w3.org/2000/svg">
<g clip-path="url(#clip0)">
<path d="M55.9485 64.5423L45.8841 54.5482C45.2052 53.8692 44.7385 53.0096 44.5402 52.0731C44.3418 51.1366 44.4206 50.1634 44.7665 49.2702L41.8308 46.3575C37.3302 50.1732 31.6049 52.2662 25.6879 52.2575V54.4084C25.681 54.4613 25.6598 54.5116 25.6274 54.5542C25.5951 54.5968 25.5524 54.6301 25.5031 54.6512C25.4537 54.6723 25.4001 54.6803 25.3467 54.6743C25.2934 54.6684 25.2425 54.6491 25.199 54.6177L19.3269 50.5889C19.2943 50.5573 19.2686 50.5198 19.2509 50.4782C19.2332 50.4365 19.2241 50.3913 19.2241 50.3461C19.2241 50.3008 19.2332 50.2564 19.2509 50.2148C19.2686 50.1731 19.2943 50.1356 19.3269 50.1041L25.269 46.1508C25.3122 46.1188 25.3632 46.0987 25.4167 46.0924C25.4702 46.0862 25.5244 46.0935 25.5739 46.1147C25.6234 46.1359 25.6669 46.1705 25.6991 46.2134C25.7313 46.2563 25.7516 46.3069 25.7578 46.3601V48.5118C30.2624 48.5133 34.6511 47.0972 38.295 44.4666C41.9389 41.8361 44.6501 38.1267 46.0395 33.8703C47.429 29.6139 47.4257 25.0298 46.0292 20.7757C44.6326 16.5216 41.9147 12.8159 38.2665 10.1913L40.4334 7.20486C43.6339 9.51195 46.2397 12.5384 48.0372 16.0373C49.8347 19.5362 50.7732 23.4081 50.7759 27.3363C50.7848 33.214 48.6778 38.9012 44.8364 43.3719L47.7721 46.2889C48.6781 45.9652 49.6584 45.9043 50.598 46.113C51.5376 46.3218 52.3976 46.7915 53.0785 47.4677L63.0721 57.4652C63.9823 58.4113 64.4837 59.6733 64.4686 60.9819C64.4536 62.2905 63.9236 63.5416 62.9917 64.4668C62.0599 65.3919 60.8009 65.9178 59.4835 65.9321C58.1661 65.9465 56.8953 65.4478 55.9433 64.5431L55.9485 64.5423ZM0.599854 27.3354C0.605006 20.7461 3.24198 14.4278 7.93246 9.76837C12.6229 5.1089 18.9836 2.489 25.6171 2.48365V0.261603C25.6245 0.20868 25.6456 0.158973 25.6784 0.116612C25.7112 0.0742513 25.754 0.0412511 25.8036 0.0205234C25.8532 -0.00020439 25.9074 -0.00810523 25.9608 -0.00178293C26.0142 0.00453938 26.0652 0.0248365 26.1085 0.0565566L31.9772 4.08284C32.0106 4.1139 32.0376 4.15095 32.0558 4.19266C32.074 4.23436 32.0834 4.27931 32.0834 4.32478C32.0834 4.37024 32.074 4.41519 32.0558 4.4569C32.0376 4.49861 32.0106 4.53651 31.9772 4.56757L26.1085 8.593C26.065 8.62478 26.0136 8.64434 25.9599 8.65048C25.9063 8.65662 25.8524 8.64929 25.8028 8.62817C25.7531 8.60705 25.7101 8.57318 25.6775 8.53037C25.645 8.48756 25.624 8.43688 25.6171 8.38366V6.23454C21.1179 6.22561 16.7319 7.63398 13.0895 10.2574C9.44698 12.8808 6.73591 16.5843 5.34575 20.8349C3.95559 25.0854 3.95785 29.6642 5.35266 33.9132C6.74747 38.1622 9.46225 41.8626 13.1076 44.4821L10.9415 47.4694C7.74115 45.1617 5.13574 42.1346 3.33857 38.6353C1.54139 35.136 0.603117 31.2638 0.600717 27.3354H0.599854ZM13.3736 39.5327V29.8689H23.102V39.5327H13.3736ZM27.5241 25.4763V15.8125H37.2525V25.4763H27.5241ZM13.3736 25.4763V15.8125H23.102V25.4763H13.3736Z" fill="#8B8B8B"/>
<ellipse cx="33.299" cy="35.1521" rx="5.08653" ry="5.02174" fill="#666FBF"/>
</g>
<defs>
<clipPath id="clip0">
<rect width="63.945" height="66" fill="white" transform="translate(0.599854)"/>
</clipPath>
</defs>
</svg>
