<svg width="37" height="40" viewBox="0 0 37 40" fill="none" xmlns="http://www.w3.org/2000/svg">
<path fill-rule="evenodd" clip-rule="evenodd" d="M26.2024 33.2324L32.0259 39.1379L32.0229 39.1384C32.5737 39.6731 33.3091 39.9678 34.0714 39.9592C34.8336 39.9509 35.5621 39.6401 36.1013 39.0935C36.6405 38.5466 36.9471 37.8074 36.9559 37.0342C36.9646 36.2607 36.6746 35.5151 36.1478 34.9561L30.3654 29.0486C29.9713 28.6489 29.4738 28.3713 28.9301 28.248C28.3864 28.1245 27.8191 28.1606 27.2949 28.3518L25.5963 26.6282C27.819 23.9866 29.0381 20.6257 29.033 17.1526C29.0314 14.8315 28.4884 12.5435 27.4484 10.4761C26.4082 8.40845 24.9005 6.62012 23.0486 5.25683L21.7947 7.02148C23.9058 8.57251 25.4784 10.7622 26.2864 13.2759C27.0945 15.7898 27.0963 18.4985 26.2924 21.0137C25.4884 23.5288 23.9197 25.7207 21.8113 27.2751C19.7028 28.8296 17.1633 29.6663 14.557 29.6655V28.394C14.5533 28.3625 14.5416 28.3328 14.5229 28.3074C14.5044 28.282 14.4791 28.2615 14.4506 28.249C14.4219 28.2366 14.3905 28.2322 14.3596 28.2358C14.3286 28.2395 14.2991 28.2515 14.2742 28.2703L10.8359 30.6064C10.826 30.6162 10.8173 30.627 10.8097 30.6384C10.8027 30.6489 10.7968 30.6602 10.7919 30.6719C10.7871 30.6833 10.7833 30.6953 10.7808 30.7075C10.7778 30.7212 10.7764 30.7351 10.7764 30.7493C10.7764 30.7761 10.7816 30.8027 10.7919 30.8274C10.8021 30.852 10.817 30.8743 10.8359 30.8928L14.2336 33.2734C14.2588 33.292 14.2882 33.3035 14.3191 33.3069C14.35 33.3105 14.381 33.3057 14.4095 33.2932C14.4381 33.2808 14.4628 33.2612 14.4816 33.2361C14.4912 33.2229 14.499 33.2087 14.505 33.1938C14.5106 33.1799 14.5145 33.165 14.5165 33.1499V31.8789C17.9402 31.884 21.2529 30.6472 23.8572 28.3926L25.5558 30.1135C25.3556 30.6414 25.3101 31.2166 25.4248 31.7698C25.5397 32.3232 25.8096 32.8313 26.2024 33.2324ZM4.2428 6.77148C1.52881 9.5249 0.00292969 13.2583 0 17.1521C0.00183105 19.4734 0.5448 21.7615 1.58472 23.8293C2.62451 25.897 4.13208 27.6858 5.98389 29.0496L7.2373 27.2842C5.12793 25.7363 3.55713 23.5498 2.75012 21.0391C1.94299 18.5283 1.94165 15.8225 2.74609 13.3108C3.55042 10.7993 5.11914 8.61084 7.22681 7.06055C9.33435 5.51025 11.8722 4.67822 14.4755 4.68335V5.95337C14.4795 5.98486 14.4917 6.01465 14.5105 6.04004C14.5293 6.06543 14.5542 6.08545 14.583 6.0979C14.6117 6.11035 14.6428 6.11475 14.674 6.11108C14.705 6.10742 14.7347 6.09595 14.7599 6.07715L18.1556 3.69849C18.1749 3.67993 18.1906 3.65771 18.201 3.63306C18.2117 3.6084 18.217 3.58179 18.217 3.55493C18.217 3.52808 18.2117 3.50146 18.201 3.47681C18.194 3.4602 18.1846 3.44482 18.1733 3.43115C18.1678 3.42432 18.162 3.41797 18.1556 3.41186L14.7599 1.03271C14.7349 1.01416 14.7053 1.00195 14.6744 0.99829C14.6436 0.994628 14.6122 0.999267 14.5835 1.01147C14.5675 1.01831 14.5527 1.02734 14.5394 1.03833C14.5289 1.04712 14.5194 1.05713 14.511 1.06836C14.4921 1.09326 14.4799 1.1228 14.4755 1.15405V2.46704C10.6372 2.47021 6.95679 4.01831 4.2428 6.77148ZM7.39124 18.6492V24.3596H13.0203V18.6492H7.39124ZM15.579 10.343V16.0535H21.208V10.343H15.579ZM7.39124 10.343V16.0535H13.0203V10.343H7.39124ZM18.9205 24.7393C20.5459 24.7393 21.8636 23.4106 21.8636 21.7717C21.8636 20.1331 20.5459 18.8044 18.9205 18.8044C17.295 18.8044 15.9773 20.1331 15.9773 21.7717C15.9773 23.4106 17.295 24.7393 18.9205 24.7393Z" fill="white"/>
</svg>
