<svg width="43" height="48" viewBox="0 0 43 48" fill="none" xmlns="http://www.w3.org/2000/svg">
<path d="M21.8578 37.493H20.3477V33.4926C19.3527 33.3256 18.4342 32.8453 17.7217 32.1195C17.0091 31.3937 16.5384 30.4589 16.3757 29.4467H5.33126V34.951H3.82378V28.6794C3.82392 28.4759 3.90344 28.2807 4.04489 28.1368C4.18635 27.9928 4.37818 27.9118 4.5783 27.9115H16.3778C16.5391 26.8983 17.0093 25.9622 17.722 25.2355C18.4347 24.5088 19.3539 24.0281 20.3498 23.8614V22.1318H8.95128C7.66972 22.1318 6.41214 21.7784 5.31234 21.1093C4.21253 20.4402 3.31165 19.4804 2.70553 18.3321C2.09941 17.1837 1.81072 15.8897 1.87019 14.5878C1.92965 13.2859 2.33504 12.0247 3.04322 10.9384C3.806 9.76408 4.89293 8.84512 6.16753 8.29692C6.55533 6.11659 7.6378 4.12661 9.24795 2.63398C10.8581 1.14134 12.9065 0.229004 15.077 0.0377016C17.2476 -0.1536 19.4197 0.386767 21.2584 1.57544C23.097 2.76411 24.4999 4.53504 25.2508 6.61502C26.2417 6.29765 27.3002 6.26872 28.3064 6.53153C29.3126 6.79433 30.2264 7.33837 30.9443 8.10204C31.6873 7.83894 32.4686 7.70537 33.2553 7.70699C34.1863 7.70699 35.1082 7.89348 35.9683 8.25582C36.8285 8.61816 37.61 9.14924 38.2683 9.81876C38.9267 10.4883 39.4489 11.2831 39.8052 12.1579C40.1615 13.0326 40.3448 13.9702 40.3448 14.917C40.3448 15.8639 40.1615 16.8014 39.8052 17.6762C39.4489 18.551 38.9267 19.3458 38.2683 20.0153C37.61 20.6848 36.8285 21.2159 35.9683 21.5782C35.1082 21.9406 34.1863 22.1271 33.2553 22.1271H21.8573V23.8566C22.8566 24.0197 23.7799 24.4995 24.4953 25.2276C25.2107 25.9558 25.6817 26.895 25.8413 27.9115H37.6407C37.8408 27.9118 38.0325 27.9927 38.174 28.1366C38.3154 28.2804 38.395 28.4754 38.3953 28.6789V34.951H36.8914V29.4467H25.8449C25.6849 30.4632 25.2133 31.4022 24.4974 32.1299C23.7815 32.8576 22.8578 33.3367 21.8583 33.499L21.8578 37.493ZM21.1027 32.0241H21.1059H21.1116C21.7629 32.0238 22.3995 31.8271 22.9409 31.459C23.4824 31.0908 23.9043 30.5677 24.1535 29.9557C24.4027 29.3437 24.4679 28.6704 24.3408 28.0207C24.2138 27.3711 23.9003 26.7743 23.4398 26.3058C22.9794 25.8373 22.3928 25.5182 21.754 25.3887C21.1153 25.2592 20.4531 25.3252 19.8513 25.5783C19.2494 25.8314 18.7348 26.2603 18.3725 26.8108C18.0103 27.3612 17.8166 28.0085 17.816 28.6709V28.6736V28.6773V28.681C17.8218 29.5646 18.1691 30.4105 18.7829 31.0359C19.3966 31.6614 20.2276 32.0164 21.0965 32.0241H21.0996H21.1027ZM3.36815 14.9202C3.3698 16.4248 3.95832 17.8673 5.00454 18.9311C6.05076 19.9949 7.46923 20.5931 8.94868 20.5945H33.2553C34.735 20.5945 36.1542 19.9967 37.2006 18.9325C38.2469 17.8684 38.8347 16.4251 38.8347 14.9202C38.8347 13.4153 38.2469 11.972 37.2006 10.9079C36.1542 9.84373 34.735 9.2459 33.2553 9.2459C32.4893 9.24307 31.7315 9.40552 31.0318 9.72251C30.8773 9.79289 30.7039 9.80828 30.5397 9.7662C30.3755 9.72412 30.2301 9.62702 30.1268 9.49056C29.7492 8.99163 29.2635 8.588 28.7076 8.31108C28.1516 8.03415 27.5403 7.8914 26.9212 7.89392C26.2985 7.8904 25.6839 8.03858 25.1289 8.32605C25.0213 8.38178 24.9024 8.41099 24.7816 8.41131C24.6157 8.41144 24.4543 8.35595 24.3226 8.25342C24.1908 8.1509 24.0959 8.00705 24.0526 7.84414C23.5426 5.93838 22.4001 4.27069 20.8189 3.12395C19.2376 1.9772 17.3151 1.42199 15.3772 1.55248C13.4394 1.68298 11.6056 2.49115 10.1868 3.83991C8.76807 5.18868 7.85175 6.99501 7.59325 8.95253C7.57573 9.09388 7.51953 9.22739 7.43106 9.33787C7.3426 9.44834 7.22541 9.53134 7.09284 9.57741C6.0038 9.9652 5.0603 10.6878 4.39304 11.6452C3.72578 12.6026 3.36779 13.7473 3.36867 14.9207L3.36815 14.9202Z" fill="white"/>
<mask id="path-2-inside-1" fill="white">
<rect y="34.9514" width="9.3132" height="12.0743" rx="1"/>
</mask>
<rect y="34.9514" width="9.3132" height="12.0743" rx="1" stroke="white" stroke-width="4.4" mask="url(#path-2-inside-1)"/>
<mask id="path-3-inside-2" fill="white">
<rect x="16.7639" y="37.4934" width="8.69232" height="9.53233" rx="1"/>
</mask>
<rect x="16.7639" y="37.4934" width="8.69232" height="9.53233" rx="1" stroke="white" stroke-width="4.4" mask="url(#path-3-inside-2)"/>
<mask id="path-4-inside-3" fill="white">
<rect x="32.9067" y="34.9514" width="9.3132" height="12.0743" rx="1"/>
</mask>
<rect x="32.9067" y="34.9514" width="9.3132" height="12.0743" rx="1" stroke="white" stroke-width="4.4" mask="url(#path-4-inside-3)"/>
</svg>
