<svg width="62" height="68" viewBox="0 0 62 68" fill="none" xmlns="http://www.w3.org/2000/svg">
<path d="M32.3062 54.2149H30.1226V48.4304C28.6838 48.1888 27.3558 47.4944 26.3254 46.4449C25.2951 45.3954 24.6143 44.0437 24.3791 42.58H8.40882V50.5393H6.22901V41.4705C6.22921 41.1762 6.3442 40.894 6.54874 40.6858C6.75328 40.4777 7.03068 40.3605 7.32005 40.3601H24.3821C24.6153 38.895 25.2953 37.5414 26.3259 36.4906C27.3565 35.4397 28.6856 34.7447 30.1257 34.5036V32.0027H13.6434C11.7902 32.0026 9.97178 31.4916 8.38147 30.5241C6.79115 29.5566 5.48847 28.1688 4.61202 26.5082C3.73556 24.8477 3.31812 22.9766 3.40411 21.094C3.49009 19.2114 4.07629 17.3877 5.10032 15.8169C6.20331 14.1189 7.77501 12.7901 9.61808 11.9974C10.1788 8.8446 11.7441 5.96709 14.0724 3.80874C16.4007 1.65039 19.3626 0.33114 22.5012 0.0545167C25.6398 -0.222106 28.7808 0.559266 31.4394 2.27809C34.0981 3.99692 36.1268 6.55768 37.2125 9.56534C38.6454 9.10641 40.1759 9.06459 41.6309 9.4446C43.0859 9.82462 44.4073 10.6113 45.4454 11.7156C46.5197 11.3351 47.6494 11.142 48.787 11.1443C50.1332 11.1443 51.4663 11.414 52.7101 11.9379C53.9539 12.4619 55.084 13.2298 56.0359 14.1979C56.9879 15.1661 57.743 16.3154 58.2582 17.5803C58.7734 18.8452 59.0385 20.2009 59.0385 21.5701C59.0385 22.9392 58.7734 24.2949 58.2582 25.5598C57.743 26.8247 56.9879 27.974 56.0359 28.9422C55.084 29.9103 53.9539 30.6782 52.7101 31.2022C51.4663 31.7261 50.1332 31.9958 48.787 31.9958H32.3055V34.4967C33.7506 34.7325 35.0855 35.4263 36.12 36.4792C37.1545 37.5321 37.8357 38.8903 38.0664 40.3601H55.1284C55.4177 40.3605 55.6949 40.4776 55.8995 40.6856C56.104 40.8936 56.2191 41.1755 56.2195 41.4697V50.5393H54.0449V42.58H38.0716C37.8402 44.0498 37.1583 45.4077 36.1231 46.4599C35.0879 47.5122 33.7523 48.205 32.307 48.4396L32.3062 54.2149ZM31.2144 46.307H31.219H31.2272C32.169 46.3065 33.0895 46.0221 33.8725 45.4898C34.6554 44.9574 35.2655 44.201 35.6258 43.316C35.9861 42.4311 36.0804 41.4574 35.8967 40.518C35.7131 39.5786 35.2597 38.7157 34.5939 38.0383C33.9281 37.3609 33.0798 36.8994 32.1562 36.7121C31.2326 36.5249 30.2751 36.6203 29.4048 36.9863C28.5345 37.3523 27.7904 37.9725 27.2666 38.7684C26.7427 39.5644 26.4627 40.5004 26.4618 41.4582V41.462V41.4674V41.4728C26.4702 42.7505 26.9724 43.9736 27.8599 44.8781C28.7474 45.7825 29.949 46.2957 31.2054 46.307H31.2099H31.2144ZM5.57017 21.5746C5.57256 23.7503 6.42355 25.8361 7.93639 27.3744C9.44924 28.9126 11.5003 29.7777 13.6396 29.7797H48.787C50.9268 29.7797 52.9789 28.9152 54.4919 27.3765C56.0049 25.8378 56.855 23.7508 56.855 21.5746C56.855 19.3985 56.0049 17.3115 54.4919 15.7728C52.9789 14.2341 50.9268 13.3696 48.787 13.3696C47.6794 13.3655 46.5836 13.6004 45.5719 14.0588C45.3484 14.1605 45.0978 14.1828 44.8603 14.1219C44.6229 14.0611 44.4126 13.9207 44.2632 13.7234C43.7172 13.0019 43.015 12.4183 42.211 12.0178C41.4071 11.6174 40.5232 11.411 39.628 11.4146C38.7275 11.4095 37.8388 11.6238 37.0363 12.0395C36.8807 12.1201 36.7087 12.1623 36.5341 12.1628C36.2942 12.163 36.0609 12.0827 35.8703 11.9345C35.6797 11.7862 35.5425 11.5782 35.48 11.3427C34.7425 8.58691 33.0904 6.17543 30.8039 4.51723C28.5175 2.85903 25.7374 2.0562 22.9353 2.2449C20.1332 2.43359 17.4815 3.6022 15.43 5.55252C13.3785 7.50284 12.0535 10.1148 11.6797 12.9454C11.6543 13.1498 11.5731 13.3428 11.4452 13.5026C11.3172 13.6623 11.1478 13.7823 10.9561 13.849C9.38133 14.4097 8.01702 15.4546 7.05216 16.839C6.0873 18.2233 5.56965 19.8786 5.57092 21.5754L5.57017 21.5746Z" fill="#8B8B8B"/>
<mask id="path-2-inside-1" fill="white">
<rect x="0.699829" y="50.54" width="13.4669" height="17.4594" rx="1"/>
</mask>
<rect x="0.699829" y="50.54" width="13.4669" height="17.4594" rx="1" stroke="#666FBF" stroke-width="4.4" mask="url(#path-2-inside-1)"/>
<mask id="path-3-inside-2" fill="white">
<rect x="24.9404" y="54.2156" width="12.5691" height="13.7838" rx="1"/>
</mask>
<rect x="24.9404" y="54.2156" width="12.5691" height="13.7838" rx="1" stroke="#666FBF" stroke-width="4.4" mask="url(#path-3-inside-2)"/>
<mask id="path-4-inside-3" fill="white">
<rect x="48.2831" y="50.54" width="13.4669" height="17.4594" rx="1"/>
</mask>
<rect x="48.2831" y="50.54" width="13.4669" height="17.4594" rx="1" stroke="#666FBF" stroke-width="4.4" mask="url(#path-4-inside-3)"/>
</svg>
