<svg width="65" height="62" viewBox="0 0 65 62" fill="none" xmlns="http://www.w3.org/2000/svg">
<path fill-rule="evenodd" clip-rule="evenodd" d="M26.704 51.4301H39.2634C39.2471 50.9226 39.2391 50.4161 39.2391 49.912C39.2391 49.7576 39.2398 49.6043 39.2413 49.4519H38.5722V45.9334C38.8728 45.8499 39.1701 45.7571 39.4637 45.6553C39.5544 44.8682 39.6735 44.1159 39.8226 43.3986C39.4158 43.5794 38.9986 43.7397 38.5724 43.8783V40.5503C38.5724 40.0038 38.1298 39.5612 37.5834 39.5612C37.0369 39.5612 36.5943 40.0038 36.5943 40.5503V44.3383C35.9391 44.4446 35.2789 44.5015 34.6163 44.5064C31.5478 44.5113 28.5807 43.411 26.259 41.4058L29.7701 37.8947C32.0128 39.6404 35.0194 40.0483 37.6476 38.9604C40.2734 37.8724 42.1131 35.4593 42.4666 32.638H44.5065C45.053 32.638 45.4956 32.1954 45.4956 31.649C45.4956 31.1025 45.053 30.6599 44.5065 30.6599H41.5394C40.993 30.6599 40.5504 31.1025 40.5504 31.649C40.5504 34.0499 39.1039 36.2133 36.886 37.1307C34.6706 38.0505 32.1164 37.5412 30.4201 35.845C28.7239 34.1488 28.2146 31.5947 29.1344 29.3791C30.0517 27.1612 32.2153 25.7147 34.6162 25.7147C34.8782 25.7147 35.1305 25.6109 35.3159 25.4254C35.5014 25.24 35.6052 24.9878 35.6052 24.7257V17.8021C35.6052 17.54 35.5014 17.2878 35.3159 17.1024C35.1305 16.9169 34.8783 16.8131 34.6162 16.8131C30.4029 16.8155 26.3925 18.6156 23.5884 21.7582H18.7916V20.7692C18.7916 20.5071 18.6877 20.2549 18.5023 20.0694C18.3168 19.884 18.0646 19.7801 17.8025 19.7801H15.8244V17.8021H22.748C24.3873 17.8021 25.7151 16.4743 25.7151 14.835V10.8788C25.7126 10.147 25.4382 9.44229 24.9436 8.90078C25.4381 8.35928 25.7126 7.65456 25.7151 6.92271V3.95561H45.4957V10.8792C45.4957 11.1413 45.5996 11.3935 45.785 11.5789C45.9705 11.7644 46.2227 11.8682 46.4848 11.8682C46.5516 11.8682 46.6183 11.8633 46.6826 11.8484L55.3861 10.1077V32.6267C56.054 32.6487 56.7138 32.7025 57.3642 32.7866V8.90127C57.3642 8.55511 57.1812 8.23367 56.8845 8.0532L46.9941 2.11901C46.8408 2.02752 46.6653 1.97807 46.4848 1.97807H25.5319C25.114 0.796163 24.0013 0.00493725 22.7478 0H16.8136C16.2671 0 15.8245 0.442593 15.8245 0.989033C15.8245 1.53547 16.2671 1.97807 16.8136 1.97807H22.7478C23.0098 1.97807 23.2621 2.08191 23.4475 2.26736C23.633 2.4528 23.7368 2.70501 23.7368 2.96712V6.92325C23.7368 7.18534 23.633 7.43755 23.4475 7.62301C23.2621 7.80847 23.0099 7.9123 22.7478 7.9123H2.9671C2.42066 7.9123 1.97807 7.46971 1.97807 6.92327V2.96714C1.97807 2.4207 2.42066 1.9781 2.9671 1.9781H12.8574C13.4039 1.9781 13.8465 1.53551 13.8465 0.989071C13.8465 0.442631 13.4039 3.78795e-05 12.8574 3.78795e-05H2.9671C1.3278 3.78795e-05 0 1.32784 0 2.96714V6.92327C0.00247242 7.65512 0.276929 8.35982 0.771477 8.90134C0.276961 9.44283 0.00253192 10.1475 0 10.8794V14.8355C0 16.4748 1.3278 17.8026 2.9671 17.8026H4.94516C5.4916 17.8026 5.9342 17.36 5.9342 16.8136C5.9342 16.2672 5.4916 15.8246 4.94516 15.8246H2.9671C2.42066 15.8246 1.97807 15.382 1.97807 14.8355V10.8794C1.97807 10.333 2.42066 9.89037 2.9671 9.89037H22.7478C23.0098 9.89037 23.2621 9.99422 23.4475 10.1797C23.633 10.3651 23.7368 10.6173 23.7368 10.8794V14.8356C23.7368 15.0976 23.633 15.3498 23.4475 15.5353C23.2621 15.7208 23.0099 15.8246 22.7478 15.8246H8.9013C8.35486 15.8246 7.91226 16.2672 7.91226 16.8136C7.91226 17.3601 8.35486 17.8027 8.9013 17.8027H9.89033V19.7807H7.91226C7.36582 19.7807 6.92323 20.2233 6.92323 20.7698V21.7588H0.989033C0.442593 21.7588 0 22.2014 0 22.7478C0 23.2943 0.442593 23.7369 0.989033 23.7369H6.92323V24.7259C6.92323 24.988 7.02708 25.2402 7.21252 25.4257C7.39797 25.6111 7.65017 25.715 7.91228 25.715H17.8026C18.0647 25.715 18.3169 25.6111 18.5024 25.4257C18.6878 25.2402 18.7917 24.988 18.7917 24.7259V23.7369H22.0901C20.0378 26.9265 19.2936 30.7838 20.0106 34.5077C20.7276 38.2314 22.8491 41.5369 25.9349 43.7403C29.0232 45.9434 32.8407 46.8731 36.5943 46.3366V49.452H26.704V48.463C26.704 48.2009 26.6001 47.9487 26.4147 47.7632C26.2293 47.5778 25.977 47.474 25.7149 47.474H17.8027C17.2562 47.474 16.8136 47.9165 16.8136 48.463V52.4191C16.8136 52.6812 16.9175 52.9334 17.1029 53.1189C17.2884 53.3043 17.5406 53.4082 17.8027 53.4082H25.715C25.977 53.4082 26.2293 53.3043 26.4147 53.1189C26.6002 52.9334 26.704 52.6812 26.704 52.4191V51.4301ZM47.4737 31.6492C47.4724 32.3696 47.4108 33.085 47.2912 33.7883C47.9399 33.5378 48.6331 33.3272 49.3726 33.1567C49.4244 32.6576 49.451 32.1545 49.4518 31.6492C49.4518 31.1028 49.0092 30.6602 48.4627 30.6602C47.9163 30.6602 47.4737 31.1028 47.4737 31.6492ZM47.4741 4.71283L53.6729 8.43159L47.4741 9.67281V4.71283ZM16.8137 23.7371H8.90149V21.759H10.8796C11.1416 21.759 11.3938 21.6552 11.5793 21.4697C11.7648 21.2843 11.8686 21.0321 11.8686 20.77V17.8029H13.8467V20.77C13.8467 21.0321 13.9505 21.2843 14.136 21.4697C14.3214 21.6552 14.5736 21.759 14.8357 21.759H16.8138L16.8137 23.7371ZM21.7589 31.6493C21.7564 28.7786 22.7183 25.9921 24.4936 23.7371H28.6821C29.2286 23.7371 29.6712 23.2945 29.6712 22.748C29.6712 22.2016 29.2286 21.759 28.6821 21.759H26.4296C28.4671 20.0603 30.9816 19.0367 33.6272 18.829V23.7989C29.6736 24.3033 26.7088 27.6636 26.7037 31.6492C26.7012 33.4047 27.2872 35.1133 28.3702 36.4954L24.8591 40.0065C22.8538 37.6847 21.7536 34.7176 21.7585 31.6492L21.7589 31.6493ZM18.7918 49.4519H20.7699V51.43H18.7918V49.4519ZM24.726 51.43H22.7479V49.4519H24.726V51.43ZM20.7699 5.93448C21.3163 5.93448 21.7589 5.49189 21.7589 4.94545C21.7589 4.39901 21.3163 3.95642 20.7699 3.95642H16.8137C16.2673 3.95642 15.8247 4.39901 15.8247 4.94545C15.8247 5.49189 16.2673 5.93448 16.8137 5.93448H20.7699ZM5.93402 4.94581C5.93402 6.26368 3.95595 6.26368 3.95595 4.94581C3.95595 3.62795 5.93402 3.62795 5.93402 4.94581ZM38.7844 15.1842C38.4901 15.1199 38.186 15.1916 37.9511 15.3795C37.7187 15.5675 37.5827 15.8518 37.5827 16.151V23.4227C37.5827 23.8035 37.8028 24.1496 38.1465 24.3128C39.6646 25.0348 40.8069 26.3626 41.2891 27.9722C41.4152 28.3925 41.7984 28.6794 42.2361 28.6794H49.2926C49.5794 28.6794 49.8538 28.5557 50.0418 28.3381C50.2297 28.123 50.3137 27.8337 50.2717 27.5494C49.9601 25.3537 49.1541 23.257 47.9128 21.4174C47.7694 21.1924 47.5419 21.0341 47.2798 20.9773C47.0178 20.9229 46.7458 20.9748 46.5232 21.1232C46.3007 21.274 46.1499 21.5064 46.1029 21.7685C46.0535 22.0306 46.1153 22.3026 46.271 22.5201C47.1266 23.7935 47.7472 25.2103 48.1007 26.7038H42.938C42.2729 25.0719 41.086 23.707 39.5605 22.8268V17.4439C40.2429 17.669 40.9031 17.9533 41.5386 18.2895V21.7586C41.5386 22.305 41.9812 22.7476 42.5276 22.7476C43.074 22.7476 43.5166 22.305 43.5166 21.7586V19.5729C43.5474 19.5959 43.5781 19.618 43.6085 19.6399C43.676 19.6884 43.7421 19.7359 43.8034 19.7904C44.2238 20.1391 44.8493 20.0822 45.198 19.6619C45.5466 19.2415 45.4897 18.6185 45.0694 18.2698C44.5774 17.8618 44.0581 17.4885 43.5166 17.1473V8.90144C43.5166 8.63935 43.4128 8.38715 43.2273 8.20168C43.0419 8.01622 42.7897 7.91239 42.5276 7.91239H38.5714V6.92336C38.5714 6.66127 38.4676 6.40906 38.2822 6.2236C38.0967 6.03813 37.8445 5.93431 37.5824 5.93431H29.6701C29.1237 5.93431 28.6811 6.3769 28.6811 6.92334V10.8795C28.6811 11.1416 28.7849 11.3938 28.9704 11.5792C29.1558 11.7647 29.408 11.8685 29.6701 11.8685H37.5824C37.8445 11.8685 38.0967 11.7647 38.2822 11.5792C38.4676 11.3938 38.5715 11.1416 38.5715 10.8795V9.89044H41.5386V16.1114C40.6534 15.7109 39.7311 15.4018 38.7841 15.1842L38.7844 15.1842ZM36.5937 9.8904H30.6595V7.91233H36.5937V9.8904ZM42.5283 55.3862H14.8354V28.682C14.8354 28.1355 14.3928 27.6929 13.8463 27.6929C13.2999 27.6929 12.8573 28.1355 12.8573 28.682V56.3749C12.8573 56.637 12.9611 56.8892 13.1466 57.0747C13.332 57.2601 13.5842 57.3639 13.8463 57.3639H42.528C43.0744 57.3639 43.517 56.9214 43.517 56.3749C43.517 55.8285 43.0744 55.3859 42.528 55.3859L42.5283 55.3862ZM9.88997 4.94581C9.88997 6.26368 7.9119 6.26368 7.9119 4.94581C7.9119 3.62795 9.88997 3.62795 9.88997 4.94581ZM13.8468 4.94581C13.8468 6.26368 11.8688 6.26368 11.8688 4.94581C11.8688 3.62795 13.8468 3.62795 13.8468 4.94581ZM5.93402 12.8581C5.93402 14.1759 3.95595 14.1759 3.95595 12.8581C3.95595 11.5402 5.93402 11.5402 5.93402 12.8581ZM20.7699 13.8468C21.3163 13.8468 21.7589 13.4042 21.7589 12.8577C21.7589 12.3113 21.3163 11.8687 20.7699 11.8687H16.8137C16.2673 11.8687 15.8247 12.3113 15.8247 12.8577C15.8247 13.4042 16.2673 13.8468 16.8137 13.8468H20.7699ZM9.88997 12.8581C9.88997 14.1759 7.9119 14.1759 7.9119 12.8581C7.9119 11.5402 9.88997 11.5402 9.88997 12.8581ZM13.8468 12.8581C13.8468 14.1759 11.8688 14.1759 11.8688 12.8581C11.8688 11.5402 13.8468 11.5402 13.8468 12.8581Z" fill="#8B8B8B"/>
<path d="M64.856 44.9908C64.8853 44.9908 64.9428 44.9615 64.9709 44.9615V38.357C64.9709 35.5887 55.4527 35.5594 55.0494 35.5594C54.6462 35.5594 45.1279 35.5887 45.1279 38.357V44.9336C45.1854 44.9336 45.2147 44.9629 45.2429 44.991C45.6755 45.1352 55.3086 48.3654 64.8563 44.991L64.856 44.9908ZM46.4258 38.2701C46.4832 38.2126 46.57 38.1551 46.6849 38.0966C46.7716 38.0391 46.8584 38.0098 46.9733 37.9523C47.0601 37.8949 47.175 37.8656 47.3192 37.8081C48.1271 37.5197 50.5214 36.7986 55.0495 36.7986C59.4054 36.7986 61.7703 37.4622 62.6061 37.7214C63.4714 38.0098 63.7306 38.2689 63.7306 38.3275C63.7306 38.3275 63.7013 38.3568 63.6438 38.4143C63.6145 38.4436 63.5571 38.4718 63.5289 38.501L63.4996 38.5303C63.4421 38.5596 63.3847 38.5878 63.2979 38.6453L63.2405 38.6746C63.183 38.7038 63.0962 38.732 63.0095 38.7613L62.9227 38.7906C62.836 38.8199 62.7492 38.8481 62.6343 38.9055L62.5476 38.9348C62.4326 38.9641 62.3459 38.9923 62.2298 39.0497L62.0856 39.079C61.9707 39.1083 61.8546 39.1365 61.7104 39.1658L61.5369 39.1951C61.3927 39.2244 61.2485 39.2525 61.1042 39.2818C61.0175 39.3111 60.9026 39.3111 60.7865 39.3393L60.4981 39.3968C60.4113 39.4261 60.2964 39.4261 60.2096 39.4542H60.1522C60.0373 39.4835 59.9505 39.4835 59.8344 39.5117C59.7195 39.541 59.6035 39.541 59.4592 39.5691C59.3443 39.5984 59.2001 39.5984 59.0841 39.6266C58.9691 39.6266 58.8249 39.6559 58.7089 39.6559C58.5646 39.6852 58.4204 39.6852 58.2762 39.6852C58.1613 39.6852 58.0171 39.7145 57.901 39.7145C57.7275 39.7145 57.5551 39.7438 57.3816 39.7438L57.0064 39.7731C56.8047 39.7731 56.6031 39.8024 56.4002 39.8024H56.0825H55.073H54.0928H53.775C53.5734 39.8024 53.3717 39.8024 53.1689 39.7731L52.7937 39.7438C52.6202 39.7438 52.4478 39.7145 52.2743 39.7145C52.1593 39.7145 52.0151 39.6852 51.8991 39.6852C51.7549 39.6852 51.6106 39.6559 51.4664 39.6559C51.3515 39.6559 51.2073 39.6266 51.0912 39.6266C50.947 39.5973 50.8321 39.5973 50.716 39.5691C50.6011 39.5399 50.4569 39.5399 50.3408 39.5117C50.2259 39.4824 50.1392 39.4824 50.0231 39.4542L49.8575 39.5106C49.7707 39.5106 49.684 39.4813 49.5983 39.4813L49.3099 39.4238C49.195 39.3945 49.0789 39.3945 48.9922 39.3663C48.848 39.337 48.7037 39.3089 48.5595 39.2796L48.386 39.2503C48.2418 39.221 48.1269 39.1928 48.0108 39.1635L47.8666 39.1061C47.7517 39.0768 47.6356 39.0486 47.5489 38.9912L47.4339 38.9619C47.3472 38.9326 47.2604 38.9044 47.1748 38.8751L47.0881 38.8458C47.0013 38.8165 46.9438 38.7884 46.8571 38.7309L46.8278 38.7016C46.7703 38.6723 46.6836 38.6441 46.6261 38.5867L46.5968 38.5574C46.5394 38.5281 46.5101 38.4999 46.4526 38.4425C46.4233 38.4132 46.3951 38.385 46.3951 38.385C46.3388 38.3568 46.367 38.3287 46.4256 38.2701L46.4258 38.2701Z" fill="#666FBF"/>
<path d="M64.914 52.259C64.9432 52.259 64.9714 52.259 65.0007 52.2297V46.2606C61.7132 47.3569 58.3962 47.7602 55.425 47.7602C50.5217 47.7602 46.541 46.7214 45.1562 46.2606V52.3177C46.9443 52.9228 56.1167 55.663 64.9139 52.2591L64.914 52.259Z" fill="#666FBF"/>
<path d="M45.1282 53.5864V58.7208C45.1282 61.4902 54.6465 61.5184 55.0497 61.5184C55.453 61.5184 64.9712 61.4891 64.9712 58.7208V53.5573C61.6543 54.7685 58.3667 55.2011 55.3956 55.2011C50.6938 55.2022 46.8294 54.1634 45.1279 53.5866L45.1282 53.5864Z" fill="#666FBF"/>
</svg>
