<svg width="61" height="54" viewBox="0 0 61 54" fill="none" xmlns="http://www.w3.org/2000/svg">
<path d="M42.5032 12.1491C43.8829 12.1491 45 11.0219 45 9.63541V2.51372C45 1.13534 43.8803 0 42.5032 0H2.49678C1.11709 0 0 1.13534 0 2.51372V9.63268C0 11.0217 1.11967 12.1464 2.49678 12.1464H5.01476V15.4241L2.49678 15.4268C1.11709 15.4268 0 16.5541 0 17.9405V25.0595C0 26.4485 1.11967 27.5732 2.49678 27.5732H5.01476V30.8509L2.49678 30.8536C1.11709 30.8536 0 31.9809 0 33.3673V40.4863C0 41.8753 1.11967 43 2.49678 43H25.9601C24.2514 39.1586 23.9516 34.8443 25.05 30.8506H7.00985V27.5729H26.3073C27.1272 25.9246 28.2151 24.386 29.5842 23.0076C32.9512 19.6177 37.4064 17.7584 42.1292 17.7584C43.0977 17.7584 44.0581 17.8386 44.9948 17.9908V17.9401C44.9948 16.551 43.8752 15.4263 42.4981 15.4263H39.9721V12.1486L42.5032 12.1491ZM14.9433 4.06321C16.0524 4.06321 16.9413 4.96877 16.9413 6.0747C16.9413 7.19131 16.0524 8.0862 14.9433 8.0862C13.8449 8.0862 12.9454 7.19131 12.9454 6.0747C12.9454 4.96877 13.8449 4.06321 14.9433 4.06321ZM8.60195 4.06321C9.71102 4.06321 10.5999 4.96877 10.5999 6.0747C10.5999 7.19131 9.71102 8.0862 8.60195 8.0862C7.50346 8.0862 6.604 7.19131 6.604 6.0747C6.604 4.96877 7.50346 4.06321 8.60195 4.06321ZM14.9433 34.9168C16.0524 34.9168 16.9413 35.8224 16.9413 36.9283C16.9413 38.0342 16.0524 38.9398 14.9433 38.9398C13.8449 38.9398 12.9454 38.0342 12.9454 36.9283C12.9454 35.8224 13.8449 34.9168 14.9433 34.9168ZM8.60195 34.9168C9.71102 34.9168 10.5999 35.8224 10.5999 36.9283C10.5999 38.0342 9.71102 38.9398 8.60195 38.9398C7.50346 38.9398 6.604 38.0342 6.604 36.9283C6.604 35.8224 7.50346 34.9168 8.60195 34.9168ZM8.60195 23.5128C7.50346 23.5128 6.604 22.6179 6.604 21.5013C6.604 20.3954 7.50346 19.4898 8.60195 19.4898C9.71102 19.4898 10.5999 20.3954 10.5999 21.5013C10.5999 22.6179 9.71102 23.5128 8.60195 23.5128ZM14.9433 23.5128C13.8449 23.5128 12.9454 22.6179 12.9454 21.5013C12.9454 20.3954 13.8449 19.4898 14.9433 19.4898C16.0524 19.4898 16.9413 20.3954 16.9413 21.5013C16.9413 22.6179 16.0524 23.5128 14.9433 23.5128ZM37.9794 15.4269H7.01243V12.1491H37.9794V15.4269Z" fill="#8B8B8B"/>
<path fill-rule="evenodd" clip-rule="evenodd" d="M34.5119 26.5125C39.3213 21.7189 46.9149 21.9407 51.4862 26.5125C56.0352 31.0623 56.3054 38.6003 51.4862 43.4886C46.6746 48.2318 39.1456 48.1087 34.5119 43.4886C29.745 38.6848 29.9145 31.1104 34.5119 26.5125ZM37.0929 40.9073C40.4059 44.2045 45.6668 44.1299 48.9052 40.9073C52.1617 37.6503 52.1617 32.3506 48.9052 29.0938C45.6242 25.8127 40.3353 25.8511 37.0929 29.0938C33.8364 32.3509 33.8364 37.6505 37.0929 40.9073ZM56.0281 53.1515C57.1871 54.2942 59.0154 54.2714 60.1351 53.1515L60.1351 53.1513C61.2796 52.0397 61.2941 50.1884 60.1434 49.0354L54.1153 43C53.6009 43.8099 52.9955 44.5786 52.2952 45.2873C51.5866 45.9878 50.8161 46.6015 50 47.1304L56.0281 53.1515Z" fill="#666FBF"/>
</svg>
