<svg width="49" height="49" viewBox="0 0 49 49" fill="none" xmlns="http://www.w3.org/2000/svg">
<g clip-path="url(#clip0)">
<path d="M35.2888 46.1015V38.448C33.6978 38.01 32.228 37.2114 30.9924 36.1136C29.7567 35.0158 28.788 33.6481 28.1607 32.1155C27.5335 30.5829 27.2644 28.9262 27.3742 27.2728C27.4839 25.6194 27.9695 24.0133 28.7938 22.5779C30.6412 18.0863 39.5826 14.1086 45.6044 20.0948C45.7796 20.2618 45.949 20.434 46.1124 20.6115L46.0193 20.5294C46.5928 21.1633 47.107 21.8487 47.5555 22.5772C48.5011 24.2189 48.9991 26.0821 48.9993 27.9788C48.995 30.355 48.2169 32.6645 46.7836 34.5549C45.3502 36.4452 43.3405 37.8125 41.0612 38.448V46.1015C41.0612 46.8704 40.7571 47.6078 40.2158 48.1515C39.6746 48.6953 38.9405 49.0007 38.175 49.0007C37.4095 49.0007 36.6754 48.6953 36.1341 48.1515C35.5929 47.6078 35.2888 46.8704 35.2888 46.1015ZM36.7312 46.1015C36.7312 46.4859 36.8832 46.8547 37.1539 47.1265C37.4245 47.3984 37.7915 47.5511 38.1743 47.5511C38.557 47.5511 38.9241 47.3984 39.1947 47.1265C39.4653 46.8547 39.6174 46.4859 39.6174 46.1015V38.7442C38.6607 38.889 37.6878 38.889 36.7312 38.7442V46.1015ZM28.7931 27.9788C28.7931 29.8421 29.3431 31.6635 30.3736 33.2128C31.4041 34.7621 32.8688 35.9697 34.5824 36.6829C36.2961 37.396 38.1818 37.5827 40.0011 37.2193C41.8204 36.856 43.4916 35.9589 44.8034 34.6415C46.1152 33.3241 47.0086 31.6456 47.3707 29.8181C47.7329 27.9907 47.5474 26.0964 46.8379 24.3749C46.1283 22.6533 44.9265 21.1817 43.3844 20.1462C41.8423 19.1107 40.0292 18.5578 38.1743 18.5574C35.6875 18.5602 33.3033 19.5536 31.5446 21.3198C29.786 23.086 28.7964 25.4807 28.7931 27.9788ZM9.02382 44.6305C8.55602 44.6312 8.09997 44.4834 7.72092 44.208C7.34187 43.9326 7.05926 43.5439 6.91352 43.0973C6.88151 42.9922 6.82666 42.8956 6.75293 42.8144C6.67921 42.7331 6.58844 42.6694 6.4872 42.6277C6.39128 42.5899 6.29749 42.552 6.20299 42.5121C6.10227 42.4698 5.99354 42.4503 5.8845 42.455C5.77546 42.4597 5.66878 42.4884 5.57203 42.5392C5.15517 42.751 4.68232 42.8252 4.22102 42.7509C3.75973 42.6767 3.33357 42.458 3.00344 42.1259L2.49328 41.6113C2.16215 41.28 1.94398 40.8519 1.87007 40.3884C1.79616 39.9249 1.87031 39.4497 2.08188 39.0311C2.13231 38.9342 2.16088 38.8273 2.16554 38.718C2.17021 38.6087 2.15086 38.4997 2.10888 38.3988C2.06767 38.3045 2.02788 38.2089 1.99164 38.1133C1.95044 38.0117 1.88733 37.9207 1.80684 37.8466C1.72636 37.7725 1.63052 37.7174 1.52624 37.685C1.08172 37.5393 0.694576 37.2559 0.420376 36.8754C0.146175 36.495 -0.000988935 36.037 5.00178e-06 35.5673V34.8457C-0.00092083 34.376 0.146258 33.918 0.420438 33.5374C0.694619 33.1568 1.08172 32.8733 1.52624 32.7273C1.63076 32.695 1.72686 32.6398 1.80769 32.5657C1.88851 32.4917 1.95205 32.4007 1.99377 32.2991C2.0293 32.2049 2.06909 32.1099 2.10888 32.0136C2.15093 31.9124 2.17032 31.8032 2.16565 31.6937C2.16099 31.5841 2.13238 31.477 2.08188 31.3798C1.87031 30.9612 1.79616 30.4861 1.87007 30.0225C1.94398 29.559 2.16215 29.1309 2.49328 28.7996L3.0006 28.2886C3.33084 27.9559 3.75738 27.7368 4.21915 27.6626C4.68093 27.5884 5.15424 27.6628 5.57132 27.8753C5.66793 27.9261 5.7745 27.9548 5.88343 27.9595C5.99236 27.9642 6.10099 27.9447 6.20156 27.9024C6.29322 27.8625 6.38702 27.8225 6.48081 27.7868C6.5831 27.7457 6.67501 27.6822 6.74985 27.601C6.8247 27.5197 6.8806 27.4228 6.91352 27.3172C7.03965 26.9298 7.2692 26.5847 7.57717 26.3194C7.88514 26.0541 8.2597 25.8788 8.66002 25.8126V16.3198C7.45099 16.1842 6.30418 15.7102 5.35032 14.9517C4.39646 14.1933 3.67392 13.1809 3.26504 12.0299C2.85617 10.879 2.77741 9.63579 3.03775 8.44206C3.29809 7.24834 3.88705 6.1521 4.73751 5.27829C5.58797 4.40448 6.6657 3.78826 7.84788 3.49986C9.03005 3.21145 10.2691 3.26248 11.4238 3.6471C12.5785 4.03173 13.6024 4.7345 14.3788 5.6753C15.1553 6.6161 15.6529 7.75708 15.8151 8.9682H29.8603V4.7721C29.8603 2.09627 33.5124 0 38.1736 0C42.8347 0 46.4868 2.09627 46.4868 4.7721C46.4868 4.78851 46.4868 4.80493 46.4868 4.82135C46.4859 4.83751 46.4859 4.85371 46.4868 4.86988C46.4866 4.87368 46.4866 4.8775 46.4868 4.8813C46.4876 4.88627 46.4876 4.89132 46.4868 4.89629V16.5781C46.4818 17.2167 46.2895 17.8396 45.934 18.3689C45.6235 18.1291 45.2946 17.9014 44.9585 17.6916C45.1767 17.3612 45.2956 16.9746 45.301 16.5781V15.5967L45.2931 15.6032C45.2874 15.6073 45.2821 15.6121 45.2775 15.6174C45.1222 15.763 44.959 15.8997 44.7887 16.0271C44.7716 16.0407 44.7503 16.055 44.729 16.0692L44.6664 16.1128C44.5378 16.2027 44.3879 16.3076 44.2266 16.4054C44.1804 16.434 44.1321 16.4618 44.0845 16.4882L44.0213 16.5239C43.8643 16.6117 43.7193 16.6881 43.5779 16.7559L43.5438 16.7723C43.487 16.8001 43.4294 16.828 43.3718 16.8551C42.8097 16.6083 42.2308 16.4017 41.6396 16.237C43.8969 15.591 45.2988 14.3984 45.2988 13.1243V11.4392C45.2836 11.454 45.2674 11.4678 45.2505 11.4806C45.2379 11.4894 45.2258 11.4989 45.2143 11.5091C45.0864 11.6262 44.9464 11.7418 44.7979 11.8532L44.7638 11.8838C44.7325 11.9088 44.6998 11.9352 44.665 11.9595C44.4621 12.1041 44.252 12.2382 44.0355 12.3613L43.9644 12.3977L43.8934 12.4349C43.7172 12.5305 43.5296 12.6233 43.32 12.7204C43.2411 12.756 43.1566 12.7917 43.0819 12.8224C42.9036 12.8938 42.7075 12.9709 42.4986 13.0415L42.4275 13.0658C42.375 13.0844 42.3224 13.1036 42.267 13.1208C41.9671 13.2171 41.6872 13.2956 41.4108 13.3606C41.3895 13.3656 41.3681 13.3699 41.3461 13.3741L41.2843 13.387C41.0299 13.4434 40.7635 13.4948 40.4913 13.539L40.291 13.5683L40.1943 13.5818C39.9677 13.6133 39.7296 13.6397 39.4838 13.6618L39.3843 13.6711C39.3182 13.6768 39.2536 13.6825 39.1875 13.6875C38.8038 13.7132 38.477 13.7253 38.1686 13.7253C37.8602 13.7253 37.5341 13.7132 37.1497 13.6875C37.0822 13.6832 37.0154 13.6768 36.9486 13.6711L36.8527 13.6625C36.6111 13.6411 36.3724 13.6147 36.1421 13.5826L36.059 13.5711L35.8458 13.5405C35.5915 13.4998 35.3314 13.4505 35.0529 13.3884L34.9918 13.3756C34.969 13.3713 34.9463 13.367 34.925 13.362C34.6458 13.2956 34.3658 13.2193 34.0723 13.1222C34.0141 13.1036 33.9565 13.0829 33.9018 13.063L33.8443 13.0423C33.6396 12.9709 33.4435 12.8995 33.2609 12.8231L33.0222 12.7211C32.809 12.6261 32.625 12.5334 32.4495 12.4356L32.3905 12.4056L32.3074 12.3621C32.0913 12.2393 31.8816 12.1054 31.6793 11.9609C31.6516 11.9431 31.626 11.9224 31.6011 11.9031L31.5478 11.8553C31.3965 11.739 31.2565 11.6233 31.1336 11.5113C31.1197 11.4977 31.1047 11.4853 31.0888 11.4742C31.0746 11.4635 31.0604 11.452 31.0483 11.4413V13.1251C31.0483 14.3584 32.3934 15.5332 34.5576 16.1942C33.9612 16.3517 33.3766 16.5516 32.8083 16.7923C32.6875 16.7345 32.5696 16.6738 32.4573 16.6138L32.404 16.586C32.3742 16.5703 32.3436 16.5553 32.3152 16.5389C32.0987 16.4166 31.8886 16.2832 31.6857 16.1392C31.6615 16.1214 31.6366 16.1021 31.6146 16.0821L31.5535 16.0343C31.4043 15.9222 31.2643 15.8066 31.1371 15.6902C31.1232 15.6767 31.1082 15.6643 31.0924 15.6531C31.0781 15.6424 31.0639 15.631 31.0519 15.6203V16.581C31.0553 16.9206 31.1443 17.2538 31.3105 17.5496C30.9694 17.7515 30.6355 17.9721 30.3157 18.2062C30.023 17.7149 29.8669 17.1536 29.8638 16.581V10.3928H15.8663C15.8578 10.4457 15.8478 10.5006 15.8364 10.5599C15.6708 12.029 15.0139 13.3983 13.9731 14.4437C12.9323 15.4892 11.5692 16.1491 10.1067 16.3155V25.814C10.5068 25.8798 10.8813 26.0547 11.1893 26.3196C11.4973 26.5846 11.7269 26.9294 11.8532 27.3164C11.8853 27.4215 11.9402 27.5181 12.0139 27.5993C12.0876 27.6805 12.1783 27.7443 12.2795 27.7861C12.3754 27.8239 12.4685 27.8617 12.5637 27.9017C12.6645 27.944 12.7734 27.9634 12.8825 27.9588C12.9917 27.9541 13.0985 27.9253 13.1954 27.8746C13.6121 27.6621 14.0851 27.5876 14.5465 27.6618C15.008 27.7361 15.4342 27.9552 15.764 28.2878L16.2727 28.7989C16.6036 29.1303 16.8217 29.5584 16.8956 30.0219C16.9695 30.4853 16.8955 30.9604 16.6841 31.3791C16.6336 31.4761 16.6049 31.5831 16.6001 31.6925C16.5954 31.8019 16.6146 31.911 16.6564 32.0122C16.6976 32.1057 16.7374 32.202 16.7743 32.2977C16.8151 32.3995 16.8781 32.4908 16.9586 32.5649C17.0392 32.639 17.1352 32.694 17.2397 32.7259C17.684 32.8716 18.0708 33.1548 18.3449 33.535C18.619 33.9152 18.7661 34.3728 18.7653 34.8422V35.5638C18.766 36.0337 18.6186 36.4918 18.3441 36.8723C18.0697 37.2529 17.6823 37.5364 17.2376 37.6822C17.133 37.7144 17.0369 37.7695 16.956 37.8436C16.8752 37.9176 16.8117 38.0088 16.7701 38.1104C16.7346 38.2046 16.6948 38.2995 16.655 38.3959C16.6129 38.4972 16.5935 38.6065 16.5982 38.7162C16.6028 38.8258 16.6315 38.9331 16.682 39.0304C16.8936 39.4491 16.9678 39.9243 16.894 40.3879C16.8203 40.8515 16.6023 41.2798 16.2713 41.6113L15.7625 42.1224C15.4326 42.4548 15.0065 42.6738 14.5451 42.748C14.0837 42.8223 13.6107 42.7479 13.194 42.5356C13.0974 42.485 12.991 42.4563 12.8822 42.4516C12.7734 42.4469 12.6649 42.4663 12.5644 42.5085C12.4713 42.5485 12.3768 42.5884 12.2802 42.6241C12.1781 42.6652 12.0863 42.7287 12.0117 42.81C11.9371 42.8912 11.8815 42.9882 11.8489 43.0938C11.7037 43.5401 11.4216 43.9287 11.0431 44.2041C10.6645 44.4795 10.2089 44.6275 9.74146 44.6269L9.02382 44.6305ZM6.77568 41.1831C6.85313 41.2152 6.93129 41.248 7.00873 41.2787C7.30956 41.3967 7.58043 41.5805 7.80167 41.8168C8.0229 42.0531 8.18893 42.336 8.2877 42.6448C8.33826 42.8009 8.43672 42.9369 8.56895 43.0333C8.70119 43.1297 8.86042 43.1816 9.02382 43.1816H9.74217C9.9058 43.1812 10.0652 43.1293 10.1979 43.0332C10.3306 42.937 10.4299 42.8014 10.4818 42.6455C10.5803 42.3363 10.7462 42.053 10.9675 41.8163C11.1887 41.5796 11.4598 41.3955 11.7608 41.2773C11.8368 41.2466 11.9164 41.2159 11.9917 41.1816C12.2866 41.0546 12.6057 40.9944 12.9264 41.0054C13.247 41.0164 13.5614 41.0983 13.8469 41.2452C13.9926 41.3193 14.1577 41.3454 14.319 41.3198C14.4802 41.2942 14.6293 41.2181 14.7451 41.1024L15.2538 40.5914C15.3692 40.4753 15.4452 40.3255 15.4707 40.1635C15.4962 40.0014 15.47 39.8354 15.3959 39.6892C15.2492 39.4022 15.1675 39.0862 15.1565 38.7638C15.1456 38.4414 15.2058 38.1205 15.3327 37.8242C15.3654 37.7485 15.3959 37.6722 15.4265 37.5944C15.5439 37.2922 15.7269 37.0201 15.9621 36.7978C16.1974 36.5756 16.479 36.4088 16.7864 36.3096C16.9416 36.2586 17.0768 36.1596 17.1726 36.0268C17.2684 35.894 17.32 35.7342 17.32 35.5702V34.8457C17.32 34.6818 17.2688 34.522 17.1737 34.3887C17.0787 34.2555 16.9445 34.1555 16.79 34.1027C16.482 34.0041 16.1998 33.8376 15.9641 33.6153C15.7284 33.393 15.5452 33.1206 15.4279 32.818C15.3973 32.738 15.3646 32.6617 15.332 32.586C15.2051 32.2899 15.1449 31.9693 15.1559 31.6471C15.1668 31.3249 15.2485 31.0092 15.3952 30.7224C15.4694 30.5763 15.4957 30.4102 15.4701 30.2481C15.4446 30.0861 15.3686 29.9363 15.2531 29.8203L14.7443 29.3092C14.6287 29.1933 14.4796 29.1171 14.3183 29.0915C14.157 29.0659 13.9918 29.0921 13.8462 29.1665C13.5605 29.3137 13.2459 29.3957 12.925 29.4067C12.604 29.4177 12.2846 29.3573 11.9896 29.23C11.9136 29.1972 11.8361 29.1643 11.7565 29.1336C11.4557 29.0157 11.1848 28.8318 10.9636 28.5955C10.7424 28.3592 10.5763 28.0764 10.4776 27.7675C10.4265 27.6114 10.3276 27.4755 10.195 27.3792C10.0624 27.283 9.90292 27.2313 9.73932 27.2315H9.02382C8.86045 27.2312 8.70119 27.2829 8.56892 27.3792C8.43666 27.4755 8.3382 27.6115 8.2877 27.7675C8.18894 28.0766 8.02293 28.3598 7.80171 28.5964C7.5805 28.8331 7.30962 29.0173 7.00873 29.1358C6.93342 29.1665 6.85526 29.1972 6.77781 29.2321C6.48309 29.3593 6.16406 29.4195 5.84349 29.4085C5.52292 29.3976 5.20872 29.3156 4.92331 29.1686C4.77774 29.0937 4.61227 29.0672 4.45075 29.0929C4.28922 29.1185 4.13996 29.195 4.02448 29.3114L3.51574 29.8217C3.40029 29.9377 3.32437 30.0875 3.29884 30.2496C3.27332 30.4116 3.2995 30.5777 3.37363 30.7239C3.52007 31.0109 3.60161 31.327 3.61242 31.6493C3.62322 31.9717 3.56304 32.2925 3.43616 32.5889C3.40418 32.6652 3.37363 32.7409 3.34308 32.8194C3.22455 33.1213 3.04094 33.3931 2.80543 33.6152C2.56992 33.8373 2.28837 34.0043 1.98098 34.1041C1.82562 34.1549 1.69027 34.2538 1.59439 34.3866C1.4985 34.5195 1.44703 34.6795 1.44737 34.8436V35.5652C1.44681 35.7294 1.49799 35.8896 1.59359 36.0228C1.68919 36.156 1.82429 36.2554 1.97956 36.3068C2.28748 36.4056 2.56956 36.5722 2.80521 36.7944C3.04086 37.0167 3.22413 37.289 3.34166 37.5915C3.37221 37.6714 3.40489 37.7478 3.43687 37.8235C3.56371 38.1194 3.62388 38.4399 3.61307 38.7619C3.60226 39.084 3.52074 39.3996 3.37434 39.6863C3.30021 39.8325 3.27403 39.9986 3.29955 40.1606C3.32508 40.3227 3.401 40.4725 3.51645 40.5885L4.02377 41.1017C4.1396 41.2174 4.28882 41.2935 4.45019 41.3192C4.61157 41.3448 4.77688 41.3187 4.9226 41.2444C5.2329 41.0865 5.57586 41.0041 5.92375 41.0039C6.21697 41.0041 6.50699 41.0651 6.77568 41.1831ZM4.3293 9.83469C4.3293 10.8384 4.62559 11.8195 5.1807 12.6541C5.73581 13.4886 6.52482 14.139 7.44793 14.5231C8.37105 14.9072 9.38682 15.0077 10.3668 14.8119C11.3468 14.6161 12.2469 14.1328 12.9535 13.4231C13.66 12.7133 14.1411 11.8091 14.3361 10.8247C14.531 9.84032 14.4309 8.81996 14.0486 7.89267C13.6662 6.96539 13.0187 6.17283 12.1879 5.61521C11.3571 5.05759 10.3804 4.75996 9.38122 4.75996C8.04183 4.76147 6.75773 5.29662 5.81064 6.24798C4.86354 7.19935 4.33081 8.48925 4.3293 9.83469ZM31.0455 8.9475C31.0455 10.8882 34.3097 12.5276 38.1729 12.5276C42.036 12.5276 45.2995 10.886 45.2995 8.9475V7.2545C44.6914 7.81026 43.9921 8.25604 43.2326 8.57207L43.1615 8.59991C42.9249 8.69983 42.6755 8.79548 42.4212 8.88113L42.3409 8.90825L42.2627 8.93466C41.6719 9.12238 41.0679 9.26552 40.4558 9.3629L40.3187 9.38217H40.3144L40.1965 9.39859C39.9591 9.43285 39.714 9.45997 39.4675 9.48139L39.3253 9.4928L39.1768 9.50494C38.7946 9.53063 38.4741 9.54277 38.1679 9.54277C37.8616 9.54277 37.5398 9.53063 37.1589 9.50494C37.0879 9.50066 37.0168 9.49423 36.9458 9.48781L36.8747 9.48139C36.6345 9.45997 36.3915 9.43285 36.1535 9.39859C36.059 9.38574 35.9709 9.3729 35.8835 9.35933C35.5339 9.30152 35.244 9.24514 34.9719 9.1809L34.9506 9.17519L34.9186 9.16662C34.6458 9.10096 34.3821 9.02387 34.1129 8.93965C34.0418 8.91753 33.9757 8.89469 33.9054 8.86828L33.872 8.85686C33.6737 8.78548 33.4734 8.71411 33.278 8.63203C33.219 8.60919 33.1408 8.5785 33.0648 8.54495C32.792 8.4229 32.5589 8.30799 32.3543 8.19236C32.3401 8.18451 32.3266 8.17595 32.3124 8.16738L32.2868 8.15168C32.0912 8.04287 31.9014 7.92375 31.7183 7.79481C31.6864 7.77197 31.6565 7.74913 31.6253 7.72343L31.5457 7.66348C31.4048 7.55854 31.2696 7.44608 31.1407 7.32659C31.1265 7.31446 31.1115 7.30304 31.0966 7.2909C31.0771 7.27625 31.0583 7.26053 31.0405 7.24379L31.0455 8.9475ZM31.0455 4.77067C31.0508 4.80152 31.0527 4.83289 31.0511 4.86417C31.1506 6.75417 34.412 8.3501 38.1721 8.3501C41.9323 8.3501 45.1958 6.75488 45.2967 4.86488L45.3017 4.77138C45.3017 2.83143 42.0382 1.19195 38.175 1.19195C34.3118 1.19195 31.0504 2.83071 31.0504 4.77067H31.0455ZM30.2369 27.9788C30.2369 26.4017 30.7025 24.86 31.5747 23.5486C32.447 22.2373 33.6868 21.2153 35.1374 20.6117C36.5879 20.0082 38.184 19.8504 39.7239 20.1581C41.2638 20.4658 42.6782 21.2254 43.7883 22.3406C44.8985 23.4559 45.6544 24.8767 45.9607 26.4236C46.2669 27.9704 46.1096 29.5737 45.5086 31.0308C44.9077 32.4878 43.8902 33.7331 42.5846 34.6092C41.2791 35.4853 39.7443 35.9529 38.1743 35.9527C36.0699 35.9499 34.0525 35.1089 32.5645 33.6141C31.0766 32.1192 30.2395 30.0927 30.2369 27.9788ZM31.68 27.9788C31.68 29.269 32.0609 30.5303 32.7745 31.6031C33.4881 32.6759 34.5023 33.5121 35.689 34.0058C36.8757 34.4996 38.1815 34.6288 39.4412 34.3771C40.701 34.1254 41.8582 33.504 42.7664 32.5917C43.6747 31.6793 44.2932 30.5169 44.5438 29.2515C44.7944 27.986 44.6658 26.6743 44.1742 25.4823C43.6827 24.2903 42.8503 23.2714 41.7823 22.5546C40.7143 21.8378 39.4587 21.4552 38.1743 21.4552C36.4525 21.4571 34.8017 22.145 33.5842 23.368C32.3667 24.591 31.6819 26.2492 31.68 27.9788ZM41.7795 28.7032V27.2529H43.2226V28.7025L41.7795 28.7032ZM38.8926 28.7032V27.2529H40.3357V28.7025L38.8926 28.7032ZM36.0064 28.7032V27.2529H37.4488V28.7025L36.0064 28.7032ZM33.1195 28.7032V27.2529H34.5626V28.7025L33.1195 28.7032ZM32.5426 5.29242C32.405 5.21557 32.3034 5.08708 32.2599 4.93509C32.2165 4.78311 32.2349 4.62003 32.3109 4.4816C32.5038 4.11536 32.8049 3.81814 33.1728 3.63082C33.2493 3.5958 33.3324 3.57778 33.4165 3.578C33.5511 3.57818 33.6817 3.62428 33.7868 3.70875C33.8919 3.79321 33.9654 3.91104 33.9951 4.04293C34.0248 4.17481 34.0091 4.31293 33.9504 4.43464C33.8918 4.55636 33.7937 4.65445 33.6723 4.71286C33.5349 4.79686 33.4232 4.91741 33.3497 5.06116C33.3122 5.12992 33.2614 5.19053 33.2005 5.23953C33.1395 5.28852 33.0695 5.32493 32.9945 5.34666C32.942 5.36151 32.8877 5.36919 32.8332 5.3695C32.7314 5.36907 32.6313 5.34254 32.5426 5.29242ZM40.9795 3.94915C40.1004 3.70278 39.1921 3.57792 38.2794 3.578H38.1139C37.3792 3.57814 36.6465 3.65492 35.9276 3.80711C35.881 3.81819 35.8333 3.8237 35.7854 3.82353C35.6739 3.82355 35.5646 3.79215 35.47 3.73288C35.3354 3.6465 35.2402 3.51033 35.2049 3.35389C35.1877 3.27602 35.1864 3.19546 35.2011 3.11707C35.2157 3.03869 35.2461 2.96409 35.2902 2.8978C35.3339 2.8316 35.3903 2.77479 35.456 2.73068C35.5218 2.68657 35.5956 2.65603 35.6732 2.64086C36.4775 2.47008 37.2974 2.3842 38.1196 2.38462H38.2759C39.3009 2.38454 40.3212 2.52501 41.3085 2.80216C41.4465 2.84167 41.5656 2.93006 41.6438 3.05098C41.722 3.17191 41.754 3.31719 41.7338 3.45995C41.7136 3.60271 41.6426 3.7333 41.534 3.82756C41.4254 3.92183 41.2864 3.97338 41.1429 3.9727C41.0877 3.97178 41.0327 3.96387 40.9795 3.94915Z" fill="white"/>
<path d="M8.10658 10.8815L7.16062 9.90682L6.125 10.9739L8.10663 13.0156L13.0156 7.95767L11.98 6.89062L8.10658 10.8815Z" fill="white"/>
<path d="M3.82812 35.2188C3.82812 38.1739 6.23205 40.5781 9.1875 40.5781C12.1429 40.5781 14.5469 38.1742 14.5469 35.2188C14.5469 32.2633 12.1429 29.8594 9.1875 29.8594C6.23205 29.8594 3.82812 32.2633 3.82812 35.2188ZM13.0152 35.2188C13.0152 37.3299 11.2984 39.0467 9.18726 39.0467C7.07614 39.0467 5.35931 37.3299 5.35931 35.2188C5.35931 33.1076 7.07614 31.3908 9.18726 31.3908C11.2984 31.3908 13.0152 33.1076 13.0152 35.2188Z" fill="white"/>
<path d="M6.89062 35.2188C6.89062 36.4858 7.92041 37.5156 9.1875 37.5156C10.4546 37.5156 11.4844 36.4858 11.4844 35.2188C11.4844 33.9517 10.4546 32.9219 9.1875 32.9219C7.92041 32.9219 6.89062 33.9517 6.89062 35.2188ZM9.95312 35.2188C9.95312 35.6418 9.6086 35.9844 9.1875 35.9844C8.7664 35.9844 8.42188 35.6418 8.42188 35.2188C8.42188 34.7957 8.7664 34.4531 9.1875 34.4531C9.6086 34.4531 9.95312 34.7957 9.95312 35.2188Z" fill="white"/>
</g>
<defs>
<clipPath id="clip0">
<rect width="49" height="49" fill="white"/>
</clipPath>
</defs>
</svg>
