<svg width="64" height="64" viewBox="0 0 64 64" fill="none" xmlns="http://www.w3.org/2000/svg">
<g clip-path="url(#clip0)">
<path d="M46.0915 60.2142V50.2178C44.0135 49.6457 42.0938 48.6026 40.4798 47.1688C38.8658 45.735 37.6006 43.9485 36.7814 41.9467C35.9621 39.945 35.6107 37.7812 35.754 35.6216C35.8973 33.4621 36.5316 31.3643 37.6082 29.4895C40.0211 23.6229 51.6997 18.4275 59.5649 26.2462C59.7938 26.4644 60.015 26.6894 60.2284 26.9212L60.1068 26.814C60.8559 27.6418 61.5275 28.5371 62.1133 29.4885C63.3484 31.6328 63.9989 34.0664 63.9991 36.5437C63.9935 39.6473 62.9771 42.6639 61.1051 45.1329C59.233 47.6019 56.608 49.3877 53.6309 50.2178V60.2142C53.6309 61.2185 53.2338 62.1817 52.5268 62.8918C51.8198 63.602 50.861 64.0009 49.8612 64.0009C48.8614 64.0009 47.9026 63.602 47.1956 62.8918C46.4886 62.1817 46.0915 61.2185 46.0915 60.2142V60.2142ZM47.9754 60.2142C47.9754 60.7163 48.174 61.1979 48.5275 61.553C48.881 61.9081 49.3604 62.1076 49.8603 62.1076C50.3602 62.1076 50.8396 61.9081 51.1931 61.553C51.5466 61.1979 51.7451 60.7163 51.7451 60.2142V50.6047C50.4956 50.7938 49.2249 50.7938 47.9754 50.6047V60.2142ZM37.6073 36.5437C37.6073 38.9774 38.3257 41.3565 39.6716 43.38C41.0176 45.4036 42.9306 46.9808 45.1689 47.9123C47.4072 48.8438 49.8701 49.0876 52.2464 48.613C54.6226 48.1384 56.8054 46.9667 58.5187 45.246C60.2321 43.5254 61.399 41.333 61.872 38.9461C62.345 36.5593 62.1028 34.0851 61.176 31.8365C60.2493 29.5879 58.6796 27.6659 56.6654 26.3134C54.6512 24.9609 52.283 24.2387 49.8603 24.2382C46.6122 24.2419 43.4982 25.5395 41.2011 27.8463C38.9041 30.1532 37.6117 33.281 37.6073 36.5437V36.5437ZM11.7862 58.2928C11.1752 58.2939 10.5796 58.1007 10.0845 57.7411C9.58938 57.3814 9.22025 56.8736 9.02991 56.2904C8.98809 56.1531 8.91645 56.0269 8.82016 55.9208C8.72386 55.8147 8.60531 55.7314 8.47308 55.677C8.34779 55.6276 8.22529 55.5782 8.10186 55.526C7.97032 55.4708 7.8283 55.4453 7.68588 55.4515C7.54346 55.4576 7.40412 55.4951 7.27775 55.5614C6.73329 55.8381 6.11569 55.9349 5.51317 55.838C4.91066 55.741 4.35406 55.4553 3.92286 55.0216L3.25652 54.3495C2.82403 53.9168 2.53907 53.3576 2.44254 52.7522C2.346 52.1467 2.44285 51.5262 2.71919 50.9794C2.78506 50.8528 2.82237 50.7131 2.82846 50.5704C2.83456 50.4276 2.80929 50.2853 2.75445 50.1535C2.70062 50.0304 2.64865 49.9055 2.60132 49.7806C2.54751 49.648 2.46508 49.529 2.35996 49.4323C2.25484 49.3356 2.12966 49.2635 1.99345 49.2212C1.41286 49.0309 0.907202 48.6607 0.549062 48.1638C0.190922 47.6669 -0.00129167 47.0688 6.53294e-06 46.4553V45.5128C-0.00120272 44.8992 0.191031 44.301 0.549144 43.804C0.907257 43.3069 1.41286 42.9365 1.99345 42.7459C2.12997 42.7036 2.2555 42.6315 2.36106 42.5348C2.46662 42.4381 2.54962 42.3192 2.60411 42.1866C2.65051 42.0635 2.70248 41.9395 2.75445 41.8137C2.80938 41.6815 2.8347 41.5389 2.82861 41.3958C2.82251 41.2527 2.78516 41.1128 2.71919 40.9858C2.44285 40.4391 2.346 39.8185 2.44254 39.2131C2.53907 38.6076 2.82403 38.0485 3.25652 37.6158L3.91915 36.9483C4.35048 36.5139 4.9076 36.2277 5.51073 36.1307C6.11386 36.0338 6.73207 36.131 7.27683 36.4086C7.40301 36.4749 7.5422 36.5124 7.68448 36.5185C7.82676 36.5247 7.96863 36.4992 8.1 36.444C8.21972 36.3918 8.34222 36.3396 8.46473 36.293C8.59834 36.2392 8.71838 36.1563 8.81613 36.0502C8.91389 35.9441 8.98691 35.8175 9.02991 35.6795C9.19464 35.1736 9.49447 34.7228 9.89671 34.3763C10.299 34.0298 10.7882 33.8008 11.311 33.7144V21.3156C9.7319 21.1386 8.23404 20.5194 6.98818 19.5288C5.74232 18.5381 4.79858 17.2158 4.26454 15.7125C3.7305 14.2093 3.62764 12.5855 3.96767 11.0264C4.30771 9.46722 5.07697 8.0354 6.18777 6.8941C7.29857 5.7528 8.70622 4.94793 10.2503 4.57124C11.7944 4.19455 13.4127 4.26119 14.9209 4.76357C16.4291 5.26594 17.7665 6.18383 18.7805 7.41263C19.7946 8.64143 20.4446 10.1317 20.6565 11.7136H39.0012V6.23294C39.0012 2.73798 43.7714 0 49.8594 0C55.9473 0 60.7175 2.73798 60.7175 6.23294C60.7175 6.25438 60.7175 6.27583 60.7175 6.29727C60.7163 6.31838 60.7163 6.33955 60.7175 6.36066C60.7171 6.36562 60.7171 6.37061 60.7175 6.37558C60.7185 6.38206 60.7185 6.38866 60.7175 6.39515V21.6531C60.7109 22.4871 60.4598 23.3007 59.9955 23.9921V23.9921C59.5899 23.6788 59.1602 23.3815 58.7213 23.1074C59.0062 22.6758 59.1615 22.1709 59.1686 21.6531V20.3713L59.1584 20.3797C59.1509 20.385 59.144 20.3913 59.138 20.3983C58.9351 20.5884 58.722 20.767 58.4995 20.9334C58.4772 20.9511 58.4494 20.9698 58.4215 20.9884L58.3398 21.0453C58.1719 21.1627 57.9761 21.2998 57.7654 21.4275C57.7051 21.4648 57.642 21.5011 57.5798 21.5356L57.4972 21.5822C57.2921 21.6969 57.1028 21.7967 56.9181 21.8852L56.8735 21.9067C56.7993 21.943 56.7241 21.9794 56.6489 22.0148C55.9147 21.6924 55.1586 21.4226 54.3864 21.2075C57.3348 20.3638 59.1658 18.806 59.1658 17.142V14.941C59.1459 14.9603 59.1248 14.9783 59.1027 14.995C59.0862 15.0066 59.0704 15.019 59.0554 15.0323C58.8883 15.1852 58.7055 15.3362 58.5115 15.4817L58.467 15.5218C58.4262 15.5544 58.3835 15.5889 58.338 15.6206C58.0729 15.8094 57.7985 15.9846 57.5157 16.1454L57.4229 16.193L57.3301 16.2414C57.1 16.3664 56.855 16.4876 56.5812 16.6143C56.4782 16.661 56.3677 16.7076 56.2703 16.7477C56.0374 16.8409 55.7812 16.9416 55.5084 17.0339L55.4156 17.0655C55.3469 17.0898 55.2782 17.115 55.2058 17.1373C54.8142 17.2632 54.4485 17.3657 54.0875 17.4506C54.0597 17.4571 54.0319 17.4627 54.0031 17.4683L53.9223 17.4851C53.5901 17.5587 53.2421 17.6258 52.8866 17.6836L52.6249 17.7218L52.4987 17.7396C52.2027 17.7806 51.8918 17.8151 51.5707 17.844L51.4407 17.8561C51.3544 17.8635 51.27 17.871 51.1837 17.8775C50.6825 17.9111 50.2556 17.9269 49.8529 17.9269C49.4501 17.9269 49.0241 17.9111 48.522 17.8775C48.4339 17.8719 48.3466 17.8635 48.2594 17.8561L48.1341 17.8449C47.8186 17.8169 47.5068 17.7824 47.2061 17.7405L47.0975 17.7256L46.8191 17.6855C46.4868 17.6323 46.1472 17.568 45.7834 17.4869L45.7036 17.4701C45.6739 17.4645 45.6442 17.459 45.6163 17.4524C45.2516 17.3657 44.8859 17.266 44.5027 17.1392C44.4266 17.115 44.3514 17.0879 44.2799 17.0618L44.2048 17.0348C43.9375 16.9416 43.6813 16.8483 43.4428 16.7486L43.131 16.6153C42.8526 16.4913 42.6122 16.3701 42.383 16.2424L42.306 16.2032L42.1974 16.1464C41.9151 15.9861 41.6413 15.8112 41.377 15.6224C41.3408 15.5991 41.3074 15.5721 41.2749 15.5469L41.2053 15.4845C41.0076 15.3325 40.8248 15.1815 40.6643 15.0351C40.6461 15.0174 40.6265 15.0012 40.6058 14.9867C40.5872 14.9727 40.5687 14.9578 40.5529 14.9438V17.1429C40.5529 18.7538 42.3097 20.2883 45.1365 21.1515C44.3575 21.3574 43.5939 21.6184 42.8517 21.9328C42.6939 21.8573 42.5398 21.778 42.3932 21.6997L42.3236 21.6633C42.2846 21.6428 42.2447 21.6233 42.2076 21.6018C41.9248 21.4421 41.6504 21.2678 41.3854 21.0798C41.3538 21.0565 41.3213 21.0313 41.2925 21.0052L41.2127 20.9427C41.0178 20.7964 40.835 20.6453 40.6689 20.4934C40.6507 20.4757 40.6312 20.4595 40.6104 20.4449C40.5919 20.4309 40.5733 20.416 40.5575 20.402V21.6568C40.5621 22.1004 40.6783 22.5356 40.8953 22.9219C40.4499 23.1857 40.0137 23.4738 39.5961 23.7795C39.2137 23.1378 39.0099 22.4047 39.0058 21.6568V13.5743H20.7233C20.7122 13.6433 20.6992 13.7151 20.6843 13.7925C20.468 15.7114 19.61 17.4998 18.2506 18.8653C16.8912 20.2308 15.1108 21.0927 13.2006 21.31V33.7162C13.7232 33.8022 14.2124 34.0306 14.6146 34.3766C15.0169 34.7227 15.3168 35.173 15.4817 35.6786C15.5236 35.8158 15.5953 35.942 15.6916 36.0481C15.7879 36.1541 15.9064 36.2375 16.0385 36.292C16.1638 36.3414 16.2854 36.3908 16.4097 36.443C16.5414 36.4982 16.6836 36.5237 16.8262 36.5176C16.9688 36.5114 17.1082 36.4739 17.2348 36.4076C17.779 36.13 18.3968 36.0328 18.9996 36.1297C19.6023 36.2267 20.1589 36.5129 20.5897 36.9474L21.2541 37.6149C21.6864 38.0477 21.9712 38.6069 22.0677 39.2122C22.1642 39.8176 22.0675 40.4381 21.7915 40.9849C21.7255 41.1117 21.6881 41.2514 21.6818 41.3943C21.6756 41.5372 21.7006 41.6797 21.7553 41.8118C21.8091 41.9339 21.8611 42.0598 21.9093 42.1847C21.9626 42.3177 22.0448 42.4369 22.15 42.5337C22.2552 42.6305 22.3807 42.7024 22.5172 42.744C23.0974 42.9343 23.6027 43.3042 23.9607 43.8008C24.3186 44.2974 24.5108 44.895 24.5097 45.5081V46.4506C24.5107 47.0644 24.3181 47.6627 23.9597 48.1598C23.6012 48.6568 23.0953 49.0271 22.5144 49.2175C22.3778 49.2596 22.2522 49.3316 22.1466 49.4283C22.041 49.5251 21.9581 49.6441 21.9038 49.7768C21.8574 49.8999 21.8054 50.0239 21.7534 50.1497C21.6985 50.282 21.6732 50.4248 21.6793 50.5681C21.6854 50.7113 21.7227 50.8514 21.7887 50.9785C22.0651 51.5253 22.162 52.146 22.0657 52.7515C21.9693 53.3571 21.6846 53.9165 21.2523 54.3495L20.5878 55.017C20.1569 55.4512 19.6003 55.7372 18.9976 55.8342C18.395 55.9311 17.7773 55.834 17.2329 55.5567C17.1069 55.4905 16.9678 55.4531 16.8257 55.4469C16.6836 55.4408 16.5419 55.4662 16.4107 55.5213C16.2891 55.5735 16.1657 55.6257 16.0395 55.6723C15.906 55.726 15.7862 55.809 15.6888 55.9151C15.5913 56.0212 15.5187 56.1478 15.4761 56.2857C15.2865 56.8686 14.918 57.3763 14.4236 57.736C13.9291 58.0957 13.334 58.289 12.7235 58.2882L11.7862 58.2928ZM8.84987 53.7901C8.95102 53.8321 9.05311 53.875 9.15427 53.915C9.54718 54.0691 9.90097 54.3092 10.1899 54.6179C10.4789 54.9265 10.6958 55.296 10.8248 55.6994C10.8908 55.9032 11.0194 56.0808 11.1921 56.2068C11.3648 56.3327 11.5728 56.4005 11.7862 56.4004H12.7245C12.9382 56.4 13.1464 56.3322 13.3197 56.2066C13.493 56.081 13.6228 55.9039 13.6906 55.7003C13.8192 55.2964 14.0359 54.9264 14.3249 54.6172C14.6139 54.3081 14.9678 54.0676 15.361 53.9132C15.4603 53.8731 15.5643 53.833 15.6627 53.7883C16.0478 53.6224 16.4646 53.5438 16.8834 53.5581C17.3023 53.5724 17.7128 53.6794 18.0858 53.8712C18.276 53.9681 18.4917 54.0022 18.7024 53.9687C18.913 53.9352 19.1077 53.8359 19.2588 53.6848L19.9233 53.0173C20.0741 52.8657 20.1733 52.6701 20.2066 52.4584C20.24 52.2467 20.2058 52.0299 20.1089 51.839C19.9173 51.4641 19.8106 51.0514 19.7963 50.6303C19.782 50.2092 19.8606 49.7901 20.0263 49.403C20.069 49.3042 20.1089 49.2045 20.1488 49.1028C20.3022 48.7082 20.5412 48.3528 20.8485 48.0625C21.1558 47.7722 21.5235 47.5544 21.9251 47.4248C22.1278 47.3582 22.3044 47.2289 22.4295 47.0555C22.5547 46.882 22.6221 46.6732 22.6221 46.459V45.5128C22.622 45.2987 22.5552 45.09 22.431 44.9159C22.3069 44.7419 22.1316 44.6112 21.9298 44.5423C21.5275 44.4135 21.1589 44.196 20.8511 43.9057C20.5433 43.6153 20.304 43.2595 20.1507 42.8643C20.1108 42.7599 20.0681 42.6601 20.0254 42.5613C19.8597 42.1746 19.7811 41.7558 19.7954 41.335C19.8097 40.9142 19.9164 40.5018 20.108 40.1272C20.205 39.9363 20.2393 39.7195 20.2059 39.5078C20.1726 39.2961 20.0733 39.1004 19.9224 38.9489L19.2579 38.2814C19.1069 38.1301 18.9122 38.0305 18.7015 37.9971C18.4908 37.9636 18.275 37.9978 18.0849 38.095C17.7117 38.2872 17.3008 38.3944 16.8816 38.4087C16.4624 38.4231 16.0452 38.3443 15.6599 38.1779C15.5606 38.1351 15.4594 38.0922 15.3555 38.0521C14.9626 37.898 14.6088 37.6579 14.3198 37.3493C14.0309 37.0406 13.814 36.6712 13.685 36.2678C13.6183 36.0639 13.4891 35.8864 13.3159 35.7606C13.1427 35.6349 12.9344 35.5674 12.7208 35.5677H11.7862C11.5728 35.5672 11.3648 35.6348 11.1921 35.7606C11.0193 35.8864 10.8907 36.0639 10.8248 36.2678C10.6958 36.6715 10.4789 37.0413 10.19 37.3504C9.90106 37.6595 9.54727 37.9002 9.15427 38.0549C9.05589 38.095 8.95381 38.1351 8.85265 38.1807C8.46771 38.3468 8.05102 38.4255 7.63232 38.4112C7.21362 38.3968 6.80323 38.2898 6.43045 38.0978C6.24032 38 6.0242 37.9654 5.81322 37.9989C5.60224 38.0324 5.4073 38.1323 5.25647 38.2842L4.59198 38.9508C4.4412 39.1024 4.34203 39.298 4.30869 39.5097C4.27535 39.7213 4.30955 39.9382 4.40638 40.1291C4.59764 40.5041 4.70414 40.9168 4.71826 41.3379C4.73237 41.759 4.65377 42.178 4.48804 42.5651C4.44628 42.6648 4.40638 42.7636 4.36647 42.8662C4.21166 43.2605 3.97184 43.6154 3.66424 43.9056C3.35664 44.1957 2.98889 44.4138 2.5874 44.5442C2.38448 44.6104 2.20769 44.7396 2.08246 44.9132C1.95723 45.0867 1.89 45.2957 1.89044 45.51V46.4525C1.88971 46.667 1.95656 46.8762 2.08142 47.0502C2.20628 47.2241 2.38275 47.354 2.58555 47.4211C2.98773 47.5501 3.35616 47.7677 3.66394 48.058C3.97173 48.3484 4.21111 48.704 4.36461 49.0991C4.40452 49.2035 4.44721 49.3033 4.48897 49.4021C4.65465 49.7886 4.73323 50.2072 4.71912 50.6278C4.705 51.0485 4.59852 51.4608 4.4073 51.8352C4.31047 52.0262 4.27628 52.243 4.30962 52.4547C4.34296 52.6663 4.44213 52.862 4.59291 53.0136L5.25554 53.6839C5.40683 53.835 5.60172 53.9344 5.8125 53.9679C6.02327 54.0014 6.23918 53.9672 6.42952 53.8703C6.83481 53.664 7.28276 53.5563 7.73714 53.5561C8.12012 53.5564 8.49893 53.6361 8.84987 53.7901V53.7901ZM5.6546 12.8453C5.6546 14.1562 6.04159 15.4377 6.76663 16.5277C7.49168 17.6177 8.52221 18.4673 9.72791 18.969C10.9336 19.4706 12.2603 19.6019 13.5403 19.3462C14.8203 19.0904 15.996 18.4591 16.9188 17.5322C17.8416 16.6052 18.47 15.4242 18.7246 14.1384C18.9792 12.8527 18.8486 11.5199 18.3492 10.3088C17.8497 9.09765 17.004 8.06247 15.9189 7.33415C14.8338 6.60583 13.5581 6.21709 12.253 6.21709C10.5036 6.21907 8.82642 6.91803 7.5894 8.16063C6.35238 9.40324 5.65656 11.088 5.6546 12.8453ZM40.5492 11.6865C40.5492 14.2213 44.8126 16.3626 49.8584 16.3626C54.9042 16.3626 59.1667 14.2185 59.1667 11.6865V9.47527C58.3725 10.2012 57.4591 10.7834 56.467 11.1962L56.3742 11.2325C56.0652 11.363 55.7395 11.488 55.4072 11.5998L55.3023 11.6353L55.2003 11.6698C54.4285 11.9149 53.6397 12.1019 52.8402 12.2291L52.6611 12.2543H52.6556L52.5015 12.2757C52.1915 12.3205 51.8714 12.3559 51.5493 12.3838L51.3637 12.3988L51.1698 12.4146C50.6705 12.4482 50.2519 12.464 49.8519 12.464C49.4519 12.464 49.0315 12.4482 48.5341 12.4146C48.4413 12.409 48.3485 12.4006 48.2557 12.3922L48.1629 12.3838C47.8492 12.3559 47.5318 12.3205 47.2209 12.2757C47.0975 12.2589 46.9824 12.2421 46.8683 12.2244C46.4117 12.1489 46.033 12.0753 45.6776 11.9914L45.6497 11.9839L45.608 11.9727C45.2516 11.887 44.9073 11.7863 44.5556 11.6763C44.4628 11.6474 44.3764 11.6175 44.2846 11.5831L44.241 11.5681C43.982 11.4749 43.7203 11.3817 43.4651 11.2745C43.3881 11.2447 43.286 11.2046 43.1867 11.1608C42.8303 11.0013 42.5259 10.8512 42.2586 10.7002C42.2401 10.69 42.2225 10.6788 42.2039 10.6676L42.1705 10.6471C41.915 10.505 41.6672 10.3494 41.428 10.181C41.3863 10.1511 41.3473 10.1213 41.3065 10.0877L41.2025 10.0094C41.0185 9.87238 40.8419 9.72549 40.6735 9.56942C40.655 9.55357 40.6355 9.53866 40.616 9.52281C40.5904 9.50368 40.566 9.48314 40.5427 9.46128L40.5492 11.6865ZM40.5492 6.23108C40.5562 6.27138 40.5587 6.31234 40.5566 6.3532C40.6865 8.82177 44.9463 10.9063 49.8575 10.9063C54.7687 10.9063 59.0312 8.8227 59.163 6.35413L59.1695 6.23201C59.1695 3.69819 54.907 1.55684 49.8612 1.55684C44.8154 1.55684 40.5557 3.69726 40.5557 6.23108H40.5492ZM39.4931 36.5437C39.4931 34.4838 40.1012 32.4701 41.2405 30.7574C42.3798 29.0446 43.9991 27.7097 45.8937 26.9215C47.7883 26.1332 49.873 25.927 51.8843 26.329C53.8955 26.7309 55.7429 27.7229 57.1929 29.1796C58.6429 30.6362 59.6303 32.4921 60.0302 34.5124C60.4302 36.5328 60.2247 38.6269 59.4399 40.53C58.655 42.4331 57.3259 44.0596 55.6208 45.2039C53.9156 46.3482 51.9109 46.9589 49.8603 46.9587C47.1117 46.955 44.4767 45.8565 42.5333 43.9041C40.5898 41.9517 39.4965 39.3047 39.4931 36.5437V36.5437ZM41.3779 36.5437C41.3779 38.229 41.8754 39.8763 42.8075 41.2775C43.7395 42.6788 45.0643 43.7709 46.6142 44.4158C48.1642 45.0607 49.8697 45.2294 51.5151 44.9007C53.1605 44.5719 54.6719 43.7604 55.8582 42.5687C57.0445 41.3771 57.8524 39.8589 58.1796 38.206C58.5069 36.5532 58.339 34.84 57.697 33.283C57.0549 31.7261 55.9677 30.3953 54.5728 29.4591C53.1779 28.5228 51.5379 28.0231 49.8603 28.0231C47.6114 28.0255 45.4553 28.924 43.8651 30.5214C42.2748 32.1188 41.3804 34.2847 41.3779 36.5437V36.5437ZM54.5692 37.4899V35.5956H56.4541V37.489L54.5692 37.4899ZM50.7985 37.4899V35.5956H52.6834V37.489L50.7985 37.4899ZM47.0288 37.4899V35.5956H48.9127V37.489L47.0288 37.4899ZM43.2582 37.4899V35.5956H45.143V37.489L43.2582 37.4899ZM42.5046 6.91254C42.3249 6.81218 42.1922 6.64435 42.1354 6.44584C42.0787 6.24733 42.1027 6.03433 42.202 5.85352C42.454 5.37517 42.8472 4.98696 43.3278 4.74229C43.4277 4.69655 43.5363 4.67302 43.6461 4.67331C43.8219 4.67354 43.9924 4.73375 44.1297 4.84408C44.267 4.9544 44.3629 5.1083 44.4018 5.28056C44.4406 5.45281 44.42 5.63321 44.3434 5.79218C44.2668 5.95116 44.1387 6.07928 43.9802 6.15557C43.8007 6.26529 43.6548 6.42274 43.5588 6.6105C43.5098 6.7003 43.4435 6.77947 43.3639 6.84346C43.2842 6.90746 43.1928 6.95501 43.0948 6.98339C43.0262 7.00278 42.9554 7.01282 42.8841 7.01323C42.7512 7.01266 42.6205 6.978 42.5046 6.91254V6.91254ZM53.5242 5.15807C52.3761 4.83629 51.1896 4.6732 49.9976 4.67331H49.7814C48.8218 4.67349 47.8648 4.77378 46.9258 4.97256C46.865 4.98702 46.8027 4.99422 46.7402 4.994C46.5945 4.99403 46.4518 4.95301 46.3281 4.8756C46.1524 4.76278 46.028 4.58492 45.982 4.38059C45.9595 4.27889 45.9578 4.17367 45.9769 4.07128C45.9961 3.9689 46.0357 3.87147 46.0933 3.78489C46.1504 3.69842 46.224 3.62422 46.3099 3.5666C46.3958 3.50898 46.4922 3.4691 46.5936 3.44928C47.6441 3.22622 48.715 3.11405 49.7888 3.11461H49.993C51.3318 3.1145 52.6645 3.29798 53.9539 3.65997C54.1342 3.71157 54.2898 3.82702 54.392 3.98496C54.4941 4.1429 54.5358 4.33265 54.5095 4.51912C54.4831 4.70558 54.3904 4.87615 54.2485 4.99927C54.1066 5.12238 53.9252 5.18973 53.7377 5.18884C53.6655 5.18763 53.5938 5.1773 53.5242 5.15807V5.15807Z" fill="#8B8B8B"/>
<path d="M10.5882 14.2126L9.35265 12.9395L8 14.3332L10.5883 17L17 10.3937L15.6474 9L10.5882 14.2126Z" fill="#666FBF"/>
<path d="M5 46C5 49.8598 8.13982 53 12 53C15.8602 53 19 49.8602 19 46C19 42.1398 15.8602 39 12 39C8.13982 39 5 42.1398 5 46V46ZM16.9995 46C16.9995 48.7574 14.7571 50.9998 11.9997 50.9998C9.2423 50.9998 6.99991 48.7574 6.99991 46C6.99991 43.2426 9.2423 41.0002 11.9997 41.0002C14.7571 41.0002 16.9995 43.2426 16.9995 46Z" fill="#666FBF"/>
<path d="M9 46C9 47.655 10.345 49 12 49C13.655 49 15 47.655 15 46C15 44.345 13.655 43 12 43C10.345 43 9 44.345 9 46ZM13 46C13 46.5525 12.55 47 12 47C11.45 47 11 46.5525 11 46C11 45.4475 11.45 45 12 45C12.55 45 13 45.4475 13 46Z" fill="#666FBF"/>
</g>
<defs>
<clipPath id="clip0">
<rect width="64" height="64" fill="white"/>
</clipPath>
</defs>
</svg>
