<svg width="38" height="49" viewBox="0 0 38 49" fill="none" xmlns="http://www.w3.org/2000/svg">
<path d="M8.18469 12.9165C8.18469 13.0225 8.20557 13.1275 8.24614 13.2255C8.28671 13.3234 8.34617 13.4124 8.42113 13.4874C8.4961 13.5623 8.58509 13.6218 8.68304 13.6624C8.78098 13.7029 8.88596 13.7238 8.99198 13.7238H12.2211C12.3271 13.7238 12.4321 13.7029 12.5301 13.6624C12.628 13.6218 12.717 13.5623 12.792 13.4874C12.8669 13.4124 12.9264 13.3234 12.967 13.2255C13.0075 13.1275 13.0284 13.0225 13.0284 12.9165V7.26554C13.0284 7.15952 13.0075 7.05454 12.967 6.9566C12.9264 6.85865 12.8669 6.76966 12.792 6.69469C12.717 6.61973 12.628 6.56027 12.5301 6.5197C12.4321 6.47913 12.3271 6.45825 12.2211 6.45825H8.99198C8.88596 6.45825 8.78098 6.47913 8.68304 6.5197C8.58509 6.56027 8.4961 6.61973 8.42113 6.69469C8.34617 6.76966 8.28671 6.85865 8.24614 6.9566C8.20557 7.05454 8.18469 7.15952 8.18469 7.26554V12.9165ZM9.79926 8.07282H11.4138V12.1092H9.79926V8.07282Z" fill="white"/>
<path d="M4.95557 0H6.57013V9.68741H4.95557V0Z" fill="white"/>
<path d="M1.72632 0H3.34089V3.22914H1.72632V0Z" fill="white"/>
<path d="M1.72632 4.84375H3.34089V12.9166H1.72632V4.84375Z" fill="white"/>
<path d="M34.0178 0H35.6324V3.22914H34.0178V0Z" fill="white"/>
<path d="M34.0178 4.84375H35.6324V12.9166H34.0178V4.84375Z" fill="white"/>
<path d="M8.18469 0H9.79926V4.8437H8.18469V0Z" fill="white"/>
<path d="M11.4138 0H13.0284V1.61457H11.4138V0Z" fill="white"/>
<path d="M11.4138 3.22925H13.0284V4.84382H11.4138V3.22925Z" fill="white"/>
<path d="M14.6429 5.65088H16.2575V9.6873H14.6429V5.65088Z" fill="white"/>
<path d="M17.8721 0H19.4866V5.65099H17.8721V0Z" fill="white"/>
<path d="M17.8721 7.26562H19.4866V9.68748H17.8721V7.26562Z" fill="white"/>
<path d="M14.6429 0H16.2575V4.03642H14.6429V0Z" fill="white"/>
<path d="M21.1012 9.68752C21.1012 9.79353 21.1221 9.89851 21.1626 9.99646C21.2032 10.0944 21.2627 10.1834 21.3376 10.2584C21.4126 10.3333 21.5016 10.3928 21.5995 10.4334C21.6975 10.4739 21.8025 10.4948 21.9085 10.4948H25.1376C25.2436 10.4948 25.3486 10.4739 25.4466 10.4334C25.5445 10.3928 25.6335 10.3333 25.7085 10.2584C25.7834 10.1834 25.8429 10.0944 25.8835 9.99646C25.924 9.89851 25.9449 9.79353 25.9449 9.68752V4.03653C25.9449 3.93052 25.924 3.82554 25.8835 3.72759C25.8429 3.62965 25.7834 3.54065 25.7085 3.46569C25.6335 3.39073 25.5445 3.33126 25.4466 3.29069C25.3486 3.25012 25.2436 3.22924 25.1376 3.22925H21.9085C21.8025 3.22924 21.6975 3.25012 21.5995 3.29069C21.5016 3.33126 21.4126 3.39073 21.3376 3.46569C21.2627 3.54065 21.2032 3.62965 21.1626 3.72759C21.1221 3.82554 21.1012 3.93052 21.1012 4.03653V9.68752ZM22.7158 4.84382H24.3303V8.88024H22.7158V4.84382Z" fill="white"/>
<path d="M21.1012 0H22.7158V1.61457H21.1012V0Z" fill="white"/>
<path d="M24.3303 0H25.9449V1.61457H24.3303V0Z" fill="white"/>
<path d="M27.5594 4.84375H29.174V12.1093H27.5594V4.84375Z" fill="white"/>
<path d="M30.7886 0H32.4031V8.07284H30.7886V0Z" fill="white"/>
<path d="M30.7886 9.6875H32.4031V12.1094H30.7886V9.6875Z" fill="white"/>
<path d="M27.5594 0H29.174V3.22914H27.5594V0Z" fill="white"/>
<path d="M1.14344 47.041C1.51655 47.422 1.9623 47.7242 2.4543 47.9299C2.9463 48.1356 3.47456 48.2404 4.00781 48.2383H25.303C25.8333 48.2398 26.3586 48.136 26.8485 47.9331C27.3385 47.7302 27.7833 47.4321 28.1572 47.0561L35.953 39.2602C36.329 38.8863 36.6271 38.4415 36.8301 37.9516C37.033 37.4617 37.1367 36.9364 37.1353 36.4061V17.5615C37.1353 17.4555 37.1144 17.3505 37.0738 17.2526C37.0333 17.1547 36.9738 17.0657 36.8988 16.9907C36.8239 16.9157 36.7349 16.8563 36.6369 16.8157C36.539 16.7751 36.434 16.7543 36.328 16.7543H35.5207V14.3324H33.9061V16.7543H32.2916V14.3324C32.2916 14.2264 32.2707 14.1214 32.2301 14.0235C32.1896 13.9255 32.1301 13.8365 32.0551 13.7616C31.9802 13.6866 31.8912 13.6271 31.7932 13.5866C31.6953 13.546 31.5903 13.5251 31.4843 13.5251H28.2552C28.1491 13.5251 28.0442 13.546 27.9462 13.5866C27.8483 13.6271 27.7593 13.6866 27.6843 13.7616C27.6093 13.8365 27.5499 13.9255 27.5093 14.0235C27.4687 14.1214 27.4479 14.2264 27.4479 14.3324V16.7543H25.8333V11.9106H24.2187V16.7543H22.6042V11.9106H20.9896V16.7543H19.375V11.9106C19.375 11.8045 19.3541 11.6996 19.3136 11.6016C19.273 11.5037 19.2135 11.4147 19.1386 11.3397C19.0636 11.2647 18.9746 11.2053 18.8767 11.1647C18.7787 11.1241 18.6738 11.1033 18.5677 11.1033H15.3386C15.2326 11.1033 15.1276 11.1241 15.0297 11.1647C14.9317 11.2053 14.8427 11.2647 14.7678 11.3397C14.6928 11.4147 14.6333 11.5037 14.5928 11.6016C14.5522 11.6996 14.5313 11.8045 14.5313 11.9106V16.7543H12.9168V15.1397H11.3022V16.7543H9.68762V15.1397H8.07305V16.7543H6.45848V11.1033H4.84392V16.7543H3.22935V14.3324H1.61478V16.7543H0.807496C0.593394 16.7543 0.388064 16.8393 0.236671 16.9907C0.0852785 17.1421 0.000222027 17.3474 0.00021159 17.5615L0.000654274 44.187C-0.00894746 44.7149 0.0872186 45.2394 0.283484 45.7295C0.47975 46.2197 0.772144 46.6656 1.14344 47.041ZM29.0624 15.1397H30.677V16.7543H29.0624V15.1397ZM16.1459 12.7178H17.7605V16.7543H16.1459V12.7178ZM35.5207 18.3688V36.4061C35.5216 36.7242 35.4593 37.0394 35.3376 37.3334C35.2158 37.6273 35.037 37.8942 34.8114 38.1186L27.4479 45.4821V40.9728C27.4486 40.3307 27.704 39.7151 28.158 39.2611C28.612 38.807 29.2276 38.5516 29.8697 38.5509H32.2916V36.9363H29.8697C28.7996 36.9376 27.7736 37.3632 27.0169 38.1199C26.2602 38.8766 25.8345 39.9026 25.8333 40.9728V46.5651C25.6592 46.604 25.4814 46.6236 25.303 46.6238H4.00781C3.6889 46.6252 3.37293 46.5627 3.07862 46.4398C2.7843 46.317 2.51762 46.1364 2.29435 45.9087C2.07305 45.6848 1.89892 45.4188 1.78225 45.1264C1.66558 44.834 1.60875 44.5212 1.61512 44.2064C1.61517 44.202 1.61522 44.1976 1.61522 44.1932L1.61478 18.3688H35.5207Z" fill="white"/>
<path d="M9.68762 22.4053H12.1095V24.0198H9.68762V22.4053Z" fill="white"/>
<path d="M13.724 22.4053H25.026V24.0198H13.724V22.4053Z" fill="white"/>
<path d="M26.6405 22.4053H31.4842V24.0198H26.6405V22.4053Z" fill="white"/>
<path d="M5.65112 27.249H10.4948V28.8636H5.65112V27.249Z" fill="white"/>
<path d="M12.1095 27.249H25.026V28.8636H12.1095V27.249Z" fill="white"/>
<path d="M5.65112 36.9363H14.5312V38.5508H5.65112V36.9363Z" fill="white"/>
<path d="M16.1459 36.9363H24.2187V38.5508H16.1459V36.9363Z" fill="white"/>
<path d="M5.65112 41.78H8.07297V43.3946H5.65112V41.78Z" fill="white"/>
<path d="M20.9896 41.78H24.2188V43.3946H20.9896V41.78Z" fill="white"/>
<path d="M9.68762 41.78H19.375V43.3946H9.68762V41.78Z" fill="white"/>
<path d="M26.6405 27.249H31.4842V28.8636H26.6405V27.249Z" fill="white"/>
<path d="M5.65112 32.0925H7.26569V33.7071H5.65112V32.0925Z" fill="white"/>
<path d="M8.88025 32.0925H20.1822V33.7071H8.88025V32.0925Z" fill="white"/>
<path d="M21.7969 32.0925H31.4843V33.7071H21.7969V32.0925Z" fill="white"/>
</svg>
