<svg width="61" height="80" viewBox="0 0 61 80" fill="none" xmlns="http://www.w3.org/2000/svg">
<path d="M13.4444 21.2173C13.4444 21.3914 13.4787 21.5639 13.5453 21.7247C13.612 21.8856 13.7097 22.0318 13.8328 22.155C13.9559 22.2781 14.1021 22.3758 14.263 22.4424C14.4239 22.5091 14.5963 22.5434 14.7705 22.5434H20.0748C20.249 22.5434 20.4214 22.5091 20.5823 22.4424C20.7432 22.3758 20.8894 22.2781 21.0125 22.155C21.1356 22.0318 21.2333 21.8856 21.3 21.7247C21.3666 21.5639 21.4009 21.3914 21.4009 21.2173V11.9347C21.4009 11.7606 21.3666 11.5881 21.3 11.4272C21.2333 11.2664 21.1356 11.1202 21.0125 10.997C20.8894 10.8739 20.7432 10.7762 20.5823 10.7096C20.4214 10.6429 20.249 10.6086 20.0748 10.6086H14.7705C14.5963 10.6086 14.4239 10.6429 14.263 10.7096C14.1021 10.7762 13.9559 10.8739 13.8328 10.997C13.7097 11.1202 13.612 11.2664 13.5453 11.4272C13.4787 11.5881 13.4444 11.7606 13.4444 11.9347V21.2173ZM16.0966 13.2608H18.7487V19.8912H16.0966V13.2608Z" fill="#666FBF"/>
<path d="M8.14011 0H10.7923V15.9129H8.14011V0Z" fill="#666FBF"/>
<path d="M2.83577 0H5.48793V5.30432H2.83577V0Z" fill="#666FBF"/>
<path d="M2.83578 7.95654H5.48794V21.2173H2.83578V7.95654Z" fill="#666FBF"/>
<path d="M55.8789 0H58.5311V5.30432H55.8789V0Z" fill="#666FBF"/>
<path d="M55.8789 7.95654H58.5311V21.2173H55.8789V7.95654Z" fill="#666FBF"/>
<path d="M13.4444 0H16.0966V7.95647H13.4444V0Z" fill="#666FBF"/>
<path d="M18.7487 0H21.4009V2.65216H18.7487V0Z" fill="#666FBF"/>
<path d="M18.7487 5.3042H21.4009V7.95636H18.7487V5.3042Z" fill="#666FBF"/>
<path d="M24.053 9.28247H26.7052V15.9129H24.053V9.28247Z" fill="#666FBF"/>
<path d="M29.3574 0H32.0095V9.28255H29.3574V0Z" fill="#666FBF"/>
<path d="M29.3574 11.9348H32.0095V15.9131H29.3574V11.9348Z" fill="#666FBF"/>
<path d="M24.053 0H26.7052V6.63039H24.053V0Z" fill="#666FBF"/>
<path d="M34.6617 15.9128C34.6617 16.087 34.696 16.2594 34.7626 16.4203C34.8292 16.5812 34.9269 16.7274 35.0501 16.8505C35.1732 16.9737 35.3194 17.0713 35.4803 17.138C35.6412 17.2046 35.8136 17.2389 35.9877 17.2389H41.2921C41.4662 17.2389 41.6386 17.2046 41.7995 17.138C41.9604 17.0713 42.1066 16.9737 42.2298 16.8505C42.3529 16.7274 42.4506 16.5812 42.5172 16.4203C42.5838 16.2594 42.6181 16.087 42.6181 15.9128V6.63028C42.6181 6.45613 42.5838 6.28369 42.5172 6.1228C42.4506 5.96191 42.3529 5.81573 42.2298 5.69259C42.1066 5.56945 41.9604 5.47177 41.7995 5.40513C41.6386 5.33849 41.4662 5.30419 41.2921 5.3042H35.9877C35.8136 5.30419 35.6412 5.33849 35.4803 5.40513C35.3194 5.47177 35.1732 5.56945 35.0501 5.69259C34.9269 5.81573 34.8292 5.96191 34.7626 6.1228C34.696 6.28369 34.6617 6.45613 34.6617 6.63028V15.9128ZM37.3138 7.95636H39.966V14.5868H37.3138V7.95636Z" fill="#666FBF"/>
<path d="M34.6617 0H37.3138V2.65216H34.6617V0Z" fill="#666FBF"/>
<path d="M39.966 0H42.6181V2.65216H39.966V0Z" fill="#666FBF"/>
<path d="M45.2703 7.95654H47.9225V19.8913H45.2703V7.95654Z" fill="#666FBF"/>
<path d="M50.5746 0H53.2268V13.2608H50.5746V0Z" fill="#666FBF"/>
<path d="M50.5746 15.9128H53.2268V19.8911H50.5746V15.9128Z" fill="#666FBF"/>
<path d="M45.2703 0H47.9225V5.30432H45.2703V0Z" fill="#666FBF"/>
<path d="M1.87826 77.2716C2.49116 77.8974 3.22336 78.3939 4.03154 78.7317C4.83972 79.0696 5.70746 79.2418 6.58339 79.2384H41.5638C42.4349 79.2408 43.2978 79.0704 44.1025 78.737C44.9073 78.4037 45.638 77.914 46.2522 77.2964L59.058 64.4906C59.6756 63.8764 60.1653 63.1457 60.4986 62.341C60.832 61.5362 61.0024 60.6733 61 59.8022V28.8474C61 28.6733 60.9657 28.5008 60.899 28.3399C60.8324 28.179 60.7347 28.0328 60.6116 27.9097C60.4884 27.7866 60.3423 27.6889 60.1814 27.6223C60.0205 27.5556 59.848 27.5213 59.6739 27.5213H58.3478V23.5431H55.6957V27.5213H53.0435V23.5431C53.0435 23.3689 53.0092 23.1965 52.9426 23.0356C52.8759 22.8747 52.7783 22.7285 52.6551 22.6054C52.532 22.4823 52.3858 22.3846 52.2249 22.3179C52.064 22.2513 51.8916 22.217 51.7174 22.217H46.4131C46.239 22.217 46.0665 22.2513 45.9056 22.3179C45.7447 22.3846 45.5986 22.4823 45.4754 22.6054C45.3523 22.7285 45.2546 22.8747 45.188 23.0356C45.1213 23.1965 45.087 23.3689 45.087 23.5431V27.5213H42.4349V19.5648H39.7827V27.5213H37.1306V19.5648H34.4784V27.5213H31.8262V19.5648C31.8262 19.3907 31.7919 19.2183 31.7253 19.0574C31.6587 18.8965 31.561 18.7503 31.4378 18.6272C31.3147 18.504 31.1685 18.4063 31.0076 18.3397C30.8467 18.2731 30.6743 18.2388 30.5002 18.2388H25.1958C25.0217 18.2388 24.8493 18.2731 24.6884 18.3397C24.5275 18.4063 24.3813 18.504 24.2582 18.6272C24.135 18.7503 24.0373 18.8965 23.9707 19.0574C23.9041 19.2183 23.8698 19.3907 23.8698 19.5648V27.5213H21.2176V24.8692H18.5655V27.5213H15.9133V24.8692H13.2611V27.5213H10.609V18.2388H7.95682V27.5213H5.30466V23.5431H2.65251V27.5213H1.32643C0.974734 27.5213 0.637451 27.6611 0.388766 27.9097C0.140082 28.1584 0.00036471 28.4957 0.000347567 28.8474L0.00107474 72.5835C-0.0146975 73.4506 0.143269 74.3122 0.465663 75.1173C0.788057 75.9225 1.26836 76.655 1.87826 77.2716V77.2716ZM47.7392 24.8692H50.3913V27.5213H47.7392V24.8692ZM26.5219 20.8909H29.1741V27.5213H26.5219V20.8909ZM58.3478 30.1735V59.8022C58.3492 60.3249 58.247 60.8426 58.047 61.3255C57.847 61.8083 57.5532 62.2467 57.1826 62.6153L45.087 74.7109V67.3037C45.0882 66.2489 45.5077 65.2377 46.2535 64.4919C46.9993 63.7461 48.0105 63.3266 49.0653 63.3254H53.0435V60.6733H49.0653C47.3074 60.6753 45.6221 61.3745 44.3791 62.6175C43.136 63.8605 42.4369 65.5458 42.4349 67.3037V76.4899C42.1489 76.5538 41.8568 76.586 41.5638 76.5862H6.58339C6.05953 76.5886 5.54052 76.4859 5.05707 76.2841C4.57362 76.0823 4.13555 75.7856 3.76879 75.4116C3.40529 75.0438 3.11925 74.6068 2.9276 74.1266C2.73596 73.6463 2.6426 73.1324 2.65306 72.6154C2.65314 72.6082 2.65323 72.6009 2.65323 72.5937L2.65251 30.1735H58.3478Z" fill="#8B8B8B"/>
<path d="M15.9133 36.804H19.8915V39.4561H15.9133V36.804Z" fill="#8B8B8B"/>
<path d="M22.5437 36.804H41.1088V39.4561H22.5437V36.804Z" fill="#8B8B8B"/>
<path d="M43.7609 36.804H51.7174V39.4561H43.7609V36.804Z" fill="#8B8B8B"/>
<path d="M9.28287 44.7603H17.2393V47.4124H9.28287V44.7603Z" fill="#8B8B8B"/>
<path d="M19.8915 44.7603H41.1088V47.4124H19.8915V44.7603Z" fill="#8B8B8B"/>
<path d="M9.28287 60.6733H23.8697V63.3255H9.28287V60.6733Z" fill="#8B8B8B"/>
<path d="M26.5219 60.6733H39.7827V63.3255H26.5219V60.6733Z" fill="#8B8B8B"/>
<path d="M9.28287 68.6299H13.2611V71.282H9.28287V68.6299Z" fill="#8B8B8B"/>
<path d="M34.4784 68.6299H39.7827V71.282H34.4784V68.6299Z" fill="#8B8B8B"/>
<path d="M15.9133 68.6299H31.8262V71.282H15.9133V68.6299Z" fill="#8B8B8B"/>
<path d="M43.7609 44.7603H51.7174V47.4124H43.7609V44.7603Z" fill="#8B8B8B"/>
<path d="M9.28287 52.7168H11.935V55.369H9.28287V52.7168Z" fill="#8B8B8B"/>
<path d="M14.5872 52.7168H33.1523V55.369H14.5872V52.7168Z" fill="#8B8B8B"/>
<path d="M35.8044 52.7168H51.7174V55.369H35.8044V52.7168Z" fill="#8B8B8B"/>
</svg>
