<svg width="68" height="68" viewBox="0 0 68 68" fill="none" xmlns="http://www.w3.org/2000/svg">
<path d="M28.6875 11.6875H30.8125V13.8125H28.6875V11.6875Z" fill="#8B8B8B"/>
<path d="M56.3125 37.1875H58.4375V39.3125H56.3125V37.1875Z" fill="#8B8B8B"/>
<path d="M37.1875 54.1875H39.3125V56.3125H37.1875V54.1875Z" fill="#8B8B8B"/>
<path d="M28.6875 57.375H30.8125V59.5H28.6875V57.375Z" fill="#8B8B8B"/>
<path d="M11.6875 32.9375H13.8125V35.0625H11.6875V32.9375Z" fill="#8B8B8B"/>
<path d="M37.1875 11.6875H39.3125V13.8125H37.1875V11.6875Z" fill="#8B8B8B"/>
<path d="M54.1875 28.6875H56.3125V30.8125H54.1875V28.6875Z" fill="#8B8B8B"/>
<path d="M48.875 18.0625H51V20.1875H48.875V18.0625Z" fill="#8B8B8B"/>
<path d="M17 18.0625H19.125V20.1875H17V18.0625Z" fill="#8B8B8B"/>
<path d="M48.875 47.8125H51V49.9375H48.875V47.8125Z" fill="#8B8B8B"/>
<path d="M17 47.8125H19.125V49.9375H17V47.8125Z" fill="#8B8B8B"/>
<path d="M62.6875 43.5625C62.2142 43.5643 61.7474 43.6733 61.3222 43.8812L58.8784 41.4375H48.875V39.3125H54.1875V37.1875H48.875V35.0625H54.4383L60.4807 32.0408C61.0103 32.548 61.6988 32.8567 62.4299 32.9146C63.1609 32.9725 63.8895 32.7761 64.4923 32.3586C65.0952 31.9411 65.5353 31.3281 65.7381 30.6234C65.941 29.9187 65.8941 29.1656 65.6055 28.4915C65.3169 27.8173 64.8043 27.2636 64.1544 26.924C63.5044 26.5844 62.7571 26.4798 62.0389 26.6278C61.3207 26.7759 60.6757 27.1675 60.213 27.7364C59.7504 28.3054 59.4985 29.0167 59.5 29.75C59.505 29.8793 59.5181 30.0081 59.5393 30.1357L53.9368 32.9375H48.875V30.8125H52.0625V28.6875H48.875V26.5625H53.5649L57.0711 23.0563C57.4967 23.2644 57.9638 23.3733 58.4375 23.375C59.0679 23.375 59.6842 23.1881 60.2084 22.8378C60.7326 22.4876 61.1411 21.9897 61.3824 21.4073C61.6236 20.8249 61.6868 20.184 61.5638 19.5657C61.4408 18.9473 61.1372 18.3794 60.6914 17.9336C60.2456 17.4878 59.6777 17.1842 59.0594 17.0612C58.441 16.9383 57.8001 17.0014 57.2177 17.2426C56.6353 17.4839 56.1374 17.8924 55.7872 18.4166C55.437 18.9408 55.25 19.5571 55.25 20.1875C55.2518 20.6608 55.3608 21.1276 55.5688 21.5528L52.6851 24.4375H48.875C48.8733 23.0291 48.3131 21.6788 47.3171 20.6829C46.3212 19.6869 44.971 19.1267 43.5625 19.125V16.3774L49.6347 10.3063C50.0599 10.5142 50.5267 10.6232 51 10.625C51.6304 10.625 52.2467 10.4381 52.7709 10.0878C53.2951 9.73756 53.7036 9.23974 53.9449 8.6573C54.1861 8.07487 54.2492 7.43397 54.1263 6.81565C54.0033 6.19734 53.6997 5.62938 53.2539 5.1836C52.8081 4.73782 52.2402 4.43424 51.6219 4.31125C51.0035 4.18826 50.3626 4.25138 49.7802 4.49264C49.1978 4.73389 48.6999 5.14244 48.3497 5.66662C47.9995 6.1908 47.8125 6.80707 47.8125 7.4375C47.8143 7.91083 47.9233 8.3776 48.1313 8.80281L41.4375 15.4966V19.125H39.3125V15.9375H37.1875V19.125H35.0625V11.492C35.7714 11.2414 36.3689 10.7482 36.7494 10.0996C37.1298 9.45105 37.2687 8.68887 37.1416 7.94779C37.0144 7.2067 36.6294 6.53442 36.0545 6.04976C35.4796 5.56511 34.7519 5.2993 34 5.2993C33.2481 5.2993 32.5204 5.56511 31.9455 6.04976C31.3706 6.53442 30.9856 7.2067 30.8584 7.94779C30.7313 8.68887 30.8702 9.45105 31.2506 10.0996C31.6311 10.7482 32.2286 11.2414 32.9375 11.492V19.125H30.8125V15.9375H28.6875V19.125H26.5625V11.2476L21.9938 6.67888C22.2019 6.25334 22.3108 5.78619 22.3125 5.3125C22.3125 4.68207 22.1256 4.0658 21.7753 3.54162C21.4251 3.01744 20.9272 2.60889 20.3448 2.36764C19.7624 2.12638 19.1215 2.06326 18.5032 2.18625C17.8848 2.30924 17.3169 2.61282 16.8711 3.0586C16.4253 3.50438 16.1217 4.07234 15.9987 4.69065C15.8758 5.30897 15.9389 5.94987 16.1801 6.5323C16.4214 7.11474 16.8299 7.61256 17.3541 7.96281C17.8783 8.31306 18.4946 8.5 19.125 8.5C19.5983 8.49817 20.0651 8.38919 20.4903 8.18125L24.4375 12.1274V19.125C23.0291 19.1267 21.6788 19.6869 20.6829 20.6829C19.6869 21.6788 19.1267 23.0291 19.125 24.4375H15.3149L12.4313 21.5528C12.6392 21.1276 12.7482 20.6608 12.75 20.1875C12.75 19.5571 12.5631 18.9408 12.2128 18.4166C11.8626 17.8924 11.3647 17.4839 10.7823 17.2426C10.1999 17.0014 9.55897 16.9383 8.94065 17.0612C8.32234 17.1842 7.75438 17.4878 7.3086 17.9336C6.86282 18.3794 6.55924 18.9473 6.43625 19.5657C6.31326 20.184 6.37638 20.8249 6.61764 21.4073C6.85889 21.9897 7.26744 22.4876 7.79162 22.8378C8.3158 23.1881 8.93207 23.375 9.5625 23.375C10.0358 23.3732 10.5026 23.2642 10.9278 23.0563L14.4341 26.5625H19.125V28.6875H12.3654L6.8 33.3243C6.3439 33.074 5.83273 32.9411 5.3125 32.9375C4.68207 32.9375 4.0658 33.1244 3.54162 33.4747C3.01744 33.8249 2.60889 34.3228 2.36764 34.9052C2.12638 35.4876 2.06326 36.1285 2.18625 36.7468C2.30924 37.3652 2.61282 37.9331 3.0586 38.3789C3.50438 38.8247 4.07234 39.1283 4.69065 39.2513C5.30897 39.3742 5.94987 39.3111 6.53231 39.0699C7.11475 38.8286 7.61256 38.4201 7.96281 37.8959C8.31306 37.3717 8.5 36.7554 8.5 36.125C8.50072 35.6986 8.41506 35.2764 8.24819 34.884L13.1346 30.8125H19.125V32.9375H15.9375V35.0625H19.125V37.1875H9.5625V39.3125H19.125V41.4375H13.2441L8.96219 47.8592C8.80949 47.8323 8.655 47.8167 8.5 47.8125C7.76082 47.8057 7.04185 48.0537 6.46401 48.5147C5.88617 48.9757 5.48471 49.6217 5.32715 50.3439C5.1696 51.0661 5.26555 51.8206 5.59888 52.4803C5.93221 53.1401 6.48257 53.665 7.15742 53.9667C7.83226 54.2684 8.59041 54.3285 9.30436 54.1369C10.0183 53.9453 10.6445 53.5137 11.0776 52.9147C11.5107 52.3156 11.7244 51.5857 11.6826 50.8477C11.6408 50.1097 11.3461 49.4086 10.8481 48.8622L14.3809 43.5625H19.125C19.1267 44.9709 19.6869 46.3212 20.6829 47.3171C21.6788 48.3131 23.0291 48.8733 24.4375 48.875V55.8726L20.4903 59.8187C20.0651 59.6108 19.5983 59.5018 19.125 59.5C18.4946 59.5 17.8783 59.6869 17.3541 60.0372C16.8299 60.3874 16.4214 60.8853 16.1801 61.4677C15.9389 62.0501 15.8758 62.691 15.9987 63.3093C16.1217 63.9277 16.4253 64.4956 16.8711 64.9414C17.3169 65.3872 17.8848 65.6908 18.5032 65.8138C19.1215 65.9367 19.7624 65.8736 20.3448 65.6324C20.9272 65.3911 21.4251 64.9826 21.7753 64.4584C22.1256 63.9342 22.3125 63.3179 22.3125 62.6875C22.3107 62.2142 22.2017 61.7474 21.9938 61.3222L26.5625 56.7534V48.875H28.6875V55.25H30.8125V48.875H32.9375V57.9636L39.3911 62.0011C39.2177 62.7455 39.3135 63.5273 39.6615 64.2078C40.0096 64.8883 40.5874 65.4235 41.2925 65.7186C41.9976 66.0136 42.7844 66.0494 43.5134 65.8197C44.2423 65.5899 44.8664 65.1093 45.2748 64.4632C45.6832 63.8172 45.8496 63.0473 45.7445 62.2903C45.6394 61.5332 45.2696 60.8378 44.7006 60.3274C44.1316 59.8171 43.4003 59.5247 42.6363 59.5022C41.8723 59.4797 41.125 59.7285 40.5269 60.2044L35.0625 56.7864V48.875H37.1875V52.0625H39.3125V48.875H41.4375V57.375H49.0705C49.3211 58.0839 49.8143 58.6814 50.4629 59.0619C51.1115 59.4423 51.8736 59.5812 52.6147 59.4541C53.3558 59.3269 54.0281 58.9419 54.5127 58.367C54.9974 57.7921 55.2632 57.0644 55.2632 56.3125C55.2632 55.5606 54.9974 54.8329 54.5127 54.258C54.0281 53.6831 53.3558 53.2981 52.6147 53.1709C51.8736 53.0438 51.1115 53.1827 50.4629 53.5631C49.8143 53.9436 49.3211 54.5411 49.0705 55.25H43.5625V48.875C44.971 48.8733 46.3212 48.3131 47.3171 47.3171C48.3131 46.3212 48.8733 44.9709 48.875 43.5625H57.9976L59.8188 45.3847C59.6108 45.8099 59.5018 46.2767 59.5 46.75C59.5 47.3804 59.687 47.9967 60.0372 48.5209C60.3874 49.0451 60.8853 49.4536 61.4677 49.6949C62.0501 49.9361 62.691 49.9992 63.3094 49.8763C63.9277 49.7533 64.4956 49.4497 64.9414 49.0039C65.3872 48.5581 65.6908 47.9902 65.8138 47.3718C65.9368 46.7535 65.8736 46.1126 65.6324 45.5302C65.3911 44.9478 64.9826 44.4499 64.4584 44.0997C63.9342 43.7494 63.3179 43.5625 62.6875 43.5625ZM62.6875 28.6875C62.8976 28.6875 63.1031 28.7498 63.2778 28.8666C63.4525 28.9833 63.5887 29.1493 63.6691 29.3434C63.7495 29.5375 63.7706 29.7512 63.7296 29.9573C63.6886 30.1634 63.5874 30.3527 63.4388 30.5013C63.2902 30.6499 63.1009 30.7511 62.8948 30.7921C62.6887 30.8331 62.4751 30.812 62.2809 30.7316C62.0868 30.6512 61.9208 30.515 61.8041 30.3403C61.6873 30.1656 61.625 29.9601 61.625 29.75C61.625 29.4682 61.7369 29.198 61.9362 28.9987C62.1355 28.7994 62.4057 28.6875 62.6875 28.6875ZM58.4375 19.125C58.6476 19.125 58.8531 19.1873 59.0278 19.3041C59.2025 19.4208 59.3387 19.5868 59.4191 19.7809C59.4995 19.975 59.5206 20.1887 59.4796 20.3948C59.4386 20.6009 59.3374 20.7902 59.1888 20.9388C59.0402 21.0874 58.8509 21.1886 58.6448 21.2296C58.4387 21.2706 58.2251 21.2495 58.0309 21.1691C57.8368 21.0887 57.6708 20.9525 57.5541 20.7778C57.4373 20.6031 57.375 20.3976 57.375 20.1875C57.375 19.9057 57.4869 19.6355 57.6862 19.4362C57.8855 19.2369 58.1557 19.125 58.4375 19.125ZM51 6.375C51.2101 6.375 51.4156 6.43732 51.5903 6.55407C51.765 6.67081 51.9012 6.83675 51.9816 7.0309C52.062 7.22505 52.0831 7.43868 52.0421 7.64478C52.0011 7.85089 51.8999 8.04021 51.7513 8.1888C51.6027 8.3374 51.4134 8.43859 51.2073 8.47959C51.0012 8.52058 50.7876 8.49954 50.5934 8.41912C50.3993 8.33871 50.2333 8.20252 50.1166 8.02779C49.9998 7.85307 49.9375 7.64764 49.9375 7.4375C49.9375 7.15571 50.0494 6.88546 50.2487 6.6862C50.448 6.48694 50.7182 6.375 51 6.375ZM34 7.4375C34.2101 7.4375 34.4156 7.49982 34.5903 7.61657C34.765 7.73331 34.9012 7.89925 34.9816 8.0934C35.062 8.28755 35.0831 8.50118 35.0421 8.70728C35.0011 8.91339 34.8999 9.10271 34.7513 9.2513C34.6027 9.3999 34.4134 9.50109 34.2073 9.54209C34.0012 9.58308 33.7876 9.56204 33.5934 9.48162C33.3993 9.40121 33.2333 9.26502 33.1166 9.0903C32.9998 8.91557 32.9375 8.71014 32.9375 8.5C32.9375 8.21821 33.0494 7.94796 33.2487 7.7487C33.448 7.54944 33.7182 7.4375 34 7.4375ZM18.0625 5.3125C18.0625 5.10236 18.1248 4.89694 18.2416 4.72221C18.3583 4.54748 18.5243 4.4113 18.7184 4.33088C18.9125 4.25046 19.1262 4.22942 19.3323 4.27042C19.5384 4.31141 19.7277 4.41261 19.8763 4.5612C20.0249 4.70979 20.1261 4.89911 20.1671 5.10522C20.2081 5.31132 20.187 5.52496 20.1066 5.7191C20.0262 5.91325 19.89 6.07919 19.7153 6.19594C19.5406 6.31269 19.3351 6.375 19.125 6.375C18.8432 6.375 18.573 6.26306 18.3737 6.0638C18.1744 5.86454 18.0625 5.59429 18.0625 5.3125ZM8.5 20.1875C8.5 19.9774 8.56232 19.7719 8.67907 19.5972C8.79581 19.4225 8.96175 19.2863 9.1559 19.2059C9.35005 19.1255 9.56368 19.1044 9.76979 19.1454C9.97589 19.1864 10.1652 19.2876 10.3138 19.4362C10.4624 19.5848 10.5636 19.7741 10.6046 19.9802C10.6456 20.1863 10.6245 20.4 10.5441 20.5941C10.4637 20.7882 10.3275 20.9542 10.1528 21.0709C9.97807 21.1877 9.77264 21.25 9.5625 21.25C9.28071 21.25 9.01046 21.1381 8.8112 20.9388C8.61194 20.7395 8.5 20.4693 8.5 20.1875ZM5.3125 37.1875C5.10236 37.1875 4.89694 37.1252 4.72221 37.0084C4.54748 36.8917 4.4113 36.7257 4.33088 36.5316C4.25046 36.3375 4.22942 36.1238 4.27042 35.9177C4.31141 35.7116 4.41261 35.5223 4.5612 35.3737C4.70979 35.2251 4.89911 35.1239 5.10522 35.0829C5.31132 35.0419 5.52496 35.063 5.7191 35.1434C5.91325 35.2238 6.07919 35.36 6.19594 35.5347C6.31269 35.7094 6.375 35.9149 6.375 36.125C6.375 36.4068 6.26306 36.677 6.0638 36.8763C5.86455 37.0756 5.59429 37.1875 5.3125 37.1875ZM8.5 52.0625C8.28986 52.0625 8.08444 52.0002 7.90971 51.8834C7.73498 51.7667 7.5988 51.6007 7.51838 51.4066C7.43796 51.2125 7.41692 50.9988 7.45792 50.7927C7.49891 50.5866 7.60011 50.3973 7.7487 50.2487C7.89729 50.1001 8.08661 49.9989 8.29272 49.9579C8.49882 49.9169 8.71246 49.938 8.9066 50.0184C9.10075 50.0988 9.26669 50.235 9.38344 50.4097C9.50019 50.5844 9.5625 50.7899 9.5625 51C9.5625 51.2818 9.45056 51.552 9.2513 51.7513C9.05205 51.9506 8.7818 52.0625 8.5 52.0625ZM19.125 63.75C18.9149 63.75 18.7094 63.6877 18.5347 63.5709C18.36 63.4542 18.2238 63.2882 18.1434 63.0941C18.063 62.9 18.0419 62.6863 18.0829 62.4802C18.1239 62.2741 18.2251 62.0848 18.3737 61.9362C18.5223 61.7876 18.7116 61.6864 18.9177 61.6454C19.1238 61.6044 19.3375 61.6255 19.5316 61.7059C19.7258 61.7863 19.8917 61.9225 20.0084 62.0972C20.1252 62.2719 20.1875 62.4774 20.1875 62.6875C20.1875 62.9693 20.0756 63.2395 19.8763 63.4388C19.677 63.6381 19.4068 63.75 19.125 63.75ZM42.5 61.625C42.7101 61.625 42.9156 61.6873 43.0903 61.8041C43.265 61.9208 43.4012 62.0868 43.4816 62.2809C43.562 62.475 43.5831 62.6887 43.5421 62.8948C43.5011 63.1009 43.3999 63.2902 43.2513 63.4388C43.1027 63.5874 42.9134 63.6886 42.7073 63.7296C42.5012 63.7706 42.2876 63.7495 42.0934 63.6691C41.8993 63.5887 41.7333 63.4525 41.6166 63.2778C41.4998 63.1031 41.4375 62.8976 41.4375 62.6875C41.4375 62.4057 41.5494 62.1355 41.7487 61.9362C41.948 61.7369 42.2182 61.625 42.5 61.625ZM52.0625 55.25C52.2726 55.25 52.4781 55.3123 52.6528 55.4291C52.8275 55.5458 52.9637 55.7118 53.0441 55.9059C53.1245 56.1 53.1456 56.3137 53.1046 56.5198C53.0636 56.7259 52.9624 56.9152 52.8138 57.0638C52.6652 57.2124 52.4759 57.3136 52.2698 57.3546C52.0637 57.3956 51.8501 57.3745 51.6559 57.2941C51.4618 57.2137 51.2958 57.0775 51.1791 56.9028C51.0623 56.7281 51 56.5226 51 56.3125C51 56.0307 51.1119 55.7605 51.3112 55.5612C51.5105 55.3619 51.7807 55.25 52.0625 55.25ZM46.75 43.5625C46.75 44.4079 46.4142 45.2186 45.8164 45.8164C45.2186 46.4142 44.4079 46.75 43.5625 46.75H24.4375C23.5921 46.75 22.7814 46.4142 22.1836 45.8164C21.5858 45.2186 21.25 44.4079 21.25 43.5625V24.4375C21.25 23.5921 21.5858 22.7814 22.1836 22.1836C22.7814 21.5858 23.5921 21.25 24.4375 21.25H43.5625C44.4079 21.25 45.2186 21.5858 45.8164 22.1836C46.4142 22.7814 46.75 23.5921 46.75 24.4375V43.5625ZM62.6875 47.8125C62.4774 47.8125 62.2719 47.7502 62.0972 47.6334C61.9225 47.5167 61.7863 47.3507 61.7059 47.1566C61.6255 46.9625 61.6044 46.7488 61.6454 46.5427C61.6864 46.3366 61.7876 46.1473 61.9362 45.9987C62.0848 45.8501 62.2741 45.7489 62.4802 45.7079C62.6863 45.6669 62.9 45.688 63.0941 45.7684C63.2883 45.8488 63.4542 45.985 63.5709 46.1597C63.6877 46.3344 63.75 46.5399 63.75 46.75C63.75 47.0318 63.6381 47.302 63.4388 47.5013C63.2396 47.7006 62.9693 47.8125 62.6875 47.8125Z" fill="#8B8B8B"/>
<path d="M33.8744 32.9375C33.1313 32.9615 32.4201 33.245 31.8643 33.7388C31.3085 34.2326 30.9432 34.9054 30.8318 35.6405C30.7204 36.3756 30.8701 37.1265 31.2547 37.7627C31.6393 38.399 32.2346 38.8804 32.9373 39.1234V41.4375H35.0623V39.116C35.7821 38.8638 36.3874 38.3614 36.7677 37.7002C37.148 37.0391 37.278 36.2632 37.134 35.5142C36.99 34.7652 36.5816 34.0929 35.9832 33.6199C35.3849 33.1469 34.6364 32.9047 33.8744 32.9375ZM35.0623 36.0836C35.0678 36.223 35.0458 36.3622 34.9976 36.4932C34.9493 36.6242 34.8757 36.7444 34.781 36.8469C34.6863 36.9494 34.5723 37.0322 34.4455 37.0907C34.3188 37.1491 34.1818 37.182 34.0423 37.1875C33.9026 37.193 33.7632 37.1708 33.6322 37.1223C33.5011 37.0738 33.3808 36.9999 33.2783 36.9049C33.1239 36.7623 33.0152 36.5771 32.966 36.3728C32.9169 36.1684 32.9294 35.954 33.0021 35.7568C33.0748 35.5596 33.2043 35.3883 33.3744 35.2647C33.5444 35.1412 33.7472 35.0708 33.9573 35.0625H33.9998C34.2744 35.0623 34.5384 35.1684 34.7364 35.3585C34.9345 35.5487 35.0513 35.8082 35.0623 36.0825V36.0836Z" fill="#666FBF"/>
<path d="M39.3125 29.9455V28.6875C39.3125 27.2785 38.7528 25.9273 37.7565 24.931C36.7602 23.9347 35.409 23.375 34 23.375C32.591 23.375 31.2398 23.9347 30.2435 24.931C29.2472 25.9273 28.6875 27.2785 28.6875 28.6875V29.9455C28.0682 30.1645 27.5316 30.5694 27.1512 31.105C26.7708 31.6406 26.5652 32.2806 26.5625 32.9375V41.4375C26.5625 42.2829 26.8983 43.0936 27.4961 43.6914C28.0939 44.2892 28.9046 44.625 29.75 44.625H38.25C39.0954 44.625 39.9061 44.2892 40.5039 43.6914C41.1017 43.0936 41.4375 42.2829 41.4375 41.4375V32.9375C41.4348 32.2806 41.2292 31.6406 40.8488 31.105C40.4684 30.5694 39.9318 30.1645 39.3125 29.9455ZM30.8125 28.6875C30.8125 27.8421 31.1483 27.0314 31.7461 26.4336C32.3439 25.8358 33.1546 25.5 34 25.5C34.8454 25.5 35.6561 25.8358 36.2539 26.4336C36.8517 27.0314 37.1875 27.8421 37.1875 28.6875V29.75H30.8125V28.6875ZM39.3125 41.4375C39.3125 41.7193 39.2006 41.9895 39.0013 42.1888C38.802 42.3881 38.5318 42.5 38.25 42.5H29.75C29.4682 42.5 29.198 42.3881 28.9987 42.1888C28.7994 41.9895 28.6875 41.7193 28.6875 41.4375V32.9375C28.6875 32.6557 28.7994 32.3855 28.9987 32.1862C29.198 31.9869 29.4682 31.875 29.75 31.875H38.25C38.5318 31.875 38.802 31.9869 39.0013 32.1862C39.2006 32.3855 39.3125 32.6557 39.3125 32.9375V41.4375Z" fill="#666FBF"/>
</svg>
