<svg width="37" height="41" viewBox="0 0 37 41" fill="none" xmlns="http://www.w3.org/2000/svg">
<rect y="0.64917" width="6.49123" height="6.49123" fill="white"/>
<rect y="16.8772" width="6.49123" height="6.49123" fill="white"/>
<rect y="32.4561" width="6.49123" height="6.49123" fill="white"/>
<path d="M3.89474 3.89473C3.89474 3.53623 4.18536 3.24561 4.54386 3.24561H30.5088C30.8673 3.24561 31.1579 3.53623 31.1579 3.89473C31.1579 4.25323 30.8673 4.54385 30.5088 4.54385H4.54386C4.18536 4.54385 3.89474 4.25323 3.89474 3.89473Z" fill="white"/>
<path d="M3.89474 20.1228C3.89474 19.7643 4.18536 19.4736 4.54386 19.4736H30.5088C30.8673 19.4736 31.1579 19.7643 31.1579 20.1228C31.1579 20.4813 30.8673 20.7719 30.5088 20.7719H4.54386C4.18536 20.7719 3.89474 20.4813 3.89474 20.1228Z" fill="white"/>
<path d="M3.89474 36.3508C3.89474 35.9923 4.18536 35.7017 4.54386 35.7017H30.5088C30.8673 35.7017 31.1579 35.9923 31.1579 36.3508C31.1579 36.7093 30.8673 36.9999 30.5088 36.9999H4.54386C4.18536 36.9999 3.89474 36.7093 3.89474 36.3508Z" fill="white"/>
<path d="M3.21011 36.6946C24.9112 34.3272 9.52678 5.33307 30.8333 4.54395" stroke="white" stroke-width="2.5" stroke-linejoin="round"/>
<rect x="30.4605" y="1.25" width="5.28947" height="5.28947" rx="2.64474" stroke="white" stroke-width="2.5"/>
<rect x="30.2105" y="17.228" width="5.78947" height="5.78947" rx="2.89474" stroke="white" stroke-width="2"/>
<rect x="30.2105" y="33.4561" width="5.78947" height="5.78947" rx="2.89474" stroke="white" stroke-width="2"/>
</svg>
