<svg width="46" height="47" viewBox="0 0 46 47" fill="none" xmlns="http://www.w3.org/2000/svg">
<path d="M33.6866 7.93075C33.6451 8.02251 33.6222 8.12154 33.619 8.22218C33.6159 8.32282 33.6326 8.4231 33.6682 8.51729C33.7038 8.61147 33.7576 8.69772 33.8265 8.77112C33.8954 8.84451 33.9781 8.9036 34.0699 8.94503C35.395 9.54786 36.457 10.6099 37.0599 11.935C37.0995 12.0297 37.1577 12.1154 37.2311 12.1872C37.3044 12.2589 37.3915 12.3152 37.487 12.3527C37.5825 12.3902 37.6846 12.4082 37.7872 12.4055C37.8898 12.4028 37.9908 12.3795 38.0843 12.3371C38.1777 12.2946 38.2617 12.2338 38.3312 12.1583C38.4007 12.0828 38.4543 11.9941 38.4889 11.8975C38.5235 11.8008 38.5383 11.6983 38.5325 11.5958C38.5267 11.4933 38.5004 11.3931 38.4552 11.3009C37.7003 9.63595 36.3672 8.30123 34.7032 7.54435C34.6111 7.50266 34.5117 7.47958 34.4107 7.47644C34.3096 7.47331 34.209 7.49018 34.1145 7.52609C34.02 7.56201 33.9336 7.61624 33.8601 7.68569C33.7867 7.75514 33.7277 7.83842 33.6866 7.93075Z" fill="white"/>
<path d="M34.8205 5.19991C36.2242 5.64558 37.5004 6.42174 38.5417 7.46313C39.5831 8.50451 40.3593 9.7807 40.805 11.1844C40.8539 11.3399 40.9511 11.4758 41.0824 11.5723C41.2138 11.6688 41.3726 11.7209 41.5356 11.721C41.6136 11.7205 41.6911 11.7084 41.7656 11.685C41.8616 11.6546 41.9507 11.6055 42.0277 11.5407C42.1048 11.4758 42.1683 11.3964 42.2146 11.307C42.261 11.2175 42.2893 11.1199 42.2978 11.0195C42.3064 10.9192 42.2952 10.8181 42.2647 10.7221C41.7443 9.08433 40.8385 7.59536 39.6233 6.38031C38.4081 5.16525 36.9191 4.2596 35.2812 3.73944C35.0893 3.6851 34.8837 3.70772 34.7082 3.80249C34.5327 3.89726 34.401 4.05672 34.3411 4.24701C34.2812 4.4373 34.2979 4.64343 34.3875 4.82164C34.4772 4.99985 34.6328 5.13609 34.8212 5.20144L34.8205 5.19991Z" fill="white"/>
<path d="M45.9776 10.1202C45.3835 7.67363 44.1276 5.43775 42.3473 3.6575C40.5671 1.87725 38.3312 0.621295 35.8846 0.0272304C35.7858 0.000168615 35.6826 -0.0068147 35.581 0.00669321C35.4795 0.0202011 35.3817 0.0539261 35.2934 0.105876C35.2051 0.157825 35.1281 0.226946 35.0669 0.309154C35.0058 0.391361 34.9618 0.484988 34.9374 0.584503C34.9131 0.684018 34.9089 0.787402 34.9252 0.888547C34.9415 0.989692 34.9779 1.08655 35.0323 1.17339C35.0866 1.26023 35.1578 1.3353 35.2417 1.39415C35.3255 1.45301 35.4203 1.49447 35.5205 1.51607C37.6948 2.04395 39.6819 3.16011 41.2641 4.74227C42.8462 6.32443 43.9624 8.31154 44.4903 10.4859C44.5311 10.6525 44.6267 10.8006 44.7616 10.9065C44.8966 11.0124 45.0632 11.07 45.2347 11.0701C45.2962 11.0701 45.3574 11.0629 45.4172 11.0486C45.5149 11.0245 45.607 10.9813 45.6881 10.9216C45.7692 10.8618 45.8377 10.7867 45.8897 10.7005C45.9418 10.6143 45.9763 10.5187 45.9914 10.4191C46.0065 10.3195 46.0018 10.218 45.9776 10.1202Z" fill="white"/>
<path d="M7.54452 11.3024C7.49925 11.3946 7.47294 11.4948 7.46714 11.5973C7.46134 11.6998 7.47617 11.8023 7.51076 11.899C7.54535 11.9956 7.59899 12.0843 7.6685 12.1598C7.73801 12.2353 7.82197 12.2961 7.91541 12.3386C8.00885 12.381 8.10986 12.4043 8.21246 12.407C8.31506 12.4097 8.41715 12.3917 8.51269 12.3542C8.60822 12.3167 8.69526 12.2604 8.76863 12.1887C8.842 12.1169 8.90022 12.0312 8.93983 11.9365C9.54265 10.6114 10.6047 9.54936 11.9298 8.94653C12.0237 8.90634 12.1086 8.84779 12.1795 8.77433C12.2505 8.70087 12.306 8.61397 12.3429 8.51874C12.3798 8.42352 12.3973 8.32188 12.3944 8.21979C12.3915 8.11771 12.3682 8.01723 12.3259 7.92428C12.2836 7.83132 12.2231 7.74774 12.1481 7.67847C12.0731 7.60919 11.9849 7.5556 11.8889 7.52085C11.7929 7.4861 11.6909 7.47088 11.5889 7.4761C11.4869 7.48131 11.387 7.50686 11.295 7.55122C9.63242 8.30708 8.30004 9.63974 7.54452 11.3024Z" fill="white"/>
<path d="M4.2318 11.6834C4.30626 11.7067 4.38377 11.7189 4.4618 11.7194C4.62481 11.7193 4.78354 11.6671 4.91492 11.5706C5.04631 11.4741 5.14351 11.3383 5.19241 11.1828C5.63809 9.77906 6.41424 8.50288 7.45563 7.46149C8.49702 6.4201 9.7732 5.64394 11.1769 5.19827C11.3654 5.13292 11.521 4.99667 11.6106 4.81847C11.7003 4.64026 11.7169 4.43413 11.657 4.24384C11.5972 4.05355 11.4655 3.89409 11.2899 3.79932C11.1144 3.70455 10.9088 3.68193 10.7169 3.73627C9.07908 4.25642 7.59001 5.16208 6.37482 6.37714C5.15963 7.59219 4.25381 9.08116 3.73348 10.7189C3.70274 10.815 3.69125 10.9161 3.69967 11.0166C3.70809 11.1171 3.73625 11.215 3.78254 11.3045C3.82883 11.3941 3.89234 11.4737 3.96943 11.5387C4.04652 11.6037 4.13568 11.6529 4.2318 11.6834Z" fill="white"/>
<path d="M10.4785 1.51607C10.5787 1.49447 10.6735 1.45301 10.7573 1.39416C10.8412 1.3353 10.9124 1.26023 10.9667 1.17339C11.0211 1.08655 11.0575 0.989693 11.0738 0.888548C11.09 0.787402 11.0859 0.684018 11.0616 0.584503C11.0372 0.484988 10.9932 0.391361 10.932 0.309154C10.8709 0.226946 10.7939 0.157825 10.7056 0.105876C10.6173 0.0539261 10.5195 0.0202011 10.4179 0.00669321C10.3164 -0.0068147 10.2132 0.000168615 10.1144 0.0272305C7.66778 0.621295 5.43191 1.87725 3.65165 3.6575C1.8714 5.43775 0.615448 7.67363 0.0213829 10.1202C-0.0262181 10.3175 0.00637008 10.5256 0.112002 10.699C0.217633 10.8723 0.387686 10.9967 0.584872 11.0448C0.644294 11.0598 0.70528 11.0678 0.766568 11.0685C0.938122 11.0685 1.1047 11.0109 1.23966 10.905C1.37462 10.7991 1.47016 10.651 1.51099 10.4844C2.03893 8.31058 3.15486 6.32399 4.73657 4.74214C6.31828 3.1603 8.30477 2.0442 10.4785 1.51607Z" fill="white"/>
<path d="M37.5658 42.9375V29.8531C38.5936 27.6698 39.1174 25.2835 39.0986 22.8705C39.0798 20.4576 38.5189 18.0797 37.4573 15.9128C36.3956 13.7458 34.8605 11.8452 32.9653 10.3515C31.0702 8.85782 28.8635 7.80923 26.5085 7.2833C24.1534 6.75736 21.7103 6.76753 19.3597 7.31305C17.0092 7.85857 14.8113 8.92549 12.9286 10.4349C11.046 11.9443 9.52671 13.8576 8.48315 16.0333C7.4396 18.2091 6.89846 20.5915 6.89975 23.0046C6.89892 25.3672 7.42262 27.7005 8.43306 29.8362V42.9375C8.43306 43.1408 8.51383 43.3358 8.6576 43.4796C8.80138 43.6234 8.99638 43.7042 9.19971 43.7042H14.5923L13.9092 44.8434C13.8396 44.9597 13.802 45.0924 13.8003 45.228C13.7986 45.3635 13.8329 45.4971 13.8997 45.6151C13.9665 45.7331 14.0634 45.8313 14.1805 45.8996C14.2976 45.9679 14.4307 46.004 14.5663 46.0041H31.4326C31.5682 46.004 31.7013 45.9679 31.8184 45.8996C31.9355 45.8313 32.0324 45.7331 32.0992 45.6151C32.166 45.4971 32.2003 45.3635 32.1986 45.228C32.1969 45.0924 32.1593 44.9597 32.0896 44.8434L31.4065 43.7042H36.7992C37.0025 43.7042 37.1975 43.6234 37.3413 43.4796C37.485 43.3358 37.5658 43.1408 37.5658 42.9375ZM8.43306 23.0046C8.4313 20.2882 9.18913 17.6254 10.621 15.3171C12.0528 13.0087 14.1016 11.1467 16.5359 9.94132C18.9702 8.73598 21.693 8.23534 24.3969 8.49594C27.1007 8.75654 29.6778 9.768 31.8371 11.4161C33.9964 13.0642 35.6519 15.2832 36.6165 17.8225C37.5811 20.3619 37.8164 23.1204 37.2959 25.7864C36.7753 28.4524 35.5197 30.9198 33.6708 32.9098C31.8219 34.8999 29.4533 36.3332 26.8327 37.0481V32.2044H32.9659C33.1692 32.2044 33.3642 32.1236 33.508 31.9798C33.6518 31.8361 33.7326 31.6411 33.7326 31.4377V27.6045C33.7326 27.4011 33.6518 27.2061 33.508 27.0624C33.3642 26.9186 33.1692 26.8378 32.9659 26.8378H32.1732C32.6924 25.6263 32.962 24.3226 32.9659 23.0046C32.9659 20.3613 31.9159 17.8263 30.0468 15.9572C28.1777 14.0881 25.6427 13.0381 22.9994 13.0381C20.3562 13.0381 17.8212 14.0881 15.9521 15.9572C14.083 17.8263 13.033 20.3613 13.033 23.0046C13.0341 24.3214 13.2987 25.6248 13.8111 26.8378H13.033C12.8296 26.8378 12.6346 26.9186 12.4909 27.0624C12.3471 27.2061 12.2663 27.4011 12.2663 27.6045V31.4377C12.2663 31.6411 12.3471 31.8361 12.4909 31.9798C12.6346 32.1236 12.8296 32.2044 13.033 32.2044H19.1662V37.0343C16.0877 36.1936 13.3704 34.3657 11.4314 31.8312C9.49241 29.2967 8.43904 26.1957 8.43306 23.0046ZM13.7996 30.6711V28.3711H32.1993V30.6711H13.7996ZM25.2994 32.2044V40.6375H20.6995V32.2044H25.2994ZM14.5663 23.0046C14.5663 20.7679 15.4548 18.6229 17.0363 17.0414C18.6178 15.4599 20.7628 14.5714 22.9994 14.5714C25.236 14.5714 27.3811 15.4599 28.9626 17.0414C30.5441 18.6229 31.4326 20.7679 31.4326 23.0046C31.4317 24.3387 31.111 25.6532 30.4973 26.8378H15.5138C14.8955 25.6544 14.5706 24.3398 14.5663 23.0046ZM9.96636 42.1709V32.4137C12.2031 35.5055 15.4623 37.7054 19.1662 38.6236V40.6375H16.8662C16.7339 40.6377 16.6038 40.672 16.4886 40.7373C16.3735 40.8026 16.2772 40.8966 16.2092 41.0101L15.5123 42.1709H9.96636ZM15.9209 44.4708L17.3009 42.1709H28.6987L30.0787 44.4708H15.9209ZM36.0325 42.1709H30.4866L29.7897 41.0101C29.7216 40.8966 29.6254 40.8026 29.5102 40.7373C29.3951 40.672 29.265 40.6377 29.1326 40.6375H26.8327V38.6167C30.5341 37.7046 33.7932 35.5118 36.0325 32.4267V42.1709Z" fill="white"/>
<path d="M9.96637 22.2378H11.4997V23.7711H9.96637V22.2378Z" fill="white"/>
<path d="M34.4993 22.2378H36.0326V23.7711H34.4993V22.2378Z" fill="white"/>
<path d="M19.1662 9.97144H20.6995V11.5047H19.1662V9.97144Z" fill="white"/>
<path d="M22.2328 9.97144H23.7661V11.5047H22.2328V9.97144Z" fill="white"/>
<path d="M25.2994 9.97144H26.8327V11.5047H25.2994V9.97144Z" fill="white"/>
</svg>
