<svg width="66" height="66" viewBox="0 0 66 66" fill="none" xmlns="http://www.w3.org/2000/svg">
<path d="M48.3286 11.3779C48.2692 11.5095 48.2362 11.6516 48.2317 11.796C48.2271 11.9404 48.2511 12.0842 48.3022 12.2194C48.3532 12.3545 48.4304 12.4782 48.5293 12.5835C48.6282 12.6888 48.7469 12.7736 48.8785 12.833C50.7795 13.6979 52.3032 15.2216 53.1681 17.1226C53.2249 17.2584 53.3084 17.3814 53.4137 17.4844C53.519 17.5874 53.6438 17.6681 53.7809 17.7219C53.9179 17.7757 54.0644 17.8015 54.2116 17.7976C54.3588 17.7937 54.5037 17.7604 54.6378 17.6994C54.7718 17.6385 54.8923 17.5513 54.992 17.443C55.0917 17.3347 55.1687 17.2074 55.2183 17.0688C55.2679 16.9301 55.2892 16.783 55.2809 16.636C55.2726 16.4889 55.2348 16.3451 55.1699 16.213C54.0869 13.8243 52.1744 11.9094 49.787 10.8235C49.6549 10.7637 49.5123 10.7306 49.3674 10.7261C49.2225 10.7216 49.0781 10.7458 48.9425 10.7973C48.807 10.8489 48.6829 10.9267 48.5776 11.0263C48.4722 11.1259 48.3876 11.2454 48.3286 11.3779V11.3779Z" fill="#666FBF"/>
<path d="M49.9554 7.45986C51.9692 8.09925 53.8001 9.21276 55.2941 10.7068C56.7881 12.2008 57.9016 14.0317 58.541 16.0455C58.6112 16.2686 58.7506 16.4636 58.9391 16.602C59.1276 16.7405 59.3553 16.8152 59.5892 16.8154C59.7012 16.8147 59.8124 16.7972 59.9192 16.7637C60.0569 16.7201 60.1847 16.6497 60.2953 16.5567C60.4058 16.4636 60.4969 16.3497 60.5634 16.2214C60.6299 16.0931 60.6705 15.953 60.6828 15.809C60.6951 15.665 60.6789 15.52 60.6352 15.3823C59.8887 13.0327 58.5892 10.8965 56.8458 9.15332C55.1024 7.41014 52.9661 6.11084 50.6164 5.36459C50.341 5.28663 50.0461 5.31908 49.7943 5.45505C49.5424 5.59101 49.3535 5.81978 49.2676 6.09278C49.1817 6.36578 49.2056 6.66151 49.3342 6.91717C49.4629 7.17284 49.6861 7.3683 49.9565 7.46206L49.9554 7.45986Z" fill="#666FBF"/>
<path d="M65.962 14.519C65.1097 11.009 63.3078 7.8013 60.7538 5.24725C58.1997 2.6932 54.992 0.891344 51.482 0.0390663C51.3403 0.000241905 51.1922 -0.00977674 51.0465 0.00960244C50.9008 0.0289816 50.7604 0.0773653 50.6338 0.151895C50.5071 0.226425 50.3966 0.325589 50.3089 0.443529C50.2212 0.561468 50.158 0.69579 50.1231 0.83856C50.0882 0.981329 50.0822 1.12965 50.1056 1.27476C50.129 1.41987 50.1812 1.55882 50.2592 1.68341C50.3371 1.80799 50.4393 1.91569 50.5596 2.00013C50.6799 2.08457 50.8159 2.14404 50.9596 2.17503C54.079 2.93236 56.9298 4.53367 59.1997 6.80352C61.4695 9.07337 63.0709 11.9242 63.8282 15.0436C63.8868 15.2827 64.0238 15.4952 64.2174 15.6471C64.4111 15.7991 64.65 15.8817 64.8962 15.8817C64.9843 15.8818 65.0722 15.8715 65.1579 15.8509C65.2982 15.8163 65.4303 15.7544 65.5466 15.6687C65.6629 15.583 65.7612 15.4752 65.8359 15.3515C65.9106 15.2278 65.9601 15.0906 65.9817 14.9478C66.0034 14.8049 65.9966 14.6592 65.962 14.519V14.519Z" fill="#666FBF"/>
<path d="M10.8238 16.215C10.7588 16.3472 10.7211 16.491 10.7128 16.638C10.7044 16.785 10.7257 16.9322 10.7753 17.0709C10.825 17.2095 10.9019 17.3367 11.0016 17.4451C11.1014 17.5534 11.2218 17.6406 11.3559 17.7015C11.4899 17.7624 11.6348 17.7958 11.782 17.7997C11.9292 17.8035 12.0757 17.7778 12.2128 17.724C12.3498 17.6702 12.4747 17.5894 12.5799 17.4865C12.6852 17.3835 12.7687 17.2605 12.8256 17.1246C13.6904 15.2237 15.2141 13.7 17.1151 12.8351C17.2498 12.7775 17.3716 12.6935 17.4734 12.5881C17.5752 12.4827 17.6549 12.358 17.7078 12.2214C17.7607 12.0848 17.7858 11.939 17.7816 11.7925C17.7774 11.646 17.744 11.5019 17.6834 11.3685C17.6227 11.2352 17.536 11.1153 17.4283 11.0159C17.3207 10.9165 17.1943 10.8396 17.0565 10.7898C16.9187 10.7399 16.7724 10.7181 16.626 10.7256C16.4797 10.733 16.3364 10.7697 16.2044 10.8333C13.8192 11.9177 11.9077 13.8296 10.8238 16.215V16.215Z" fill="#666FBF"/>
<path d="M6.07122 16.7616C6.17804 16.795 6.28924 16.8125 6.40119 16.8132C6.63506 16.813 6.86278 16.7383 7.05127 16.5998C7.23976 16.4614 7.37921 16.2664 7.44937 16.0433C8.08876 14.0295 9.20227 12.1986 10.6963 10.7046C12.1903 9.21057 14.0212 8.09705 16.035 7.45767C16.3054 7.36391 16.5286 7.16844 16.6573 6.91278C16.7859 6.65711 16.8098 6.36138 16.7239 6.08838C16.638 5.81538 16.4491 5.58661 16.1972 5.45065C15.9454 5.31469 15.6505 5.28224 15.3751 5.3602C13.0254 6.10644 10.8891 7.40574 9.14572 9.14893C7.40234 10.8921 6.1028 13.0283 5.3563 15.3779C5.3122 15.5157 5.29572 15.6608 5.30779 15.805C5.31987 15.9492 5.36027 16.0895 5.42668 16.2181C5.49309 16.3466 5.58421 16.4608 5.69481 16.554C5.80541 16.6473 5.93332 16.7178 6.07122 16.7616V16.7616Z" fill="#666FBF"/>
<path d="M15.033 2.17503C15.1767 2.14404 15.3127 2.08457 15.433 2.00013C15.5533 1.91569 15.6555 1.808 15.7335 1.68341C15.8114 1.55882 15.8637 1.41987 15.887 1.27476C15.9104 1.12965 15.9044 0.98133 15.8695 0.83856C15.8346 0.695791 15.7714 0.561468 15.6837 0.443529C15.596 0.325589 15.4855 0.226425 15.3589 0.151895C15.2322 0.0773654 15.0918 0.0289816 14.9462 0.00960244C14.8005 -0.00977674 14.6524 0.000241905 14.5106 0.0390663C11.0006 0.891344 7.79291 2.6932 5.23886 5.24725C2.68481 7.8013 0.882955 11.009 0.0306771 14.519C-0.0376139 14.8021 0.00913886 15.1007 0.160684 15.3493C0.312228 15.598 0.556195 15.7764 0.839089 15.8454C0.924339 15.867 1.01183 15.8785 1.09976 15.8795C1.34588 15.8795 1.58487 15.7969 1.77849 15.6449C1.97211 15.493 2.10917 15.2805 2.16774 15.0414C2.92516 11.9228 4.52613 9.07274 6.79534 6.80334C9.06455 4.53393 11.9145 2.93272 15.033 2.17503V2.17503Z" fill="#666FBF"/>
<path d="M53.8939 61.6006V42.8289C55.3684 39.6967 56.12 36.2732 56.093 32.8114C56.066 29.3496 55.2613 25.9382 53.7382 22.8294C52.2151 19.7206 50.0127 16.9939 47.2938 14.8509C44.5749 12.708 41.4091 11.2036 38.0305 10.4491C34.6518 9.69456 31.1468 9.70915 27.7745 10.4918C24.4023 11.2744 21.2491 12.8051 18.5481 14.9706C15.8472 17.1361 13.6675 19.881 12.1704 23.0024C10.6732 26.1238 9.89689 29.5418 9.89875 33.0037C9.89756 36.3932 10.6489 39.7408 12.0985 42.8047V61.6006C12.0985 61.8923 12.2144 62.172 12.4207 62.3783C12.6269 62.5846 12.9067 62.7004 13.1984 62.7004H20.9349L19.9549 64.3349C19.855 64.5017 19.801 64.6921 19.7986 64.8866C19.7962 65.0811 19.8454 65.2727 19.9412 65.442C20.0371 65.6113 20.1761 65.7521 20.344 65.8502C20.512 65.9482 20.703 65.9999 20.8975 66.0001H45.0949C45.2894 65.9999 45.4804 65.9482 45.6484 65.8502C45.8164 65.7521 45.9554 65.6113 46.0512 65.442C46.147 65.2727 46.1962 65.0811 46.1938 64.8866C46.1914 64.6921 46.1375 64.5017 46.0375 64.3349L45.0575 62.7004H52.7941C53.0858 62.7004 53.3655 62.5846 53.5718 62.3783C53.7781 62.172 53.8939 61.8923 53.8939 61.6006ZM12.0985 33.0037C12.096 29.1066 13.1832 25.2865 15.2374 21.9748C17.2916 18.663 20.2309 15.9917 23.7232 14.2624C27.2156 12.5332 31.122 11.8149 35.0011 12.1888C38.8802 12.5627 42.5774 14.0138 45.6753 16.3782C48.7731 18.7426 51.1481 21.9262 52.532 25.5693C53.9158 29.2123 54.2534 33.1698 53.5067 36.9947C52.7599 40.8195 50.9585 44.3593 48.3059 47.2143C45.6534 50.0693 42.2553 52.1257 38.4956 53.1513V46.2022H47.2947C47.5864 46.2022 47.8661 46.0864 48.0724 45.8801C48.2787 45.6738 48.3945 45.3941 48.3945 45.1024V39.603C48.3945 39.3113 48.2787 39.0315 48.0724 38.8252C47.8661 38.619 47.5864 38.5031 47.2947 38.5031H46.1574C46.9023 36.765 47.2891 34.8946 47.2947 33.0037C47.2947 29.2115 45.7882 25.5746 43.1067 22.8931C40.4253 20.2117 36.7884 18.7052 32.9962 18.7052C29.204 18.7052 25.5672 20.2117 22.8857 22.8931C20.2042 25.5746 18.6978 29.2115 18.6978 33.0037C18.6994 34.8929 19.079 36.7627 19.8142 38.5031H18.6978C18.4061 38.5031 18.1263 38.619 17.9201 38.8252C17.7138 39.0315 17.5979 39.3113 17.5979 39.603V45.1024C17.5979 45.3941 17.7138 45.6738 17.9201 45.8801C18.1263 46.0864 18.4061 46.2022 18.6978 46.2022H27.4968V53.1315C23.0803 51.9255 19.1818 49.303 16.4001 45.6668C13.6183 42.0307 12.1071 37.5819 12.0985 33.0037V33.0037ZM19.7977 44.0025V40.7028H46.1948V44.0025H19.7977ZM36.2959 46.2022V58.3009H29.6966V46.2022H36.2959ZM20.8975 33.0037C20.8975 29.7949 22.1722 26.7176 24.4412 24.4486C26.7101 22.1797 29.7875 20.905 32.9962 20.905C36.205 20.905 39.2823 22.1797 41.5513 24.4486C43.8202 26.7176 45.0949 29.7949 45.0949 33.0037C45.0936 34.9177 44.6335 36.8035 43.7531 38.5031H22.257C21.3699 36.8053 20.9037 34.9192 20.8975 33.0037V33.0037ZM14.2983 60.5007V46.5025C17.5072 50.9381 22.183 54.0943 27.4968 55.4115V58.3009H24.1972C24.0073 58.3011 23.8207 58.3504 23.6555 58.4441C23.4903 58.5377 23.3522 58.6726 23.2546 58.8355L22.2548 60.5007H14.2983ZM22.841 63.8003L24.8208 60.5007H41.1727L43.1525 63.8003H22.841ZM51.6942 60.5007H43.7377L42.7379 58.8355C42.6403 58.6726 42.5021 58.5377 42.337 58.4441C42.1718 58.3504 41.9852 58.3011 41.7953 58.3009H38.4956V55.4016C43.8059 54.0932 48.4816 50.9473 51.6942 46.5212V60.5007Z" fill="#8B8B8B"/>
<path d="M14.2983 31.9038H16.4981V34.1036H14.2983V31.9038Z" fill="#666FBF"/>
<path d="M49.4946 31.9038H51.6943V34.1036H49.4946V31.9038Z" fill="#666FBF"/>
<path d="M27.4969 14.3057H29.6966V16.5054H27.4969V14.3057Z" fill="#666FBF"/>
<path d="M31.8964 14.3057H34.0962V16.5054H31.8964V14.3057Z" fill="#666FBF"/>
<path d="M36.296 14.3057H38.4957V16.5054H36.296V14.3057Z" fill="#666FBF"/>
</svg>
