<svg width="51" height="42" viewBox="0 0 51 42" fill="none" xmlns="http://www.w3.org/2000/svg">
<path d="M47.2646 0H44.6488C44.2361 0 43.9017 0.374062 43.9017 0.835706C43.9017 1.29735 44.2361 1.67141 44.6488 1.67141H47.2646C48.5004 1.67141 49.5059 2.79616 49.5059 4.17853V8.02277H1.49414V4.17853C1.49414 2.79616 2.4995 1.67141 3.73535 1.67141H41.3687C41.7813 1.67141 42.1157 1.29735 42.1157 0.835706C42.1157 0.374062 41.7813 0 41.3687 0H3.73535C1.67563 0 0 1.87443 0 4.17853V13.3915C0 13.8531 0.334488 14.2272 0.74707 14.2272C1.15965 14.2272 1.49414 13.8531 1.49414 13.3915V9.69419H49.5059V31.2405C49.5059 31.7021 49.8402 32.0762 50.2529 32.0762C50.6656 32.0762 51 31.7021 51 31.2405V4.17853C51 1.87443 49.3244 0 47.2646 0Z" fill="#8B8B8B"/>
<path d="M50.2529 33.929C49.8402 33.929 49.5059 34.303 49.5059 34.7647V36.9382C49.5059 38.3206 48.5004 39.4453 47.2646 39.4453H3.73535C2.4995 39.4453 1.49414 38.3206 1.49414 36.9382V16.9779C1.49414 16.5162 1.15965 16.1422 0.74707 16.1422C0.334488 16.1422 0 16.5162 0 16.9779V36.9382C0 39.2423 1.67563 41.1167 3.73535 41.1167H47.2646C49.3244 41.1167 51 39.2423 51 36.9382V34.7647C51 34.3032 50.6656 33.929 50.2529 33.929Z" fill="#8B8B8B"/>
<path d="M25.2633 30.5072H29.5825V11.8576C29.5825 11.5795 29.7969 11.3535 30.0625 11.3535H46.3803C46.646 11.3535 46.8604 11.5795 46.8604 11.8576V34.0359C46.8604 35.4251 45.7836 36.5563 44.4612 36.5563C44.4166 36.5563 44.3768 36.5415 44.336 36.5298C44.225 36.5446 44.1121 36.5542 43.9973 36.5563H43.9812H30.0159C27.131 36.5563 24.785 34.0922 24.785 31.0623V31.0114C24.7831 30.7323 24.9985 30.5073 25.2632 30.5073L25.2633 30.5072ZM42.0612 31.0113V33.5571C42.0612 34.6555 42.9122 35.548 44.005 35.548C45.0504 35.548 45.9004 34.6544 45.9004 33.5571V12.3614H30.5426V30.5071H41.5812C41.8459 30.5071 42.0613 30.7321 42.0613 31.0112L42.0612 31.0113ZM30.015 35.5468H41.823C41.3742 35.0173 41.101 34.319 41.101 33.556V31.5153H25.7651C25.9823 33.7757 27.8056 35.5469 30.0151 35.5469L30.015 35.5468Z" fill="#666FBF"/>
<path d="M44.4604 18.4094H43.0203V19.9217C43.0203 20.1997 42.8059 20.4258 42.5403 20.4258H40.6202C40.3546 20.4258 40.1402 20.1997 40.1402 19.9217V18.4094H38.7001C38.4345 18.4094 38.2201 18.1834 38.2201 17.9054V15.889C38.2201 15.611 38.4345 15.385 38.7001 15.385H40.1402L40.1411 13.8738C40.1411 13.5958 40.3555 13.3697 40.6212 13.3697H42.5412C42.8069 13.3697 43.0213 13.5957 43.0213 13.8738V15.386L44.4604 15.385C44.726 15.385 44.9404 15.611 44.9404 15.889V17.9054C44.9404 18.1844 44.726 18.4094 44.4604 18.4094L44.4604 18.4094ZM43.9804 16.3931H42.5403C42.2747 16.3931 42.0603 16.1671 42.0603 15.889L42.0612 14.3768H41.1012V15.889C41.1012 16.1671 40.8868 16.3931 40.6211 16.3931H39.1811V17.4013H40.6211C40.8868 17.4013 41.1012 17.6273 41.1012 17.9054V19.4176H42.0612V17.9054C42.0612 17.6273 42.2756 17.4013 42.5412 17.4013H43.9804L43.9804 16.3931Z" fill="#666FBF"/>
<path d="M44.4604 22.4421H31.9826C31.717 22.4421 31.5026 22.2161 31.5026 21.938C31.5026 21.66 31.717 21.4339 31.9826 21.4339H44.4604C44.726 21.4339 44.9404 21.66 44.9404 21.938C44.9404 22.2161 44.726 22.4421 44.4604 22.4421Z" fill="#666FBF"/>
<path d="M44.4604 25.4664H31.9826C31.717 25.4664 31.5026 25.2403 31.5026 24.9623C31.5026 24.6842 31.717 24.4582 31.9826 24.4582H44.4604C44.726 24.4582 44.9404 24.6842 44.9404 24.9623C44.9404 25.2403 44.726 25.4664 44.4604 25.4664Z" fill="#666FBF"/>
<path d="M31.5026 27.9869C31.5026 27.7089 31.717 27.4828 31.9826 27.4828H44.4604C44.726 27.4828 44.9404 27.7089 44.9404 27.9869C44.9404 28.265 44.726 28.491 44.4604 28.491H31.9826C31.717 28.491 31.5026 28.265 31.5026 27.9869Z" fill="#666FBF"/>
<path fill-rule="evenodd" clip-rule="evenodd" d="M12.4475 31.8563C12.3342 32.1903 12.0503 32.3957 11.7489 32.3957C11.6608 32.3957 11.5712 32.3782 11.484 32.3411C11.0983 32.1773 10.9043 31.6947 11.0507 31.2633L16.3593 15.6189C16.5056 15.1874 16.9371 14.9703 17.3228 15.1342C17.7085 15.298 17.9025 15.7806 17.7561 16.2121L12.4475 31.8563ZM19.4539 29.3175C19.5997 29.4806 19.791 29.5621 19.9821 29.5621C20.1733 29.5621 20.3645 29.4806 20.5104 29.3175L24.9405 24.3618C25.0805 24.2051 25.1592 23.9926 25.1592 23.7708C25.1592 23.5491 25.0805 23.3367 24.9405 23.1798L20.451 18.1578C20.1592 17.8315 19.6862 17.8315 19.3945 18.1578C19.1028 18.4843 19.1028 19.0133 19.3945 19.3397L23.3558 23.7708L19.454 28.1354C19.1622 28.462 19.1622 28.9911 19.4539 29.3175ZM9.40727 18.1579C9.11552 17.8316 8.64247 17.8316 8.35081 18.1579L3.86142 23.1799C3.72127 23.3367 3.64258 23.5492 3.64258 23.7709C3.64258 23.9927 3.72127 24.2051 3.86142 24.3619L8.29145 29.3176C8.43728 29.4807 8.62853 29.5623 8.81968 29.5623C9.01083 29.5623 9.20208 29.4807 9.34791 29.3176C9.63966 28.9911 9.63966 28.462 9.34791 28.1357L5.44611 23.771L9.40727 19.3399C9.69913 19.0134 9.69913 18.4844 9.40727 18.1579Z" fill="#666FBF"/>
</svg>
