<svg width="81" height="62" viewBox="0 0 81 62" fill="none" xmlns="http://www.w3.org/2000/svg">
<path d="M8.62445 25.5H39.1718V34.3898L37.8436 35.3076V29.6495C37.8436 29.2851 37.7042 28.9345 37.4551 28.6766C37.2061 28.4188 36.8675 28.2745 36.5155 28.2745C32.7602 28.2641 29.1543 29.811 26.5084 32.5679C21.8434 37.3666 19.2303 43.8979 19.2502 50.7073C19.2402 52.6633 20.3359 54.4473 22.0526 55.2689C22.7 55.5852 23.4106 55.7502 24.1277 55.7502C25.2633 55.7467 26.3623 55.3308 27.2322 54.5746L28.2449 53.7014H28.2416C28.7496 53.2649 29.3904 53.0242 30.0511 53.0242H32.3621C35.3869 53.0208 37.8373 50.484 37.8439 47.349V38.6108L40.5002 36.7752L43.1564 38.6074V47.3214C43.1598 50.4564 45.6101 52.9967 48.6383 53.0001H50.9492C51.61 53.0001 52.2508 53.2408 52.7588 53.6773L53.7715 54.5504H53.7682C54.6381 55.3067 55.7371 55.7226 56.8726 55.726C57.5898 55.7226 58.2971 55.561 58.9478 55.2448C60.6644 54.4232 61.7601 52.6392 61.7502 50.6798C61.7668 43.8735 59.1537 37.3425 54.492 32.5403C51.8423 29.7835 48.2398 28.2401 44.4849 28.2503C43.7511 28.2503 43.1568 28.8657 43.1568 29.6253V35.3075L41.8286 34.3897V25.4999H72.3759V58.4999H65.5062L69.4906 39.5421L66.8941 38.9577L62.7869 58.4999H18.2146L14.1107 38.9577L11.5142 39.5421L15.4986 58.4999H8.6256L8.62445 25.5ZM35.187 31.1032V47.3488C35.1836 48.9644 33.9186 50.2741 32.3614 50.2741H30.0504C28.7688 50.2741 27.5269 50.7416 26.5408 51.5907L25.5315 52.4638H25.5281C24.8707 53.031 23.9543 53.1548 23.1774 52.7766C22.4004 52.402 21.9057 51.5941 21.9057 50.7072C21.8891 44.6298 24.2233 38.7964 28.3869 34.5135C30.2131 32.6091 32.6104 31.4057 35.187 31.1032ZM45.812 47.3286V31.0794C48.3885 31.3819 50.7858 32.5816 52.612 34.486C56.7756 38.7725 59.1098 44.6024 59.0932 50.6797C59.0932 51.5666 58.5985 52.3744 57.8215 52.7526C57.0446 53.1272 56.1281 53.0069 55.4708 52.4363L54.4581 51.5632C53.4719 50.7176 52.2301 50.25 50.9485 50.25H48.6375C47.077 50.25 45.812 48.9403 45.812 47.3248V47.3286Z" fill="#666FBF"/>
<path d="M68.0118 10.3746H51.1249V2.12457C51.1249 1.7602 50.9854 1.40957 50.7364 1.15173C50.4874 0.893889 50.1487 0.749542 49.7967 0.749542H31.203C30.4692 0.749542 29.8748 1.36486 29.8748 2.12454V10.3745H12.9879C9.72065 10.378 6.58636 11.7255 4.27538 14.1214C1.96108 16.514 0.659565 19.7589 0.65625 23.1414V29.6245H3.3125V23.1414C3.32246 17.614 7.64886 13.1349 12.988 13.1244H31.2035C31.5555 13.1244 31.8942 12.98 32.1432 12.7222C32.3923 12.4644 32.5317 12.1137 32.5317 11.7493V3.49934H48.4692V11.7493C48.4692 12.1137 48.6086 12.4643 48.8577 12.7222C49.1067 12.98 49.4454 13.1244 49.7973 13.1244H68.0129C73.3519 13.1347 77.6782 17.6138 77.6884 23.1414V29.6245H80.3447V23.1414C80.3413 19.7589 79.0397 16.514 76.7255 14.1214C74.4145 11.7254 71.2803 10.378 68.013 10.3745L68.0118 10.3746Z" fill="#8B8B8B"/>
<path d="M28.5469 46.1255H31.2031V42.571L33.4709 40.2232L31.5917 38.2776L29.3239 40.6255H25.8906V43.3755H28.5469V46.1255Z" fill="white"/>
<path d="M49.7971 46.1255H52.4533V43.3755H55.1096V40.6255H51.6764L49.4086 38.2776L47.5293 40.2232L49.7971 42.571V46.1255Z" fill="white"/>
</svg>
