<svg width="61" height="69" viewBox="0 0 61 69" fill="none" xmlns="http://www.w3.org/2000/svg">
<path d="M48.2363 59.6107C48.5707 59.526 48.7958 59.2102 48.7648 58.8654L48.5109 56.0535L48.5109 56.0556C49.06 55.6159 49.5514 55.11 49.9746 54.5485L52.7864 54.7591C53.1271 54.788 53.4388 54.5629 53.5214 54.2306L54.5144 50.6796C54.6052 50.3534 54.4483 50.0086 54.1448 49.86L51.5931 48.6027L51.5911 48.6027C51.5085 47.8925 51.3309 47.1988 51.0626 46.5361L52.6481 44.1784C52.838 43.8977 52.8029 43.5219 52.5635 43.2804L49.9436 40.6915C49.7041 40.452 49.3284 40.4169 49.0497 40.6069L46.6879 42.1924C46.0107 41.9199 45.2985 41.7403 44.5738 41.6639L43.3434 39.1596L43.3413 39.1576C43.1947 38.852 42.85 38.6951 42.5217 38.7818L39.0327 39.7336L39.0347 39.7336C38.7065 39.8224 38.4835 40.13 38.5062 40.4685L38.7127 43.2432C38.4092 43.4497 38.1243 43.6809 37.86 43.9348C37.6061 44.1888 37.3707 44.4592 37.1519 44.7441L34.4185 44.5583L34.4206 44.5604C34.082 44.5356 33.7743 44.7586 33.6918 45.0889L32.74 48.5655C32.7318 48.6295 32.7318 48.6935 32.74 48.7554C32.74 49.0197 32.8866 49.2612 33.1199 49.3851L35.5891 50.6795C35.6675 51.3939 35.8451 52.0958 36.1176 52.7626L34.532 55.1203L34.532 55.1182C34.3545 55.4031 34.404 55.7727 34.6477 56.0018L37.2324 58.6072C37.4719 58.8488 37.8476 58.8859 38.1305 58.6981L40.4881 57.1125C41.1549 57.383 41.8548 57.5605 42.5691 57.641L43.8697 60.2299C44.0163 60.5355 44.3611 60.6944 44.6894 60.6057L48.2363 59.6107ZM43.6325 46.1399C45.0735 46.1399 46.3721 47.007 46.9233 48.3387C47.4745 49.6703 47.171 51.2022 46.1512 52.22C45.1334 53.2398 43.5995 53.5454 42.2699 52.9921C40.9383 52.4408 40.0712 51.1423 40.0712 49.7012C40.0712 48.7577 40.4448 47.8514 41.1138 47.1825C41.7827 46.5157 42.6869 46.1399 43.6325 46.1399Z" fill="#666FBF"/>
<path d="M32.8455 38.8564C34.9183 36.7775 37.5484 35.3427 40.418 34.7212C43.2877 34.0998 46.275 34.3187 49.0228 35.353L48.1928 35.5429C47.7139 35.6544 47.3732 36.0817 47.3732 36.5731C47.3732 36.6536 47.3835 36.7341 47.4 36.8126C47.464 37.0851 47.6333 37.3225 47.8708 37.4711C48.1082 37.6198 48.3951 37.6673 48.6697 37.6053L52.2909 36.7754L52.2888 36.7754C52.5634 36.7114 52.8008 36.5421 52.9494 36.3047C53.0981 36.0673 53.1456 35.7803 53.0816 35.5058L52.2516 31.8846L52.2516 31.8867C52.1216 31.3169 51.5559 30.9597 50.9861 31.0898C50.4184 31.2198 50.0612 31.7876 50.1913 32.3553L50.503 33.7034C45.9962 31.7628 40.8804 31.8185 36.4171 33.8583C31.9536 35.898 28.5618 39.7274 27.0793 44.4058C25.597 49.0819 26.1606 54.169 28.6339 58.4072L30.4568 57.3502C28.7536 54.4371 28.0662 51.0408 28.4976 47.6963C28.9291 44.3498 30.4589 41.2405 32.8455 38.8559L32.8455 38.8564Z" fill="#666FBF"/>
<path d="M37.0798 66.8676L36.7949 65.6144L36.7928 65.6165C41.3203 67.5488 46.4525 67.4745 50.92 65.4059C55.3876 63.3393 58.7674 59.4744 60.2229 54.7738C61.6784 50.0709 61.0714 44.9736 58.5527 40.7434L56.74 41.8272C58.9202 45.4835 59.4755 49.8828 58.2719 53.9667C57.0662 58.0482 54.211 61.4425 50.3939 63.3272C46.5786 65.212 42.148 65.4164 38.1741 63.8928L39.0825 63.6864C39.6523 63.5563 40.0074 62.9906 39.8774 62.4209C39.7473 61.8511 39.1816 61.496 38.6118 61.626L34.9907 62.4559C34.5117 62.5654 34.171 62.9927 34.1731 63.4861C34.171 63.5666 34.1814 63.6451 34.1979 63.7235L35.0278 67.3447C35.1579 67.9124 35.7256 68.2696 36.2933 68.1395C36.8631 68.0095 37.2203 67.4438 37.0902 66.874L37.0798 66.8676Z" fill="#666FBF"/>
<path fill-rule="evenodd" clip-rule="evenodd" d="M9.31652 15.5269H37.265V9.31618H43.4754V25.0855C43.6145 25.0832 43.7539 25.082 43.8935 25.082C44.8018 25.082 45.6985 25.1321 46.5808 25.2296V6.21079H37.265V0H9.31652V6.21079H0V65.2132H25.7071C24.8563 64.2435 24.0818 63.2053 23.3929 62.1078H3.10539V9.31618H9.31652V15.5269ZM19.9621 52.7916C20.1166 53.8506 20.3398 54.8873 20.6269 55.897H9.31652V52.7916H19.9621ZM20.4054 43.4754C20.1568 44.487 19.9718 45.5237 19.8549 46.5808H9.31652V43.4754H20.4054ZM25.006 34.1592C24.2242 35.1353 23.5165 36.1733 22.8914 37.2646H9.31652V34.1592H25.006ZM12.4219 6.21079V3.10539H34.1596V6.21079H12.4219ZM12.4219 9.31618H34.1596V12.4216H12.4219V9.31618ZM13.9739 18.6323H17.0793V23.2904H21.7381V26.3958H17.0793V31.0539H13.9739V26.3958H9.31652V23.2904H13.9739V18.6323Z" fill="#8B8B8B"/>
</svg>
