<svg width="84" height="53" viewBox="0 0 84 53" fill="none" xmlns="http://www.w3.org/2000/svg">
<path fill-rule="evenodd" clip-rule="evenodd" d="M59.6044 29.5176C61.3879 26.8875 62.3811 23.9661 62.3811 20.8892C62.3811 9.3524 48.4167 0 31.1906 0C13.9645 0 0 9.3524 0 20.8892C0 29.4186 7.63293 36.754 18.5736 39.9988C18.428 38.7798 18.453 37.471 18.4792 36.1017C18.4897 35.5537 18.5004 34.996 18.5004 34.4306C18.5004 33.6997 18.5941 32.982 18.7733 32.2813C14.7352 29.7206 12.2573 26.2584 12.2573 22.4477C12.2573 14.5607 22.8715 8.16697 35.9648 8.16697C49.058 8.16697 58.7207 12.5413 58.7207 22.4477C58.7207 24.1668 58.4299 25.7192 57.8808 27.1111C58.5624 27.8687 59.1413 28.6738 59.6044 29.5176Z" fill="#666FBF"/>
<path fill-rule="evenodd" clip-rule="evenodd" d="M47.8825 35.9931C46.7857 35.4382 44.8979 34.8685 44.8979 34.8685C44.8979 34.8685 54.1976 34.1793 54.1976 24.9199C54.1976 15.6606 44.4654 15.4851 44.4654 15.4851H23.0977V50.6154L33.7383 50.6108L33.736 36.8582H36.5931C37.1774 36.8582 37.4294 37.0285 38.0204 37.507C38.729 38.0806 39.8804 40.059 39.8804 40.059L45.5035 50.6185L57.5282 50.6131L50.0885 38.0693C50.0885 38.0693 49.8616 37.5686 49.3964 37.0745C48.9214 36.5699 48.263 36.1857 47.8825 35.9931ZM33.828 23.1012L40.2697 23.1053C40.2697 23.1053 43.2542 22.9437 43.2542 26.0339C43.2542 29.0633 40.2697 29.0726 40.2697 29.0726L33.8248 29.0746L33.828 23.1012ZM70.6697 25.6932C63.9496 25.6932 64.3692 28.6074 64.3692 28.6074L64.3767 31.6266H70.7896V32.5331H61.8295C61.8295 32.5331 57.5293 32.0454 57.5293 38.8261C57.5293 45.6069 61.2826 45.3664 61.2826 45.3664H63.5227V42.2198C63.5227 42.2198 63.4019 38.4666 67.2161 38.4666H73.5765C73.5765 38.4666 77.1501 38.5243 77.1501 35.0129V29.2068C77.1501 29.2068 77.6926 25.6932 70.6697 25.6932ZM67.1337 27.7234C67.7717 27.7234 68.2874 28.2391 68.2874 28.8771C68.2874 29.5152 67.7717 30.0309 67.1337 30.0309C66.4956 30.0309 65.9799 29.5152 65.9799 28.8771C65.9799 28.2391 66.4956 27.7234 67.1337 27.7234ZM70.86 52.0271C77.5802 52.0271 77.1605 49.1128 77.1605 49.1128L77.153 46.0936H70.7402V45.1871H79.7002C79.7002 45.1871 84.0005 45.6748 84.0005 38.8941C84.0005 32.1134 80.2471 32.3539 80.2471 32.3539H78.0071V35.5004C78.0071 35.5004 78.1279 39.2537 74.3137 39.2537H67.9532C67.9532 39.2537 64.3797 39.1959 64.3797 42.7074V48.5135C64.3797 48.5135 63.8371 52.0271 70.86 52.0271ZM74.3961 49.9968C73.7581 49.9968 73.2424 49.4811 73.2424 48.8431C73.2424 48.2051 73.7581 47.6894 74.3961 47.6894C75.0341 47.6894 75.5498 48.2051 75.5498 48.8431C75.5498 49.4811 75.0341 49.9968 74.3961 49.9968Z" fill="#8B8B8B"/>
</svg>
