<svg width="62" height="71" viewBox="0 0 62 71" fill="none" xmlns="http://www.w3.org/2000/svg">
<path d="M57.5668 60.0181V55.1216C57.5668 53.2335 56.6569 51.4847 55.1896 50.4354C50.0827 46.7986 38.8597 44.7001 32.632 44.2792L32.6293 37.003C40.6736 36.0248 46.9691 29.2371 46.9691 20.9144C46.9008 11.8208 39.6243 4.54736 30.6021 4.54736C21.5799 4.54736 14.3029 11.8208 14.3029 20.8465C14.3029 29.1692 20.5985 35.9572 28.6428 36.9351V44.2086C22.4183 44.5583 11.1922 46.6569 6.08513 50.3648C4.54678 51.414 3.70793 53.1628 3.70793 55.0509V59.9474C1.53835 60.718 0 62.8165 0 65.2648C0 68.4126 2.51934 70.9319 5.66711 70.9319C8.81488 70.9319 11.3342 68.4126 11.3342 65.2648C11.3342 62.8165 9.79587 60.7891 7.62628 59.9474V55.0509C7.62628 54.4908 7.90499 53.9306 8.39685 53.5808C12.8726 50.362 23.26 48.545 28.6454 48.1952V60.0154C26.4759 60.786 24.9375 62.8845 24.9375 65.3328C24.9375 68.4806 27.4568 70.9999 30.6046 70.9999C33.7524 70.9999 36.2717 68.4806 36.2717 65.3328C36.2717 62.8845 34.7334 60.8571 32.5638 60.0154L32.5611 48.1952C38.0178 48.545 48.4021 50.3648 52.8096 53.5808C53.2988 53.9306 53.5802 54.4907 53.5802 55.0509V59.9474C51.4106 60.718 49.8723 62.8165 49.8723 65.2648C49.8723 68.4126 52.3916 70.9319 55.5394 70.9319C58.6872 70.9319 61.2065 68.4126 61.2065 65.2648C61.2721 62.8849 59.7336 60.8569 57.5668 60.0181ZM30.8807 30.2178C29.7604 30.2178 28.9215 29.3079 28.9215 28.2586C28.9215 27.1383 29.8315 26.2994 30.8807 26.2994C32.001 26.2994 32.8399 27.2094 32.8399 28.2586C32.8399 29.3789 31.93 30.2178 30.8807 30.2178ZM27.804 17.0664C27.733 17.4872 27.3832 17.837 26.8941 17.837H25.4951C24.9349 17.837 24.5169 17.3479 24.5852 16.7877C25.006 14.0608 26.8941 11.4704 30.6703 11.4704C33.0475 11.4704 35.0777 12.659 36.0559 14.6181C36.9658 16.438 36.8265 18.6048 35.6351 20.2142C34.8646 21.2634 34.0968 21.8236 33.5366 22.2416C32.9082 22.6624 32.6267 22.8701 32.5584 23.9193C32.5584 24.4084 32.1376 24.7582 31.6485 24.7582H30.2495C29.6894 24.7582 29.2713 24.269 29.3396 23.78C29.55 21.3317 30.5282 20.4218 31.7168 19.5829C32.2059 19.2332 32.6267 18.9545 33.1158 18.3233C33.6049 17.6948 33.6049 16.8532 33.2552 16.0854C32.9764 15.5963 32.3452 14.7575 30.7358 14.7575C28.5745 14.7602 27.9434 16.0171 27.804 17.0664Z" fill="#8B8B8B"/>
<circle cx="30.3914" cy="19.5861" r="18.0861" fill="white" stroke="#666FBF" stroke-width="3"/>
<path d="M30.9123 30.7781C29.6137 30.7781 28.6414 29.7596 28.6414 28.5851C28.6414 27.331 29.6961 26.3921 30.9123 26.3921C32.2109 26.3921 33.1832 27.4106 33.1832 28.5851C33.1832 29.8391 32.1285 30.7781 30.9123 30.7781ZM27.346 16.057C27.2637 16.528 26.8583 16.9195 26.2913 16.9195H24.6697C24.0205 16.9195 23.5359 16.372 23.615 15.745C24.1028 12.6926 26.2914 9.79297 30.6684 9.79297C33.4238 9.79297 35.7771 11.1234 36.911 13.3165C37.9656 15.3535 37.8041 17.7789 36.4232 19.5805C35.53 20.7549 34.6401 21.382 33.9908 21.8499C33.2623 22.3209 32.9361 22.5534 32.857 23.7278C32.857 24.2753 32.3692 24.6668 31.8023 24.6668H30.1807C29.5314 24.6668 29.0468 24.1193 29.126 23.5719C29.3698 20.8314 30.5037 19.8128 31.8814 18.8739C32.4483 18.4824 32.9361 18.1704 33.503 17.4638C34.0699 16.7604 34.0699 15.8183 33.6645 14.9589C33.3415 14.4114 32.6098 13.4724 30.7443 13.4724C28.2391 13.4755 27.5076 14.8825 27.346 16.057Z" fill="#666FBF"/>
</svg>
