<svg width="38" height="45" viewBox="0 0 38 45" fill="none" xmlns="http://www.w3.org/2000/svg">
<path d="M35.7391 37.2611V34.2212C35.7391 33.049 35.1742 31.9633 34.2633 31.3119C31.0928 29.054 24.1252 27.7512 20.2589 27.4899L20.2572 22.9726C25.2513 22.3653 29.1598 18.1513 29.1598 12.9844C29.1174 7.33881 24.5999 2.82324 18.9987 2.82324C13.3974 2.82324 8.87967 7.33881 8.87967 12.9422C8.87967 18.1092 12.7881 22.3234 17.7823 22.9305V27.4461C13.9179 27.6632 6.94845 28.966 3.77782 31.268C2.82277 31.9194 2.30199 33.0051 2.30199 34.1773V37.2172C0.955052 37.6956 0 38.9984 0 40.5184C0 42.4726 1.56408 44.0367 3.5183 44.0367C5.47253 44.0367 7.03661 42.4726 7.03661 40.5184C7.03661 38.9984 6.08155 37.7397 4.73461 37.2172V34.1773C4.73461 33.8295 4.90764 33.4818 5.21301 33.2646C7.99166 31.2663 14.4404 30.1382 17.7839 29.9211V37.2594C16.437 37.7378 15.4819 39.0406 15.4819 40.5606C15.4819 42.5148 17.046 44.0789 19.0002 44.0789C20.9545 44.0789 22.5185 42.5148 22.5185 40.5606C22.5185 39.0406 21.5635 37.7819 20.2165 37.2594L20.2148 29.9211C23.6025 30.1382 30.0494 31.268 32.7857 33.2646C33.0894 33.4818 33.2641 33.8295 33.2641 34.1773V37.2172C31.9172 37.6956 30.9621 38.9984 30.9621 40.5184C30.9621 42.4726 32.5262 44.0367 34.4804 44.0367C36.4347 44.0367 37.9987 42.4726 37.9987 40.5184C38.0395 39.0408 37.0844 37.7818 35.7391 37.2611ZM19.1716 18.7602C18.4761 18.7602 17.9553 18.1953 17.9553 17.5439C17.9553 16.8483 18.5202 16.3276 19.1716 16.3276C19.8672 16.3276 20.3879 16.8925 20.3879 17.5439C20.3879 18.2394 19.823 18.7602 19.1716 18.7602ZM17.2615 10.5954C17.2174 10.8567 17.0003 11.0738 16.6966 11.0738H15.8281C15.4803 11.0738 15.2208 10.7702 15.2632 10.4224C15.5244 8.72944 16.6966 7.12124 19.041 7.12124C20.5168 7.12124 21.7773 7.85916 22.3846 9.07547C22.9495 10.2053 22.863 11.5505 22.1233 12.5496C21.6449 13.2011 21.1683 13.5488 20.8205 13.8083C20.4303 14.0696 20.2556 14.1985 20.2132 14.8499C20.2132 15.1536 19.952 15.3707 19.6483 15.3707H18.7798C18.432 15.3707 18.1725 15.067 18.2149 14.7634C18.3455 13.2434 18.9528 12.6785 19.6907 12.1578C19.9943 11.9406 20.2556 11.7676 20.5592 11.3757C20.8629 10.9856 20.8629 10.4631 20.6458 9.9864C20.4727 9.68274 20.0809 9.16197 19.0817 9.16197C17.7399 9.16367 17.348 9.94401 17.2615 10.5954Z" fill="white"/>
<circle cx="18.8679" cy="12.1596" r="10.6596" fill="white" stroke="white" stroke-width="3"/>
<path d="M19.1912 19.108C18.385 19.108 17.7814 18.4757 17.7814 17.7465C17.7814 16.968 18.4362 16.385 19.1912 16.385C19.9974 16.385 20.6011 17.0174 20.6011 17.7465C20.6011 18.5251 19.9463 19.108 19.1912 19.108ZM16.9772 9.9687C16.9261 10.2611 16.6744 10.5042 16.3224 10.5042H15.3157C14.9126 10.5042 14.6118 10.1643 14.6609 9.77503C14.9637 7.87999 16.3224 6.07983 19.0398 6.07983C20.7505 6.07983 22.2115 6.90583 22.9154 8.26732C23.5702 9.53198 23.4699 11.0377 22.6126 12.1562C22.0581 12.8853 21.5056 13.2746 21.1025 13.5651C20.6502 13.8575 20.4477 14.0019 20.3985 14.731C20.3985 15.0709 20.0957 15.3139 19.7438 15.3139H18.737C18.3339 15.3139 18.0331 14.974 18.0822 14.6342C18.2336 12.9328 18.9376 12.3005 19.7929 11.7175C20.1449 11.4745 20.4477 11.2808 20.7996 10.8421C21.1516 10.4054 21.1516 9.82053 20.8999 9.28698C20.6994 8.94708 20.2451 8.36415 19.087 8.36415C17.5317 8.36605 17.0775 9.23954 16.9772 9.9687Z" fill="#6D76C4"/>
</svg>
