<svg width="62" height="78" viewBox="0 0 62 78" fill="none" xmlns="http://www.w3.org/2000/svg">
<path d="M44.7198 77.8069C54.2437 77.8069 62 70.0584 62 60.5267C62 57.0632 60.9568 53.7051 59.0355 50.8635C58.739 51.2167 58.3794 51.5131 57.9712 51.748C59.6916 54.34 60.6166 57.3889 60.6166 60.5266C60.6166 69.297 53.4839 76.4234 44.7199 76.4234C35.9495 76.4234 28.8231 69.297 28.8231 60.5266C28.8231 51.7625 35.9495 44.6299 44.7199 44.6299C47.2017 44.6299 49.6201 45.2034 51.804 46.3034C51.9838 45.8741 52.2397 45.4739 52.5572 45.1354C50.1386 43.8961 47.4642 43.2465 44.72 43.2465C35.1883 43.2465 27.4398 51.0012 27.4398 60.5267C27.4398 70.0584 35.1883 77.8069 44.72 77.8069L44.7198 77.8069Z" fill="#666FBF"/>
<path d="M56.4697 60.5267C56.4697 54.0502 51.1967 48.7771 44.7201 48.7771C38.2369 48.7771 32.9705 54.0502 32.9705 60.5267C32.9705 67.0099 38.2369 72.2763 44.7201 72.2763C45.9643 72.2763 47.2019 72.0755 48.3764 71.6883C48.0864 71.3222 47.858 70.901 47.7057 70.4506C46.7386 70.7422 45.7294 70.8945 44.7201 70.8945C38.9967 70.8945 34.3523 66.2435 34.3523 60.5267C34.3523 54.8099 38.9967 50.1589 44.7201 50.1589C50.4369 50.1589 55.0879 54.8099 55.0879 60.5267C55.0879 62.2066 54.6943 63.8168 53.9329 65.2685C54.3476 65.5034 54.7137 65.8015 55.0247 66.1595C55.9724 64.4455 56.4697 62.5307 56.4697 60.5269L56.4697 60.5267Z" fill="#666FBF"/>
<path d="M44.7202 55.6054C42.0035 55.6054 39.7922 57.8101 39.7922 60.5268C39.7922 63.2434 42.0034 65.4548 44.7202 65.4548C47.4304 65.4548 49.6416 63.2435 49.6416 60.5268C49.6416 57.81 47.4304 55.6054 44.7202 55.6054Z" fill="#666FBF"/>
<path d="M52.8211 48.0241C52.8211 46.3928 54.1414 45.0725 55.7711 45.0725C57.4024 45.0725 58.7227 46.3928 58.7227 48.0241C58.7227 49.6538 57.4024 50.974 55.7711 50.974C54.1414 50.974 52.8211 49.6538 52.8211 48.0241Z" fill="#666FBF"/>
<path d="M51.7922 71.9736C53.417 71.9736 54.7373 70.6468 54.7373 69.022C54.7373 67.3972 53.417 66.0769 51.7922 66.0769C50.1674 66.0769 48.8406 67.3971 48.8406 69.022C48.8406 70.6452 50.1674 71.9736 51.7922 71.9736Z" fill="#666FBF"/>
<path fill-rule="evenodd" clip-rule="evenodd" d="M23.3731 70.1723H3.37502C1.51316 70.1723 0 68.6591 0 66.7973V3.37502C0 1.51316 1.51316 0 3.37502 0H52.4649C54.3267 0 55.8399 1.51316 55.8399 3.37502V41.3027C55.113 40.9014 54.3621 40.5382 53.5899 40.2158V3.37502C53.5899 2.75345 53.0864 2.25001 52.4649 2.25001H3.37502C2.75345 2.25001 2.25001 2.75345 2.25001 3.37502V66.7944C2.25001 67.4159 2.75345 67.9194 3.37502 67.9194H22.5898C22.8127 68.6876 23.0746 69.4394 23.3731 70.1723ZM21.7434 63.2113H9.38255C8.76098 63.2113 8.25754 62.7078 8.25754 62.0863C8.25754 61.4647 8.76098 60.9612 9.38255 60.9612H21.6857C21.6818 61.1359 21.6798 61.311 21.6798 61.4866C21.6798 62.0667 21.7012 62.6419 21.7434 63.2113ZM22.6382 54.8895H9.38255C8.76098 54.8895 8.25754 54.3861 8.25754 53.7645C8.25754 53.1429 8.76098 52.6395 9.38255 52.6395H23.4396C23.135 53.3712 22.8671 54.1219 22.6382 54.8895ZM27.1598 46.5698H9.38255C8.76098 46.5698 8.25754 46.0664 8.25754 45.4448C8.25754 44.8233 8.76098 44.3198 9.38255 44.3198H29.3524C28.5717 45.0192 27.839 45.7711 27.1598 46.5698ZM9.38255 36.5517H17.3782V36.5518C17.9998 36.5518 18.5032 36.0483 18.5032 35.4296V24.0499C18.5032 23.4284 17.9998 22.9249 17.3782 22.9249H9.38255C8.76098 22.9249 8.25754 23.4284 8.25754 24.0499V35.4267C8.25754 36.0483 8.76098 36.5517 9.38255 36.5517ZM16.2532 34.3017H10.5072V25.1749H16.2532V34.3017ZM31.9161 36.5517H23.9232C23.3017 36.5517 22.7982 36.0483 22.7982 35.4267V17.629C22.7982 17.0074 23.3017 16.504 23.9232 16.504H31.9189C32.5405 16.504 33.0439 17.0074 33.0439 17.629V35.4267C33.0411 36.0483 32.5376 36.5517 31.9161 36.5517ZM25.0485 34.3017H30.7945V18.754H25.0485V34.3017ZM38.4611 36.5517H46.4568C47.0783 36.5517 47.5818 36.0482 47.5818 35.4267V8.08598C47.5818 7.46441 47.0783 6.96097 46.4568 6.96097H38.4611C37.8396 6.96097 37.3361 7.46441 37.3361 8.08598V35.4267C37.3361 36.0482 37.8396 36.5517 38.4611 36.5517ZM45.3318 34.3017H39.5858V9.21098H45.3318V34.3017Z" fill="#8B8B8B"/>
</svg>
