<svg width="76" height="69" viewBox="0 0 76 69" fill="none" xmlns="http://www.w3.org/2000/svg">
<path fill-rule="evenodd" clip-rule="evenodd" d="M48.3796 48.1823C47.629 48.0284 46.8951 47.8285 46.1811 47.5858V62.6733C46.1811 64.493 44.7022 65.9719 42.8825 65.9719H5.49825C3.67854 65.9719 2.19964 64.493 2.19964 62.6733V12.0946C2.19964 10.2749 3.67854 8.79601 5.49825 8.79601H9.8964V10.9951H38.4844V8.79601H42.8825C44.7022 8.79601 46.1811 10.2749 46.1811 12.0946V12.9328C46.8951 12.69 47.629 12.4901 48.3796 12.3362V12.0949C48.3796 9.06293 45.9139 6.59722 42.8819 6.59722H38.4838V5.49768C38.4838 3.67798 37.0049 2.19907 35.1852 2.19907H29.0827C28.3075 0.857674 26.8672 0 25.2894 0H23.0903C21.5124 0 20.072 0.857674 19.2969 2.19907H13.1944C11.3747 2.19907 9.89583 3.67798 9.89583 5.49768V6.59722H5.49768C2.46571 6.59722 0 9.06293 0 12.0949V62.6736C0 65.7056 2.46571 68.1713 5.49768 68.1713H42.8819C45.9139 68.1713 48.3796 65.7056 48.3796 62.6736V48.1823ZM43.9821 13.8452V13.1942H4.39872V63.7729H43.9821V46.6733C43.2173 46.2955 42.4827 45.8659 41.783 45.389V61.5734H6.59779V15.3929H41.4068C42.218 14.8097 43.079 14.2913 43.9821 13.8452ZM38.8722 17.5919H21.9907V40.6819H37.0349C36.5496 39.983 36.1118 39.2486 35.7261 38.4835H24.1898V19.7917H37.0662C37.6111 19.0118 38.2153 18.2764 38.8722 17.5919ZM38.8292 42.8816H8.79661V45.0807H39.5836V43.6287C39.325 43.387 39.0735 43.1378 38.8292 42.8816ZM12.0951 5.4974C12.0951 4.89265 12.5872 4.39786 13.1947 4.39786H20.7707L21.0291 3.66664C21.3425 2.78976 22.1699 2.19879 23.0908 2.19879H25.2898C26.2107 2.19879 27.0381 2.78978 27.3515 3.66664L27.6099 4.39786H35.1859C35.7934 4.39786 36.2855 4.89265 36.2855 5.4974V8.79601H12.0957L12.0951 5.4974ZM10.9957 40.677H8.79661V40.6769C8.79661 38.8324 10.1078 37.7027 11.7049 36.834C10.1051 35.9682 8.79661 34.8384 8.79661 32.9939C8.79661 31.1385 10.1215 30.0059 11.7324 29.1345C10.1215 28.2659 8.79661 27.1361 8.79661 25.2806C8.79661 23.4361 10.1106 22.3064 11.7104 21.4405C10.1106 20.5719 8.79661 19.4393 8.79661 17.5921H10.9957C10.9957 18.6999 12.601 19.4915 14.2888 20.2365C15.9793 19.4915 17.5929 18.6999 17.5929 17.5921H19.792C19.792 19.4421 18.4725 20.5719 16.8672 21.4405C18.4725 22.3092 19.792 23.4417 19.792 25.2944C19.792 27.1389 18.4808 28.2686 16.8837 29.1373C18.4808 30.0031 19.792 31.1329 19.792 32.9774C19.792 34.8328 18.467 35.9654 16.8562 36.8368C18.467 37.7054 19.792 38.8352 19.792 40.6907H17.5929C17.5929 39.5774 15.9739 38.7858 14.2778 38.0353C12.5955 38.7803 10.9957 39.5719 10.9957 40.677ZM14.2888 22.6417C12.601 23.3839 10.9957 24.1756 10.9957 25.2806C10.9957 26.3939 12.6147 27.1855 14.3108 27.936C15.9931 27.191 17.5929 26.3994 17.5929 25.2943C17.5929 24.1811 15.9793 23.3894 14.2888 22.6417ZM14.3108 30.3386C12.6148 31.0862 10.9957 31.8807 10.9957 32.9939C10.9957 34.0989 12.5956 34.8906 14.2778 35.6328C15.9738 34.8851 17.5929 34.0907 17.5929 32.9775C17.5929 31.8724 15.993 31.0835 14.3108 30.3386ZM39.583 47.2798H13.1941V49.4789H39.583V47.2798ZM8.79661 47.2798H10.9957V49.4789H8.79661V47.2798ZM39.5836 51.6779H8.79661V53.877H39.5836V51.6779ZM37.3852 56.0761H39.5842V58.2752H37.3852V56.0761ZM35.1855 56.0761H8.79661V58.2752H35.1855V56.0761Z" fill="#8B8B8B"/>
<path d="M71.8788 45.9096L65.6124 39.6854C70.5051 33.4173 69.9905 24.4904 64.3666 18.8663C61.4054 15.9051 57.4547 14.2737 53.2496 14.2737C49.0426 14.2737 45.0937 15.9052 42.1327 18.8663C39.1715 21.8275 37.54 25.7782 37.54 29.9833C37.54 34.1903 39.1716 38.1392 42.1327 41.1002C45.0939 44.0614 49.0446 45.6929 53.2496 45.6929C56.7273 45.6929 60.1616 44.5342 62.908 42.3443L69.1322 48.6557C69.5179 49.0413 69.9908 49.2141 70.5055 49.2141C71.0203 49.2141 71.4932 48.9994 71.8788 48.6557C72.6518 47.9263 72.6518 46.6821 71.8788 45.9091L71.8788 45.9096ZM65.0978 29.9833C65.0978 33.1591 63.8536 36.1221 61.6201 38.3538C59.3883 40.5856 56.3835 41.8315 53.2495 41.8315C50.1155 41.8315 47.1107 40.5873 44.879 38.3538C42.6472 36.122 41.4013 33.1173 41.4013 29.9833C41.4013 26.8074 42.6454 23.8444 44.879 21.6127C47.1108 19.3809 50.1155 18.135 53.2495 18.135C56.4253 18.135 59.3883 19.3792 61.6201 21.6127C63.8519 23.8462 65.0978 26.8076 65.0978 29.9833Z" fill="#666FBF"/>
</svg>
