<svg width="50" height="54" viewBox="0 0 50 54" fill="none" xmlns="http://www.w3.org/2000/svg">
<path d="M22.7873 27.9835L21.3572 26.4916L19.7917 28.1249L22.7873 31.25L30.2083 23.5082L28.6428 21.875L22.7873 27.9835Z" fill="white"/>
<path d="M43.2292 17.4107C47.0267 17.4107 50 15.6662 50 13.4397V3.96977C50 3.96184 49.9966 3.95617 49.9955 3.94823C49.9955 3.92216 50 3.89496 50 3.86888C50 1.69921 47.0255 0 43.2292 0C39.4317 0 36.4583 1.69924 36.4583 3.86888V3.95957V3.96977V13.4397C36.4583 15.6661 39.4317 17.4107 43.2292 17.4107ZM49.0331 12.644V13.4398C49.0331 15.0676 46.3748 16.4439 43.2292 16.4439C40.0835 16.4439 37.4253 15.0688 37.4253 13.4398V12.661C37.4457 12.6803 37.474 12.6973 37.4944 12.7177C37.5998 12.814 37.7132 12.907 37.8334 12.9965C37.8708 13.0249 37.9059 13.0544 37.9445 13.0827L37.9433 13.0816C38.1088 13.1983 38.28 13.3071 38.4557 13.4058C38.4931 13.4262 38.5328 13.4454 38.5713 13.4658C38.7209 13.5463 38.8763 13.6223 39.0384 13.6948C39.103 13.7232 39.1676 13.7504 39.2322 13.7776C39.3852 13.8422 39.5439 13.9011 39.7072 13.9555C39.7695 13.9771 39.8296 13.9998 39.8931 14.0202C40.1186 14.0916 40.3499 14.1573 40.5902 14.214C40.6231 14.2219 40.6594 14.2276 40.6934 14.2355C40.9031 14.282 41.1184 14.324 41.3395 14.3591C41.4189 14.3716 41.4993 14.3818 41.581 14.3931C41.7703 14.4192 41.9618 14.4407 42.158 14.4577C42.2384 14.4645 42.3189 14.4725 42.3994 14.4781C42.6715 14.4963 42.9469 14.5087 43.2292 14.5087C43.4582 14.5087 43.6815 14.5031 43.8991 14.4883C44.1497 14.4747 44.3945 14.4509 44.636 14.4226C44.713 14.4135 44.7879 14.4022 44.8649 14.3908C45.0305 14.3682 45.1937 14.3421 45.3535 14.3115C45.434 14.2968 45.5145 14.2809 45.595 14.2628C45.7571 14.2287 45.9158 14.1902 46.0722 14.1494C46.1345 14.1324 46.1992 14.1188 46.2604 14.1006C46.4724 14.0406 46.6787 13.9748 46.877 13.9034C46.9133 13.8898 46.9462 13.8751 46.9813 13.8626C47.1423 13.8014 47.2999 13.7368 47.4529 13.6688C47.513 13.6416 47.5719 13.6121 47.6309 13.5837C47.7556 13.5237 47.8757 13.4602 47.9913 13.3956C48.0469 13.3638 48.1036 13.3332 48.158 13.2992C48.2838 13.2233 48.3994 13.1439 48.5162 13.0623C48.5491 13.0385 48.5853 13.0158 48.6182 12.992L48.616 12.9931C48.7542 12.89 48.8869 12.7789 49.0138 12.661C49.0184 12.6553 49.0263 12.6497 49.0331 12.644L49.0331 12.644ZM37.8368 6.21559C37.8855 6.25073 37.9286 6.28587 37.9773 6.31988C38.1224 6.4219 38.2755 6.51939 38.4387 6.61008C38.458 6.62141 38.475 6.63275 38.4931 6.64295C38.6767 6.74497 38.8717 6.83906 39.0735 6.92861C39.129 6.95355 39.188 6.97736 39.2447 6.9989C39.4011 7.06351 39.5621 7.12472 39.7287 7.1814C39.7945 7.20407 39.8579 7.22675 39.9248 7.24715C40.1368 7.31517 40.3544 7.37638 40.5811 7.43079C40.5959 7.43419 40.6095 7.43872 40.6242 7.44212C40.8657 7.4988 41.1128 7.54528 41.3667 7.58722C41.4393 7.59856 41.5118 7.60876 41.5866 7.61896C41.7805 7.64617 41.9754 7.66884 42.1738 7.68584C42.252 7.69264 42.3291 7.70058 42.4085 7.70511C42.6783 7.72325 42.9503 7.73572 43.2303 7.73572C43.5103 7.73572 43.7812 7.72325 44.0521 7.70511C44.1315 7.69944 44.2074 7.69151 44.2856 7.68584C44.4863 7.66884 44.6847 7.64617 44.8796 7.61896C44.9499 7.60876 45.0213 7.59969 45.0905 7.58949C45.5893 7.51127 46.0812 7.39451 46.5619 7.24262C46.6061 7.22901 46.648 7.21314 46.6911 7.19954C46.8997 7.12926 47.1003 7.05331 47.2941 6.97169L47.3497 6.94902C47.9675 6.69283 48.5377 6.33122 49.0331 5.88119V7.25396C49.0331 8.82737 46.3748 10.1559 43.2292 10.1559C40.0835 10.1559 37.4252 8.82737 37.4252 7.25396V5.87553C37.4502 5.89933 37.4808 5.91974 37.5069 5.94241C37.61 6.03763 37.72 6.12832 37.8367 6.2156L37.8368 6.21559ZM37.8311 9.61059C37.8685 9.63893 37.9037 9.6684 37.9422 9.69674L37.9433 9.69561C38.1077 9.8135 38.2788 9.92119 38.4546 10.0209C38.492 10.0413 38.5316 10.0606 38.5702 10.081C38.7198 10.1615 38.8751 10.2375 39.0372 10.31C39.1018 10.3383 39.1665 10.3656 39.2311 10.3928C39.3841 10.4574 39.5428 10.5163 39.706 10.5707C39.7684 10.5923 39.8285 10.6149 39.8919 10.6353C40.1175 10.7068 40.3488 10.7725 40.5891 10.8292C40.6219 10.8371 40.6582 10.8428 40.6922 10.8507C40.9019 10.8972 41.1173 10.9391 41.3384 10.9743C41.4177 10.9868 41.4982 10.997 41.5798 11.0083C41.7691 11.0344 41.9607 11.0559 42.1568 11.0729C42.2373 11.0797 42.3178 11.0876 42.3983 11.0933C42.6703 11.1114 42.9458 11.1239 43.2281 11.1239C43.5103 11.1239 43.7858 11.1114 44.0578 11.0933C44.1395 11.0876 44.2188 11.0797 44.2993 11.0729C44.4943 11.0559 44.687 11.0344 44.8763 11.0083C44.9568 10.997 45.0373 10.9868 45.1177 10.9743C45.3388 10.938 45.5542 10.8972 45.7639 10.8507C45.7979 10.8428 45.833 10.8371 45.867 10.8292C46.1085 10.7725 46.3386 10.7068 46.5642 10.6353C46.6277 10.6149 46.6877 10.5923 46.7501 10.5707C46.9133 10.5152 47.072 10.4562 47.225 10.3928C47.2908 10.3656 47.3565 10.3383 47.4189 10.31C47.581 10.2375 47.7363 10.1615 47.8859 10.081C47.9233 10.0606 47.9641 10.0413 48.0016 10.0209C48.1773 9.92119 48.3484 9.8135 48.5139 9.69561C48.5536 9.6684 48.5876 9.63893 48.625 9.60946C48.744 9.5199 48.8574 9.42695 48.964 9.3306C48.9855 9.31132 49.0127 9.29432 49.0331 9.27392L49.032 10.6399C49.032 12.0965 46.7535 13.3638 43.8381 13.5237C43.6363 13.5373 43.4345 13.5418 43.2282 13.5418C40.0848 13.5418 37.4243 12.2133 37.4243 10.6399V9.27505C37.4447 9.29432 37.473 9.31132 37.4934 9.33173C37.5989 9.42695 37.7122 9.5199 37.8312 9.61059L37.8311 9.61059ZM43.2293 0.965961C46.375 0.965961 49.0332 2.2945 49.0332 3.86791L49.0287 3.94386C48.9471 5.47644 46.2911 6.76987 43.2294 6.76987C40.1677 6.76987 37.5117 5.47534 37.4302 3.94386C37.4302 3.93026 37.4302 3.88152 37.4256 3.86791C37.4256 2.29564 40.0861 0.965961 43.2295 0.965961H43.2293Z" fill="white"/>
<path d="M41.3975 3.08706C41.9994 2.9601 42.6138 2.89775 43.2293 2.90115C44.0013 2.89322 44.7699 2.99411 45.5135 3.20156C45.5566 3.21403 45.6019 3.2197 45.6472 3.22084C45.8887 3.22084 46.0939 3.04286 46.1267 2.80481C46.1607 2.56563 46.0134 2.3389 45.7821 2.27204C44.9512 2.03966 44.092 1.9263 43.2293 1.93423C42.5446 1.93083 41.8622 1.99997 41.1923 2.14167C41.0642 2.16661 40.952 2.24142 40.8805 2.35025C40.808 2.45907 40.7831 2.5917 40.8114 2.71978C40.8386 2.84674 40.9168 2.9567 41.0268 3.02698C41.1367 3.09613 41.2705 3.11767 41.3974 3.08706L41.3975 3.08706Z" fill="white"/>
<path d="M38.6415 4.29064C38.7537 4.35298 38.8852 4.36885 39.0088 4.33371C39.1323 4.29857 39.2366 4.21582 39.299 4.1036C39.359 3.98684 39.4497 3.88935 39.5619 3.82134C39.8023 3.70798 39.9043 3.42232 39.7932 3.18201C39.681 2.94056 39.3964 2.83514 39.155 2.94396C38.8557 3.09586 38.6109 3.33732 38.4533 3.63317C38.391 3.7454 38.3762 3.87802 38.4114 4.00044C38.4465 4.124 38.5293 4.22829 38.6415 4.29064H38.6415Z" fill="white"/>
<path d="M6.77083 53.869C10.5683 53.869 13.5417 52.1244 13.5417 49.898V40.428C13.5417 40.4201 13.5383 40.4144 13.5371 40.4065C13.5371 40.3804 13.5417 40.3532 13.5417 40.3271C13.5417 38.1575 10.5672 36.4583 6.77083 36.4583C2.97334 36.4583 0 38.1575 0 40.3271V40.4178V40.428V49.898C0 52.1243 2.97334 53.869 6.77083 53.869ZM12.5747 49.1022V49.898C12.5747 51.5258 9.91649 52.9021 6.77083 52.9021C3.62518 52.9021 0.96693 51.5271 0.96693 49.898V49.1193C0.987335 49.1385 1.01567 49.1555 1.03608 49.1759C1.1415 49.2723 1.25486 49.3652 1.37503 49.4548C1.41244 49.4831 1.44757 49.5126 1.48612 49.5409L1.48498 49.5398C1.65048 49.6566 1.82167 49.7654 1.99735 49.864C2.03476 49.8844 2.07443 49.9037 2.11298 49.9241C2.26261 50.0046 2.41791 50.0805 2.58002 50.1531C2.64463 50.1814 2.70924 50.2086 2.77386 50.2358C2.92689 50.3004 3.08558 50.3594 3.24882 50.4138C3.31117 50.4353 3.37125 50.458 3.43472 50.4784C3.66031 50.5498 3.89155 50.6156 4.13186 50.6723C4.16473 50.6802 4.20101 50.6859 4.23502 50.6938C4.44473 50.7403 4.66009 50.7822 4.88117 50.8174C4.96052 50.8298 5.041 50.84 5.12262 50.8514C5.31192 50.8774 5.5035 50.899 5.69961 50.916C5.78009 50.9228 5.86058 50.9307 5.94106 50.9364C6.21312 50.9545 6.48857 50.967 6.77085 50.967C6.99983 50.967 7.22314 50.9613 7.44079 50.9466C7.69131 50.933 7.93615 50.9092 8.17762 50.8808C8.25471 50.8718 8.32952 50.8604 8.40661 50.8491C8.57211 50.8264 8.73534 50.8004 8.89518 50.7697C8.97566 50.755 9.05615 50.7391 9.13663 50.721C9.29873 50.687 9.45744 50.6485 9.61386 50.6076C9.6762 50.5906 9.74082 50.577 9.80203 50.5589C10.014 50.4988 10.2203 50.4331 10.4187 50.3617C10.455 50.3481 10.4878 50.3333 10.523 50.3209C10.684 50.2596 10.8415 50.195 10.9946 50.127C11.0546 50.0998 11.1136 50.0703 11.1725 50.042C11.2972 49.9819 11.4174 49.9184 11.533 49.8538C11.5885 49.8221 11.6452 49.7915 11.6996 49.7575C11.8255 49.6815 11.9411 49.6022 12.0579 49.5205C12.0907 49.4967 12.127 49.4741 12.1599 49.4503L12.1576 49.4514C12.2959 49.3482 12.4285 49.2372 12.5555 49.1193C12.56 49.1136 12.568 49.1079 12.5748 49.1023L12.5747 49.1022ZM1.37843 42.6738C1.42717 42.709 1.47025 42.7441 1.51899 42.7781C1.66409 42.8802 1.81711 42.9776 1.98034 43.0683C1.99961 43.0797 2.01662 43.091 2.03476 43.1012C2.21839 43.2032 2.41337 43.2973 2.61515 43.3869C2.67069 43.4118 2.72964 43.4356 2.78631 43.4571C2.94275 43.5218 3.10373 43.583 3.27036 43.6397C3.33611 43.6623 3.39959 43.685 3.46647 43.7054C3.67845 43.7734 3.8961 43.8346 4.1228 43.889C4.13754 43.8924 4.15114 43.897 4.16588 43.9004C4.40733 43.9571 4.65445 44.0035 4.90837 44.0455C4.98092 44.0568 5.05347 44.067 5.12829 44.0772C5.32213 44.1044 5.51709 44.1271 5.71547 44.1441C5.79368 44.1509 5.87077 44.1588 5.95012 44.1634C6.21991 44.1815 6.49197 44.194 6.77195 44.194C7.05193 44.194 7.32285 44.1815 7.59378 44.1634C7.67313 44.1577 7.74908 44.1498 7.8273 44.1441C8.02794 44.1271 8.22632 44.1044 8.4213 44.0772C8.49158 44.067 8.56299 44.0579 8.63214 44.0477C9.13093 43.9695 9.6229 43.8528 10.1035 43.7009C10.1477 43.6873 10.1897 43.6714 10.2327 43.6578C10.4413 43.5875 10.642 43.5116 10.8358 43.4299L10.8913 43.4073C11.5091 43.1511 12.0793 42.7895 12.5747 42.3394V43.7122C12.5747 45.2856 9.91646 46.6142 6.77081 46.6142C3.62515 46.6142 0.966904 45.2856 0.966904 43.7122V42.3338C0.991843 42.3576 1.02245 42.378 1.04852 42.4007C1.15168 42.4959 1.26164 42.5866 1.37839 42.6739L1.37843 42.6738ZM1.37276 46.0688C1.41017 46.0972 1.44531 46.1267 1.48385 46.155L1.48498 46.1539C1.64935 46.2718 1.82051 46.3794 1.99622 46.4792C2.03363 46.4996 2.0733 46.5189 2.11184 46.5393C2.26148 46.6198 2.41678 46.6957 2.57888 46.7683C2.6435 46.7966 2.70811 46.8238 2.77273 46.851C2.92576 46.9156 3.08445 46.9746 3.24769 47.029C3.31003 47.0505 3.37012 47.0732 3.43359 47.0936C3.65917 47.165 3.89042 47.2308 4.13073 47.2874C4.1636 47.2954 4.19988 47.301 4.23389 47.309C4.4436 47.3555 4.65896 47.3974 4.88003 47.4325C4.95938 47.445 5.03987 47.4552 5.12148 47.4665C5.31079 47.4926 5.50237 47.5142 5.69848 47.5312C5.77896 47.538 5.85945 47.5459 5.93993 47.5516C6.21199 47.5697 6.48744 47.5822 6.76971 47.5822C7.05199 47.5822 7.32744 47.5697 7.5995 47.5516C7.68112 47.5459 7.76047 47.538 7.84095 47.5312C8.03593 47.5142 8.22862 47.4926 8.41794 47.4665C8.49843 47.4552 8.57891 47.445 8.6594 47.4325C8.88044 47.3963 9.09582 47.3555 9.30554 47.309C9.33955 47.301 9.37469 47.2954 9.4087 47.2874C9.65015 47.2308 9.88027 47.165 10.1058 47.0936C10.1693 47.0732 10.2294 47.0505 10.2917 47.029C10.455 46.9734 10.6137 46.9145 10.7667 46.851C10.8324 46.8238 10.8982 46.7966 10.9605 46.7683C11.1226 46.6957 11.278 46.6198 11.4276 46.5393C11.465 46.5189 11.5058 46.4996 11.5432 46.4792C11.7189 46.3794 11.8901 46.2718 12.0556 46.1539C12.0953 46.1267 12.1293 46.0972 12.1667 46.0677C12.2857 45.9782 12.3991 45.8852 12.5056 45.7888C12.5272 45.7696 12.5544 45.7526 12.5748 45.7322L12.5736 47.0981C12.5736 48.5548 10.2951 49.8221 7.37972 49.9819C7.17794 49.9955 6.97617 50.0001 6.76984 50.0001C3.62645 50.0001 0.965941 48.6715 0.965941 47.0981V45.7333C0.986345 45.7526 1.01468 45.7696 1.03509 45.79C1.14051 45.8852 1.25387 45.9782 1.3729 46.0688L1.37276 46.0688ZM6.77097 37.4242C9.91669 37.4242 12.5749 38.7528 12.5749 40.3262L12.5703 40.4021C12.4887 41.9347 9.83275 43.2281 6.77108 43.2281C3.7094 43.2281 1.05336 41.9336 0.971818 40.4021C0.971818 40.3885 0.971818 40.3398 0.967284 40.3262C0.967284 38.7539 3.62779 37.4242 6.77119 37.4242H6.77097Z" fill="white"/>
<path d="M4.93912 39.5453C5.54104 39.4184 6.15544 39.356 6.77098 39.3594C7.54295 39.3515 8.31151 39.4524 9.05513 39.6598C9.09821 39.6723 9.14355 39.678 9.18889 39.6791C9.43034 39.6791 9.63553 39.5011 9.66838 39.2631C9.70239 39.0239 9.55503 38.7972 9.32378 38.7303C8.49286 38.4979 7.63362 38.3846 6.77096 38.3925C6.08627 38.3891 5.40388 38.4582 4.73393 38.5999C4.60584 38.6249 4.49362 38.6997 4.42221 38.8085C4.34966 38.9173 4.32472 39.0499 4.35306 39.178C4.38027 39.305 4.45848 39.415 4.56844 39.4852C4.6784 39.5544 4.81216 39.5759 4.93911 39.5453L4.93912 39.5453Z" fill="white"/>
<path d="M2.18312 40.7489C2.29535 40.8112 2.42684 40.8271 2.55039 40.792C2.67395 40.7568 2.77824 40.6741 2.84059 40.5619C2.90067 40.4451 2.99135 40.3476 3.10358 40.2796C3.3439 40.1662 3.44592 39.8806 3.33483 39.6403C3.2226 39.3988 2.93807 39.2934 2.69663 39.4022C2.39738 39.5541 2.15252 39.7956 1.99494 40.0914C1.9326 40.2036 1.91786 40.3363 1.953 40.4587C1.98814 40.5823 2.07089 40.6865 2.18312 40.7489H2.18312Z" fill="white"/>
<path d="M33.6408 34.1809C34.3905 33.4312 34.5339 32.2742 33.9851 31.3485C33.8607 31.1382 33.8435 30.8781 33.9449 30.6333C34.0386 30.4076 34.2356 30.2355 34.488 30.1724C35.5131 29.9104 36.2303 28.9886 36.2303 27.931V25.7471C36.2303 24.6876 35.5131 23.7677 34.4708 23.5019C34.2375 23.4426 34.0405 23.2724 33.9392 23.0295C33.8435 22.8 33.8588 22.5399 33.9927 22.3143C34.5339 21.404 34.3886 20.245 33.6408 19.4973L32.0975 17.954C31.3479 17.2043 30.1908 17.0609 29.2652 17.6097C29.0567 17.7359 28.7928 17.7512 28.5499 17.648C28.3243 17.5543 28.1522 17.3573 28.089 17.1048C27.827 16.0817 26.9052 15.3645 25.8477 15.3645H23.6637C22.6042 15.3645 21.6843 16.0816 21.4185 17.124C21.3592 17.3573 21.189 17.5543 20.9481 17.6556C20.7186 17.7512 20.4566 17.7359 20.2309 17.6021C19.3225 17.0608 18.1616 17.2062 17.4139 17.9539L15.8706 19.4973C15.1209 20.2469 14.9775 21.4039 15.5264 22.3296C15.6507 22.54 15.6679 22.8001 15.5646 23.0467C15.4709 23.2724 15.2739 23.4426 15.0234 23.5076C13.9983 23.7677 13.2811 24.6895 13.2811 25.7471V27.9311C13.2811 28.9906 13.9983 29.9105 15.0406 30.1762C15.2758 30.2355 15.4709 30.4057 15.5722 30.6486C15.6679 30.8781 15.6526 31.1382 15.5187 31.3638C14.9775 32.2742 15.1228 33.4331 15.8706 34.1809L17.4139 35.7242C18.1635 36.4738 19.3225 36.6173 20.2462 36.0684C20.4547 35.9422 20.7186 35.9269 20.9615 36.0302C21.1871 36.1239 21.3592 36.3209 21.4224 36.5733C21.6844 37.5964 22.6062 38.3136 23.6637 38.3136H25.8477C26.9072 38.3136 27.8271 37.5965 28.0929 36.5542C28.1522 36.3208 28.3224 36.1239 28.5633 36.0225C28.7928 35.9269 29.0548 35.9422 29.2805 36.0761C30.1889 36.6173 31.3498 36.4719 32.0975 35.7242L33.6408 34.1809ZM30.0474 34.7527C29.422 34.3798 28.6475 34.3281 27.959 34.6169C27.2916 34.8961 26.7886 35.4794 26.605 36.1928C26.517 36.5409 26.2053 36.7837 25.8477 36.7837H23.6637C23.3061 36.7837 22.9943 36.5408 22.9006 36.1775C22.7247 35.4794 22.2198 34.8961 21.539 34.6112C21.254 34.4926 20.95 34.4314 20.6459 34.4314C20.2328 34.4314 19.8178 34.5423 19.4487 34.7623C19.1408 34.9459 18.7488 34.8962 18.4944 34.6437L16.9511 33.1004C16.6987 32.846 16.6489 32.454 16.8402 32.1327C17.2112 31.5073 17.2648 30.7309 16.9779 30.0443C16.6987 29.3769 16.1154 28.872 15.4001 28.6903C15.054 28.6004 14.8111 28.2887 14.8111 27.9311V25.7471C14.8111 25.3895 15.054 25.0777 15.4173 24.984C16.1154 24.8062 16.6987 24.3013 16.9817 23.6224C17.2647 22.9473 17.2131 22.1728 16.8325 21.5302C16.6489 21.2223 16.6987 20.8303 16.9511 20.5778L18.4944 19.0345C18.7488 18.7821 19.1427 18.7343 19.4621 18.9236C20.0875 19.2946 20.862 19.3482 21.5505 19.0594C22.2179 18.7802 22.7209 18.1969 22.9045 17.4835C22.9944 17.1374 23.3061 16.8945 23.6637 16.8945H25.8477C26.2053 16.8945 26.5171 17.1374 26.6108 17.5007C26.7867 18.1988 27.2916 18.7821 27.9724 19.067C28.6475 19.3501 29.4239 19.2965 30.0608 18.9159C30.3687 18.7323 30.7626 18.7821 31.0151 19.0345L32.5584 20.5778C32.8108 20.8322 32.8606 21.2242 32.6693 21.5455C32.2983 22.1709 32.2447 22.9474 32.5335 23.6339C32.8108 24.3013 33.3941 24.8062 34.1113 24.9879C34.4575 25.0778 34.7003 25.3895 34.7003 25.7471V27.9311C34.7003 28.2887 34.4575 28.6005 34.0941 28.6942C33.396 28.8701 32.8127 29.375 32.5297 30.0558C32.2467 30.7309 32.2983 31.5054 32.6789 32.148C32.8625 32.4559 32.8128 32.848 32.5603 33.1004L31.017 34.6437C30.7626 34.8961 30.3687 34.944 30.0474 34.7527H30.0474Z" fill="white"/>
<path d="M43.88 49.0232H42.35V41.3735H37.7602V49.0232H36.2302V38.3136H31.6404V50.5531H48.4698V35.2537H43.88V49.0232ZM34.7003 49.0232H33.1703V39.8435H34.7003V49.0232ZM40.8201 49.0232H39.2901V42.9034H40.8201V49.0232ZM45.4099 36.7836H46.9399V49.0232H45.4099V36.7836Z" fill="white"/>
<path d="M1.48388 16.453C1.78987 16.759 2.18766 16.8928 2.64664 16.8928C4.08861 16.8928 6.14638 15.5733 7.9268 14.1083C9.70918 15.5714 11.765 16.8928 13.207 16.8928C13.6659 16.8928 14.0637 16.759 14.3697 16.453C15.6357 15.1851 13.9547 12.3584 12.0251 10.0101C13.9547 7.66158 15.6357 4.83321 14.3697 3.56714C13.1056 2.29922 10.2752 3.98023 7.9268 5.9099C5.57641 3.98216 2.74799 2.29922 1.48388 3.56714C0.215958 4.83316 1.89888 7.66167 3.82664 10.0101C1.8989 12.3585 0.215958 15.1869 1.48388 16.453ZM13.3161 15.3514C12.9126 15.5235 11.2736 14.8389 9.09729 13.0947C9.44918 12.7734 9.78193 12.4579 10.0784 12.1615C10.3767 11.8631 10.6923 11.5342 11.0136 11.1823C12.7577 13.3529 13.4519 14.9842 13.3161 15.3514ZM13.1593 4.64374C13.2052 4.64374 13.2454 4.64756 13.2798 4.65712C13.4022 5.11611 12.7099 6.72449 11.0117 8.83963C10.6904 8.48775 10.3729 8.15691 10.0765 7.86047C9.78001 7.56402 9.45111 7.24849 9.09728 6.92722C11.0556 5.35904 12.5798 4.64376 13.1593 4.64376L13.1593 4.64374ZM7.92665 7.92546C8.27471 8.24101 8.63042 8.57759 8.9957 8.94287C9.36097 9.30814 9.69566 9.66388 10.0112 10.0119C9.69564 10.36 9.35907 10.7157 8.9957 11.081C8.63043 11.4443 8.27469 11.7809 7.92665 12.0965C7.57858 11.7809 7.22287 11.4463 6.85759 11.081C6.49232 10.7138 6.15763 10.3581 5.8421 10.01C6.15765 9.66195 6.49231 9.30623 6.85759 8.94096C7.22287 8.57568 7.5786 8.23909 7.92665 7.92546ZM2.57354 4.6571C3.04017 4.53088 4.64472 5.22703 6.75796 6.92333C6.40416 7.24462 6.07333 7.56209 5.77498 7.85854C5.47855 8.15688 5.163 8.48579 4.83977 8.83961C3.14347 6.72447 2.45115 5.11609 2.57354 4.6571ZM4.84168 11.1803C5.16297 11.5322 5.47853 11.863 5.77493 12.1595C6.07132 12.4559 6.40414 12.7715 6.756 13.0927C4.58157 14.8388 2.95028 15.5292 2.585 15.3991C2.41288 14.9956 3.09754 13.3566 4.84168 11.1803V11.1803Z" fill="white"/>
<path d="M8.69167 10.0098C8.69167 11.0292 7.16172 11.0292 7.16172 10.0098C7.16172 8.99053 8.69167 8.99053 8.69167 10.0098Z" fill="white"/>
<path d="M19.4008 10.0098H20.9307V11.5397H19.4008V10.0098Z" fill="white"/>
<path d="M16.3409 10.0098H17.8708V11.5397H16.3409V10.0098Z" fill="white"/>
<path d="M22.4607 10.0098H34.7003V11.5397H22.4607V10.0098Z" fill="white"/>
<path d="M25.5206 42.9033H27.0505V44.4333H25.5206V42.9033Z" fill="white"/>
<path d="M28.5805 42.9033H30.1104V44.4333H28.5805V42.9033Z" fill="white"/>
<path d="M14.8115 42.9033H23.9912V44.4333H14.8115V42.9033Z" fill="white"/>
<path d="M6.39649 29.1343H7.92644V30.6642H6.39649V29.1343Z" fill="white"/>
<path d="M6.39649 32.1943H7.92644V33.7243H6.39649V32.1943Z" fill="white"/>
<path d="M6.39649 18.4243H7.92644V27.604H6.39649V18.4243Z" fill="white"/>
<path d="M41.5853 23.0146H43.1152V24.5446H41.5853V23.0146Z" fill="white"/>
<path d="M41.5853 19.9546H43.1152V21.4845H41.5853V19.9546Z" fill="white"/>
<path d="M41.5853 26.0745H43.1152V33.7242H41.5853V26.0745Z" fill="white"/>
</svg>
