<svg width="72" height="78" viewBox="0 0 72 78" fill="none" xmlns="http://www.w3.org/2000/svg">
<path d="M32.7281 40.191L30.6742 38.0483L28.4257 40.394L32.7282 44.8825L43.3865 33.7634L41.138 31.4177L32.7281 40.191Z" fill="#666FBF"/>
<path d="M62.0876 25.0061C67.5417 25.0061 71.8122 22.5004 71.8122 19.3027V5.70156C71.8122 5.69016 71.8073 5.68202 71.8057 5.67062C71.8057 5.63318 71.8122 5.59411 71.8122 5.55666C71.8122 2.44048 67.5401 0 62.0876 0C56.6335 0 52.3631 2.44052 52.3631 5.55666V5.68691V5.70156V19.3027C52.3631 22.5003 56.6335 25.0061 62.0876 25.0061V25.0061ZM70.4234 18.1599V19.3028C70.4234 21.6407 66.6056 23.6174 62.0876 23.6174C57.5697 23.6174 53.7518 21.6425 53.7518 19.3028V18.1843C53.7811 18.212 53.8218 18.2364 53.8511 18.2657C54.0025 18.4041 54.1653 18.5376 54.3379 18.6662C54.3917 18.7069 54.4421 18.7492 54.4975 18.7899L54.4958 18.7883C54.7335 18.956 54.9794 19.1123 55.2317 19.2539C55.2855 19.2833 55.3424 19.3109 55.3978 19.3402C55.6127 19.4558 55.8358 19.5649 56.0686 19.6691C56.1614 19.7098 56.2542 19.7489 56.347 19.788C56.5668 19.8808 56.7947 19.9654 57.0291 20.0436C57.1187 20.0745 57.205 20.1071 57.2962 20.1364C57.6201 20.2389 57.9523 20.3334 58.2974 20.4148C58.3446 20.4262 58.3967 20.4343 58.4456 20.4457C58.7468 20.5125 59.0561 20.5727 59.3736 20.6232C59.4876 20.6411 59.6032 20.6557 59.7204 20.672C59.9923 20.7095 60.2674 20.7404 60.5491 20.7648C60.6647 20.7746 60.7803 20.786 60.8959 20.7941C61.2866 20.8202 61.6822 20.8381 62.0876 20.8381C62.4165 20.8381 62.7372 20.8299 63.0498 20.8088C63.4096 20.7892 63.7613 20.755 64.1081 20.7143C64.2188 20.7013 64.3263 20.685 64.437 20.6688C64.6747 20.6362 64.9091 20.5988 65.1387 20.5548C65.2543 20.5336 65.3699 20.5108 65.4855 20.4848C65.7183 20.4359 65.9462 20.3806 66.1709 20.322C66.2604 20.2976 66.3532 20.278 66.4412 20.252C66.7456 20.1657 67.0419 20.0713 67.3268 19.9687C67.3789 19.9491 67.4262 19.928 67.4766 19.9101C67.7078 19.8222 67.9341 19.7294 68.1539 19.6317C68.2402 19.5926 68.3249 19.5503 68.4095 19.5096C68.5886 19.4233 68.7612 19.3321 68.9273 19.2393C69.007 19.1937 69.0884 19.1498 69.1666 19.1009C69.3473 18.9918 69.5134 18.8779 69.6811 18.7606C69.7283 18.7264 69.7804 18.6939 69.8276 18.6597L69.8243 18.6613C70.023 18.5132 70.2135 18.3536 70.3958 18.1843C70.4023 18.1762 70.4137 18.168 70.4235 18.1599L70.4234 18.1599ZM54.3428 8.92711C54.4128 8.97757 54.4747 9.02805 54.5447 9.07689C54.7531 9.22342 54.9729 9.36344 55.2073 9.49368C55.235 9.50996 55.2594 9.52624 55.2855 9.5409C55.5492 9.68742 55.8292 9.82256 56.119 9.95118C56.1988 9.987 56.2835 10.0212 56.3649 10.0521C56.5896 10.1449 56.8208 10.2328 57.0601 10.3142C57.1545 10.3468 57.2457 10.3794 57.3417 10.4087C57.6462 10.5064 57.9588 10.5943 58.2844 10.6724C58.3056 10.6773 58.3251 10.6838 58.3463 10.6887C58.6931 10.7701 59.048 10.8369 59.4127 10.8971C59.5169 10.9134 59.6211 10.928 59.7285 10.9427C60.0069 10.9818 60.2869 11.0143 60.5719 11.0387C60.6842 11.0485 60.7949 11.0599 60.9089 11.0664C61.2964 11.0925 61.6871 11.1104 62.0892 11.1104C62.4913 11.1104 62.8805 11.0925 63.2696 11.0664C63.3835 11.0583 63.4926 11.0469 63.605 11.0387C63.8931 11.0143 64.178 10.9818 64.4581 10.9427C64.559 10.928 64.6616 10.915 64.7609 10.9004C65.4773 10.788 66.1839 10.6203 66.8742 10.4022C66.9377 10.3826 66.9979 10.3598 67.0598 10.3403C67.3593 10.2394 67.6475 10.1303 67.9259 10.013L68.0057 9.98049C68.893 9.61254 69.7119 9.09318 70.4234 8.44682V10.4184C70.4234 12.6782 66.6055 14.5864 62.0876 14.5864C57.5697 14.5864 53.7518 12.6782 53.7518 10.4184V8.43869C53.7876 8.47288 53.8315 8.50219 53.869 8.53475C54.0171 8.67151 54.1751 8.80175 54.3428 8.92712L54.3428 8.92711ZM54.3347 13.8031C54.3884 13.8438 54.4389 13.8862 54.4942 13.9269L54.4958 13.9253C54.7319 14.0946 54.9777 14.2492 55.2301 14.3925C55.2838 14.4218 55.3408 14.4495 55.3962 14.4788C55.6111 14.5944 55.8341 14.7035 56.067 14.8077C56.1598 14.8484 56.2526 14.8875 56.3454 14.9265C56.5652 15.0193 56.7931 15.104 57.0275 15.1821C57.1171 15.2131 57.2034 15.2456 57.2945 15.2749C57.6185 15.3775 57.9506 15.4719 58.2958 15.5533C58.343 15.5647 58.3951 15.5729 58.4439 15.5843C58.7451 15.651 59.0545 15.7113 59.372 15.7617C59.4859 15.7797 59.6015 15.7943 59.7188 15.8106C59.9906 15.848 60.2658 15.879 60.5475 15.9034C60.6631 15.9132 60.7786 15.9246 60.8942 15.9327C61.285 15.9587 61.6806 15.9767 62.086 15.9767C62.4914 15.9767 62.887 15.9587 63.2778 15.9327C63.395 15.9246 63.509 15.9132 63.6246 15.9034C63.9046 15.879 64.1814 15.848 64.4533 15.8106C64.5689 15.7943 64.6845 15.7797 64.8001 15.7617C65.1175 15.7096 65.4269 15.651 65.7281 15.5843C65.7769 15.5729 65.8274 15.5647 65.8762 15.5533C66.223 15.4719 66.5535 15.3775 66.8775 15.2749C66.9687 15.2456 67.055 15.2131 67.1445 15.1821C67.3789 15.1024 67.6069 15.0177 67.8267 14.9265C67.9211 14.8875 68.0155 14.8484 68.1051 14.8077C68.3379 14.7035 68.561 14.5944 68.7759 14.4788C68.8296 14.4495 68.8882 14.4218 68.9419 14.3925C69.1943 14.2492 69.4401 14.0946 69.6778 13.9253C69.7348 13.8862 69.7836 13.8438 69.8374 13.8015C70.0083 13.6729 70.1711 13.5394 70.3242 13.401C70.3551 13.3733 70.3942 13.3489 70.4235 13.3196L70.4219 15.2814C70.4219 17.3735 67.1494 19.1937 62.9621 19.4233C62.6723 19.4428 62.3825 19.4494 62.0862 19.4494C57.5715 19.4494 53.7504 17.5412 53.7504 15.2814V13.3212C53.7797 13.3489 53.8204 13.3733 53.8497 13.4026C54.0011 13.5394 54.1639 13.6729 54.3349 13.8031L54.3347 13.8031ZM62.0878 1.38736C66.6058 1.38736 70.4236 3.29547 70.4236 5.55527L70.4171 5.66435C70.2999 7.8655 66.4853 9.72318 62.088 9.72318C57.6907 9.72318 53.8759 7.86392 53.7588 5.66435C53.7588 5.64481 53.7588 5.5748 53.7523 5.55527C53.7523 3.29709 57.5734 1.38736 62.0881 1.38736H62.0878Z" fill="#8B8B8B"/>
<path d="M59.4568 4.43365C60.3213 4.25131 61.2038 4.16176 62.0878 4.16665C63.1966 4.15525 64.3004 4.30015 65.3684 4.59811C65.4303 4.61602 65.4954 4.62416 65.5605 4.62579C65.9073 4.62579 66.202 4.37018 66.2492 4.02827C66.2981 3.68475 66.0864 3.35912 65.7543 3.26309C64.5609 2.92933 63.3268 2.76652 62.0878 2.7779C61.1044 2.77302 60.1243 2.87233 59.1621 3.07584C58.9782 3.11166 58.817 3.21911 58.7144 3.37541C58.6102 3.53171 58.5744 3.72219 58.6151 3.90615C58.6542 4.0885 58.7665 4.24642 58.9244 4.34737C59.0824 4.44668 59.2745 4.47761 59.4568 4.43365L59.4568 4.43365Z" fill="#8B8B8B"/>
<path d="M55.4986 6.16243C55.6598 6.25197 55.8486 6.27477 56.0261 6.2243C56.2035 6.17383 56.3533 6.05498 56.4429 5.8938C56.5292 5.7261 56.6594 5.58609 56.8206 5.4884C57.1657 5.32559 57.3123 4.91531 57.1527 4.57017C56.9915 4.22338 56.5829 4.07198 56.2361 4.22827C55.8063 4.44643 55.4546 4.79323 55.2283 5.21815C55.1388 5.37933 55.1176 5.56982 55.1681 5.74564C55.2185 5.9231 55.3374 6.07289 55.4986 6.16243H55.4986Z" fill="#8B8B8B"/>
<path d="M9.72457 77.3691C15.1787 77.3691 19.4491 74.8635 19.4491 71.6657V58.0646C19.4491 58.0532 19.4443 58.0451 19.4426 58.0337C19.4426 57.9962 19.4491 57.9571 19.4491 57.9197C19.4491 54.8035 15.177 52.363 9.72457 52.363C4.27044 52.363 0 54.8036 0 57.9197V58.0499V58.0646V71.6657C0 74.8633 4.27044 77.3691 9.72457 77.3691V77.3691ZM18.0604 70.5229V71.6658C18.0604 74.0038 14.2425 75.9804 9.72457 75.9804C5.20664 75.9804 1.38875 74.0056 1.38875 71.6658V70.5473C1.41805 70.575 1.45876 70.5994 1.48806 70.6287C1.63947 70.7671 1.80228 70.9006 1.97487 71.0292C2.0286 71.0699 2.07907 71.1123 2.13442 71.153L2.1328 71.1513C2.3705 71.319 2.61636 71.4753 2.86868 71.617C2.92241 71.6463 2.97939 71.674 3.03475 71.7033C3.24965 71.8189 3.47271 71.9279 3.70553 72.0321C3.79834 72.0728 3.89113 72.1119 3.98394 72.151C4.20373 72.2438 4.43165 72.3285 4.6661 72.4066C4.75564 72.4375 4.84193 72.4701 4.9331 72.4994C5.25709 72.602 5.58922 72.6964 5.93436 72.7778C5.98157 72.7892 6.03367 72.7974 6.08252 72.8087C6.38371 72.8755 6.69303 72.9357 7.01054 72.9862C7.12451 73.0041 7.2401 73.0188 7.35733 73.0351C7.62921 73.0725 7.90436 73.1034 8.18603 73.1279C8.30162 73.1376 8.41722 73.149 8.53281 73.1572C8.92356 73.1832 9.31917 73.2011 9.72459 73.2011C10.0535 73.2011 10.3742 73.193 10.6868 73.1718C11.0466 73.1523 11.3983 73.1181 11.7451 73.0774C11.8558 73.0644 11.9632 73.0481 12.0739 73.0318C12.3116 72.9992 12.5461 72.9618 12.7756 72.9178C12.8912 72.8967 13.0068 72.8739 13.1224 72.8478C13.3552 72.799 13.5832 72.7436 13.8078 72.685C13.8974 72.6606 13.9902 72.6411 14.0781 72.615C14.3826 72.5287 14.6789 72.4343 14.9638 72.3317C15.0159 72.3122 15.0631 72.291 15.1136 72.2731C15.3448 72.1852 15.5711 72.0924 15.7909 71.9947C15.8771 71.9556 15.9618 71.9133 16.0465 71.8726C16.2256 71.7863 16.3981 71.6951 16.5642 71.6023C16.644 71.5567 16.7254 71.5128 16.8035 71.4639C16.9843 71.3549 17.1503 71.2409 17.318 71.1237C17.3652 71.0895 17.4173 71.0569 17.4645 71.0227L17.4613 71.0244C17.6599 70.8762 17.8504 70.7167 18.0328 70.5473C18.0393 70.5392 18.0507 70.5311 18.0604 70.5229L18.0604 70.5229ZM1.97976 61.2901C2.04977 61.3406 2.11163 61.3911 2.18164 61.4399C2.39004 61.5865 2.60981 61.7265 2.84426 61.8567C2.87193 61.873 2.89636 61.8893 2.92241 61.9039C3.18615 62.0505 3.46619 62.1856 3.75599 62.3142C3.83577 62.35 3.92042 62.3842 4.00183 62.4152C4.2265 62.508 4.45771 62.5959 4.69703 62.6773C4.79146 62.7098 4.88264 62.7424 4.97869 62.7717C5.28315 62.8694 5.59575 62.9573 5.92135 63.0355C5.94251 63.0403 5.96205 63.0469 5.98322 63.0517C6.33 63.1331 6.68493 63.1999 7.04962 63.2601C7.15382 63.2764 7.25802 63.2911 7.36547 63.3057C7.64387 63.3448 7.92389 63.3774 8.2088 63.4018C8.32114 63.4115 8.43185 63.4229 8.54582 63.4295C8.9333 63.4555 9.32405 63.4734 9.72617 63.4734C10.1283 63.4734 10.5174 63.4555 10.9065 63.4295C11.0205 63.4213 11.1296 63.4099 11.2419 63.4018C11.5301 63.3774 11.815 63.3448 12.095 63.3057C12.196 63.2911 12.2985 63.278 12.3979 63.2634C13.1142 63.1511 13.8208 62.9834 14.5111 62.7652C14.5746 62.7457 14.6349 62.7229 14.6967 62.7033C14.9963 62.6024 15.2845 62.4933 15.5629 62.3761L15.6426 62.3435C16.5299 61.9756 17.3489 61.4562 18.0603 60.8099V62.7815C18.0603 65.0413 14.2425 66.9494 9.72453 66.9494C5.2066 66.9494 1.38871 65.0413 1.38871 62.7815V60.8017C1.42453 60.8359 1.46849 60.8652 1.50593 60.8978C1.65409 61.0345 1.81202 61.1648 1.9797 61.2902L1.97976 61.2901ZM1.97162 66.1662C2.02535 66.2069 2.07581 66.2492 2.13117 66.2899L2.1328 66.2883C2.36887 66.4576 2.61469 66.6123 2.86706 66.7556C2.92079 66.7849 2.97777 66.8125 3.03312 66.8418C3.24803 66.9574 3.47109 67.0665 3.70391 67.1707C3.79671 67.2114 3.88951 67.2505 3.98231 67.2896C4.2021 67.3824 4.43003 67.467 4.66447 67.5452C4.75402 67.5761 4.84031 67.6087 4.93148 67.638C5.25547 67.7405 5.58759 67.835 5.93273 67.9164C5.97995 67.9278 6.03205 67.9359 6.08089 67.9473C6.38209 68.0141 6.69141 68.0743 7.00892 68.1248C7.12289 68.1427 7.23848 68.1573 7.3557 68.1736C7.62759 68.2111 7.90274 68.242 8.18441 68.2664C8.3 68.2762 8.4156 68.2876 8.53119 68.2957C8.92193 68.3218 9.31755 68.3397 9.72296 68.3397C10.1284 68.3397 10.524 68.3218 10.9147 68.2957C11.032 68.2876 11.1459 68.2762 11.2615 68.2664C11.5415 68.242 11.8183 68.2111 12.0902 68.1736C12.2058 68.1573 12.3214 68.1427 12.437 68.1248C12.7545 68.0727 13.0638 68.0141 13.365 67.9473C13.4139 67.9359 13.4643 67.9278 13.5132 67.9164C13.86 67.835 14.1905 67.7406 14.5144 67.638C14.6056 67.6087 14.6919 67.5761 14.7814 67.5452C15.0159 67.4654 15.2438 67.3807 15.4636 67.2896C15.558 67.2505 15.6525 67.2114 15.742 67.1707C15.9748 67.0665 16.1979 66.9574 16.4128 66.8418C16.4665 66.8125 16.5251 66.7849 16.5789 66.7556C16.8312 66.6123 17.0771 66.4576 17.3148 66.2883C17.3717 66.2492 17.4206 66.2069 17.4743 66.1646C17.6453 66.0359 17.8081 65.9024 17.9611 65.764C17.992 65.7364 18.0311 65.7119 18.0604 65.6826L18.0588 67.6445C18.0588 69.7366 14.7863 71.5568 10.5991 71.7863C10.3093 71.8059 10.0195 71.8124 9.72315 71.8124C5.20847 71.8124 1.38733 69.9043 1.38733 67.6445V65.6843C1.41663 65.7119 1.45733 65.7364 1.48664 65.7657C1.63805 65.9024 1.80086 66.0359 1.97183 66.1662L1.97162 66.1662ZM9.72476 53.7504C14.2428 53.7504 18.0606 55.6585 18.0606 57.9183L18.0541 58.0274C17.9368 60.2285 14.1222 62.0862 9.72492 62.0862C5.32761 62.0862 1.51289 60.227 1.39577 58.0274C1.39577 58.0078 1.39577 57.9378 1.38926 57.9183C1.38926 55.6601 5.2104 53.7504 9.72508 53.7504H9.72476Z" fill="#8B8B8B"/>
<path d="M7.09378 56.7967C7.95828 56.6143 8.84071 56.5248 9.72477 56.5297C10.8335 56.5183 11.9373 56.6632 13.0054 56.9611C13.0672 56.9791 13.1324 56.9872 13.1975 56.9888C13.5443 56.9888 13.839 56.7332 13.8862 56.3913C13.935 56.0478 13.7233 55.7222 13.3912 55.6261C12.1978 55.2924 10.9637 55.1296 9.72474 55.1409C8.74137 55.1361 7.76129 55.2354 6.79908 55.4389C6.61511 55.4747 6.45393 55.5821 6.35136 55.7384C6.24717 55.8947 6.21135 56.0852 6.25205 56.2692C6.29113 56.4515 6.40346 56.6095 6.56139 56.7104C6.71931 56.8097 6.91143 56.8406 7.09376 56.7967L7.09378 56.7967Z" fill="#8B8B8B"/>
<path d="M3.13551 58.5255C3.29669 58.615 3.48555 58.6378 3.663 58.5873C3.84045 58.5369 3.99025 58.418 4.07979 58.2568C4.16608 58.0891 4.29633 57.9491 4.45751 57.8514C4.80266 57.6886 4.9492 57.2783 4.78964 56.9332C4.62846 56.5864 4.2198 56.435 3.87303 56.5913C3.44324 56.8095 3.09155 57.1563 2.86523 57.5812C2.77569 57.7424 2.75453 57.9329 2.805 58.1087C2.85546 58.2861 2.97432 58.4359 3.1355 58.5255H3.13551Z" fill="#8B8B8B"/>
<path d="M48.3164 49.0923C49.3931 48.0156 49.5991 46.3538 48.8108 45.0244C48.6323 44.7222 48.6076 44.3487 48.7531 43.9971C48.8877 43.673 49.1706 43.4258 49.5332 43.3351C51.0055 42.9588 52.0355 41.6349 52.0355 40.116V36.9793C52.0355 35.4576 51.0055 34.1364 49.5085 33.7546C49.1734 33.6695 48.8904 33.425 48.7449 33.0762C48.6076 32.7466 48.6295 32.373 48.8218 32.049C49.5992 30.7415 49.3904 29.077 48.3164 28.003L46.0998 25.7865C45.0232 24.7098 43.3614 24.5038 42.0319 25.2921C41.7325 25.4733 41.3535 25.4953 41.0047 25.347C40.6805 25.2124 40.4333 24.9295 40.3427 24.5669C39.9664 23.0974 38.6425 22.0674 37.1236 22.0674H33.9868C32.4651 22.0674 31.1439 23.0974 30.7622 24.5944C30.6771 24.9295 30.4326 25.2124 30.0865 25.358C29.7569 25.4953 29.3806 25.4733 29.0565 25.2811C27.7518 24.5037 26.0845 24.7125 25.0106 25.7865L22.794 28.003C21.7173 29.0797 21.5113 30.7415 22.2996 32.071C22.4782 32.3731 22.5029 32.7466 22.3545 33.1009C22.22 33.4251 21.937 33.6695 21.5772 33.7629C20.1049 34.1365 19.0749 35.4604 19.0749 36.9793V40.116C19.0749 41.6377 20.1049 42.9589 21.602 43.3407C21.9398 43.4258 22.22 43.6703 22.3655 44.0191C22.5029 44.3487 22.4809 44.7223 22.2886 45.0463C21.5113 46.3538 21.72 48.0183 22.794 49.0923L25.0106 51.3088C26.0873 52.3855 27.7518 52.5915 29.0785 51.8032C29.3779 51.622 29.7569 51.6 30.1058 51.7483C30.4299 51.8829 30.6771 52.1658 30.7677 52.5284C31.144 53.9979 32.468 55.0279 33.9869 55.0279H37.1236C38.6453 55.0279 39.9665 53.9979 40.3482 52.5009C40.4334 52.1658 40.6778 51.8829 41.0239 51.7373C41.3535 51.6 41.7298 51.622 42.0539 51.8143C43.3586 52.5916 45.0259 52.3828 46.0998 51.3089L48.3164 49.0923ZM43.1553 49.9136C42.2572 49.378 41.1447 49.3038 40.1559 49.7186C39.1973 50.1196 38.475 50.9573 38.2113 51.9819C38.0849 52.4818 37.6372 52.8306 37.1236 52.8306H33.9868C33.4732 52.8306 33.0255 52.4818 32.8909 51.9599C32.6382 50.9573 31.9131 50.1196 30.9352 49.7103C30.526 49.54 30.0893 49.4521 29.6525 49.4521C29.0592 49.4521 28.4632 49.6114 27.9331 49.9273C27.4909 50.191 26.9278 50.1196 26.5625 49.757L24.3459 47.5404C23.9834 47.1751 23.9119 46.6121 24.1866 46.1506C24.7195 45.2524 24.7964 44.1372 24.3844 43.1512C23.9834 42.1926 23.1456 41.4675 22.1183 41.2065C21.6211 41.0774 21.2723 40.6297 21.2723 40.1161V36.9793C21.2723 36.4657 21.6212 36.018 22.1431 35.8834C23.1456 35.6279 23.9834 34.9028 24.3899 33.9277C24.7964 32.9582 24.7222 31.8458 24.1756 30.9229C23.9119 30.4806 23.9833 29.9175 24.3459 29.555L26.5625 27.3384C26.9278 26.9759 27.4936 26.9072 27.9524 27.1791C28.8505 27.712 29.963 27.7889 30.9518 27.3741C31.9104 26.9731 32.6327 26.1354 32.8964 25.1108C33.0255 24.6136 33.4732 24.2648 33.9869 24.2648H37.1236C37.6373 24.2648 38.085 24.6137 38.2196 25.1355C38.4723 26.1381 39.1974 26.9759 40.1752 27.3851C41.1448 27.7916 42.2599 27.7147 43.1746 27.1681C43.6168 26.9044 44.1827 26.9758 44.5452 27.3384L46.7618 29.555C47.1243 29.9203 47.1958 30.4834 46.9211 30.9449C46.3882 31.843 46.3113 32.9582 46.7261 33.9443C47.1243 34.9029 47.9621 35.628 48.9921 35.8889C49.4893 36.018 49.8381 36.4657 49.8381 36.9794V40.1161C49.8381 40.6297 49.4893 41.0775 48.9674 41.2121C47.9648 41.4648 47.1271 42.1899 46.7206 43.1677C46.3141 44.1373 46.3882 45.2497 46.9348 46.1726C47.1985 46.6148 47.1271 47.1779 46.7645 47.5404L44.548 49.757C44.1826 50.1196 43.6168 50.1882 43.1553 49.9136H43.1553Z" fill="#8B8B8B"/>
<path d="M63.0223 70.4092H60.8249V59.4223H54.2328V70.4092H52.0354V55.0276H45.4433V72.6066H69.6144V50.6328H63.0223V70.4092ZM49.838 70.4092H47.6407V57.2249H49.838V70.4092ZM58.6275 70.4092H56.4302V61.6197H58.6275V70.4092ZM65.2197 52.8302H67.4171V70.4092H65.2197V52.8302Z" fill="#8B8B8B"/>
<path d="M2.1312 23.6306C2.57067 24.0701 3.14199 24.2623 3.80121 24.2623C5.87223 24.2623 8.82768 22.3671 11.3848 20.2631C13.9447 22.3644 16.8974 24.2623 18.9684 24.2623C19.6276 24.2623 20.1989 24.0701 20.6384 23.6306C22.4567 21.8095 20.0424 17.7499 17.2709 14.377C20.0423 11.004 22.4567 6.94177 20.6384 5.1234C18.8228 3.30235 14.7576 5.71669 11.3848 8.48817C8.00906 5.71947 3.94676 3.30235 2.1312 5.1234C0.310152 6.9417 2.72724 11.0041 5.49596 14.377C2.72727 17.75 0.310152 21.8122 2.1312 23.6306V23.6306ZM19.1252 22.0485C18.5456 22.2957 16.1917 21.3123 13.0659 18.8073C13.5713 18.3459 14.0492 17.8927 14.475 17.467C14.9035 17.0385 15.3567 16.5661 15.8182 16.0606C18.3232 19.1782 19.3202 21.5211 19.1252 22.0485ZM18.9 6.66965C18.9659 6.66965 19.0236 6.67514 19.073 6.68888C19.2488 7.34809 18.2545 9.65812 15.8154 12.696C15.354 12.1906 14.898 11.7154 14.4722 11.2897C14.0465 10.8639 13.5741 10.4107 13.0659 9.94929C15.8785 7.697 18.0677 6.66968 18.9 6.66968L18.9 6.66965ZM11.3846 11.383C11.8845 11.8362 12.3954 12.3196 12.92 12.8442C13.4446 13.3689 13.9253 13.8798 14.3785 14.3797C13.9253 14.8796 13.4419 15.3905 12.92 15.9151C12.3954 16.437 11.8845 16.9204 11.3846 17.3736C10.8847 16.9204 10.3738 16.4397 9.84916 15.9151C9.32454 15.3877 8.84385 14.8768 8.39066 14.3769C8.84387 13.877 9.32453 13.3661 9.84916 12.8415C10.3738 12.3169 10.8847 11.8335 11.3846 11.383ZM3.69622 6.68885C4.36641 6.50757 6.67094 7.5074 9.70606 9.94371C9.19792 10.4052 8.72276 10.8611 8.29426 11.2869C7.86851 11.7154 7.41531 12.1878 6.95108 12.696C4.51477 9.65808 3.52043 7.34806 3.69622 6.68885V6.68885ZM6.95382 16.0578C7.41527 16.5632 7.86849 17.0383 8.29419 17.4641C8.71988 17.8898 9.19789 18.343 9.70325 18.8044C6.58023 21.3122 4.2373 22.3038 3.71267 22.117C3.46547 21.5374 4.44881 19.1835 6.95382 16.0577V16.0578Z" fill="#8B8B8B"/>
<path d="M12.4834 14.3765C12.4834 15.8405 10.286 15.8405 10.286 14.3765C10.286 12.9126 12.4834 12.9126 12.4834 14.3765Z" fill="#8B8B8B"/>
<path d="M27.8643 14.3765H30.0617V16.5738H27.8643V14.3765Z" fill="#8B8B8B"/>
<path d="M23.4695 14.3765H25.6669V16.5738H23.4695V14.3765Z" fill="#8B8B8B"/>
<path d="M32.259 14.3765H49.838V16.5738H32.259V14.3765Z" fill="#8B8B8B"/>
<path d="M36.6538 61.6196H38.8512V63.817H36.6538V61.6196Z" fill="#8B8B8B"/>
<path d="M41.0485 61.6196H43.2459V63.817H41.0485V61.6196Z" fill="#8B8B8B"/>
<path d="M21.2729 61.6196H34.4571V63.817H21.2729V61.6196Z" fill="#8B8B8B"/>
<path d="M9.18692 41.844H11.3843V44.0414H9.18692V41.844Z" fill="#8B8B8B"/>
<path d="M9.18692 46.2388H11.3843V48.4361H9.18692V46.2388Z" fill="#8B8B8B"/>
<path d="M9.18692 26.4617H11.3843V39.6459H9.18692V26.4617Z" fill="#8B8B8B"/>
<path d="M59.7266 33.0544H61.924V35.2518H59.7266V33.0544Z" fill="#8B8B8B"/>
<path d="M59.7266 28.6597H61.924V30.857H59.7266V28.6597Z" fill="#8B8B8B"/>
<path d="M59.7266 37.4492H61.924V48.4361H59.7266V37.4492Z" fill="#8B8B8B"/>
</svg>
