<svg width="29" height="28" viewBox="0 0 29 28" fill="none" xmlns="http://www.w3.org/2000/svg">
<path d="M21.9366 15.6136H6.70801C7.42168 13.837 8.79628 12.3313 10.7157 12.3313H17.9157C19.8423 12.3325 21.2157 13.8383 21.9363 15.6136H21.9366Z" fill="#ffffff"/>
<path d="M9.73828 5.5039C9.73828 2.93632 11.7902 0.8479 14.3226 0.8479C16.848 0.8479 18.9069 2.93617 18.9069 5.5039C18.9069 7.95781 16.9451 10.6999 14.3226 10.6999C11.6941 10.6999 9.73828 7.95772 9.73828 5.5039Z" fill="#ffffff"/>
<path d="M28.8 26.552C28.8 26.8825 28.5305 27.152 28.2 27.152H0.6C0.27069 27.152 0 26.8824 0 26.552C0 26.2156 0.270702 25.952 0.6 25.952H5.6306L4.20209 17.5157C4.17162 17.3411 4.21967 17.1618 4.33451 17.0293C4.44819 16.8922 4.61576 16.8137 4.79036 16.8137H24.0041C24.1845 16.8137 24.3521 16.8922 24.4658 17.0293C24.5795 17.1618 24.6275 17.3411 24.5982 17.5157L23.1639 25.952H28.2002C28.5306 25.952 28.8 26.2156 28.8 26.552Z" fill="#ffffff"/>
</svg>
